<mxfile host="app.diagrams.net" modified="2021-10-31T15:06:52.274Z" agent="5.0 (Windows NT 10.0; Win64; x64) AppleWebKit/537.36 (KHTML, like Gecko) Chrome/94.0.4606.81 Safari/537.36" etag="Hs0dDvhEeTBe3tRlQZLM" version="15.6.2" type="github">
  <diagram id="C5RBs43oDa-KdzZeNtuy" name="Page-1">
    <mxGraphModel dx="5187" dy="3506" grid="1" gridSize="10" guides="1" tooltips="1" connect="1" arrows="1" fold="1" page="1" pageScale="1" pageWidth="827" pageHeight="1169" math="0" shadow="0">
      <root>
        <mxCell id="WIyWlLk6GJQsqaUBKTNV-0" />
        <mxCell id="WIyWlLk6GJQsqaUBKTNV-1" parent="WIyWlLk6GJQsqaUBKTNV-0" />
        <mxCell id="MjlApDLCVCDL2BFmYz9w-977" value="" style="shape=image;verticalLabelPosition=bottom;labelBackgroundColor=#ffffff;verticalAlign=top;aspect=fixed;imageAspect=0;image=data:image/png,iVBORw0KGgoAAAANSUhEUgAAAE8AAABOCAYAAABhaEsjAAALKUlEQVR4Ae2cBcyVNxfHsaFDh1twGBoIMiS4hQULPiRDAsN1CRACwTXZAsFthBCcQLAQIEGGM1wCDN1wd6dffjc5Ta898u7Ky73fSZrn3udpT9t/23Pa09MmUYmEHj9+rHbt2qV+/fVX1bBhQ1W0aFGVKlUqlT17dlWlShX1008/qUWLFqkrV64kkhIrlSTaJblw4YL65ZdfVJ48eVSSJElsQ5o0aVTdunXV2rVr1cePH6Na/KiB9/btWzVmzBiVNWvWoIB98803KmnSpEG/16tXTx04cCBqAEYFvL///lvVr1/fD5QsWbKoNm3aqLlz56odO3aos2fPesBZs2aNGjlypCpfvrxfmowZM6qFCxdGBcCIg3ft2jVVvHhxLxBy586txo0bp27evGkJwqdPn9T27dsDAj9nzhzLtOH4GFHwGKoMNVO2tWrVSl29etVV3ZB1s2bNUpkzZ9a8UqZMqTZv3uyKz3+NHFHw+vfvrysLgOPHj1efP39OcB1OnjypSpYsqXlmy5ZNnT9/PsH83CaMGHgHDx5UyZMn1xUdOHCg27IGjP/XX3+pTJkyab7t2rULGC8cLyMCHrKqefPmuoLVqlVTDOFQ0W+//aZ5M3x3794dKtaWfCIC3uHDhxWVYqimSJFCbdy40bJQbj++ePFClStXTgPYuXNntywSFD8i4I0dO1ZXrHr16oqeGGpCgYgiyps3r7p7926os/DjF3bw3r9/r2rWrKkrNnHiRL9ChOIFc8d06dLpfNatWxcKtpY8wg4ePSB//vyeSiVLlkyhOMJFtWrV0uCFq5HMsocdPBbyrAIYUmnTplU3btww8w/p7w4dOmjwBg8eHFLegZiFHbwjR454lATg5cyZUz18+DBQOULyrl+/fhq8jh07hoSnFZOwg7d3717FcAU8hu+TJ0+syvOfvg0bNkyDx8ol3BR28I4ePeoFXijnd77gDB8+XIMXiclygsD7559/PIKfIQk4Eo4dO6YIx48f94QzZ854DJjS8xi2e/bsUbxnaXXq1CkdTp8+rQh8k4BVhXDu3DkdWH5JwBZ48eJFT0Dbdu3aVYPXqFEjxTtkrm/gvXx78OCBbxs4/u8aPAArWLCgZ9KbOnVqZQYMlWZg6oA1WOZf2Ob4znuUhwT+Bwrffvutsgrp06dXElBKMhEnPybjvMuQIYMO/DcDaanLqlWrHANmRnQNXp8+fTQYAsrX/ixTpox68+aNiYuj367BwwQuYNHrWJRLa5qtzG/e07skPsOXnsQ3qx4l33x7o/TUQE/i0tskL4wQxKOnm6OD37wzeynluXTpkiPAzEiuwHv+/LkqVKiQLuC8efMUxk2RHyJbLl++rAi8X7FihVYYuXLlUqxz+Ya8Ioj84olsEznHU2QfT+ShKSORmYQTJ054ArxY0wp42A35jvwVmcwTsYMlZsuWLdoeiDjBcu2WXIFHAaXF2F+gUnZEgUVhMFWJlLZt3769XdG8jAm///67bXzfCK7AwxoiLQsQjx498uXn9x/tKmnYIXOSxo+JwxfYCCWvli1b2qZiIi3xe/bsaRvfN4Ir8CZNmqQzYx3pxApMz5MCAvjLly99yxCy/xMmTNB5sc9rR2Z9atSoob58+WKXxOu7K/C6dOmiC9etWzcvRsH+vHv3TjHzL1u2rGfOFyxeKN4z/2RX7ocffvDMN+14IvekYZHHbpeOjsGjl9E6ktmMGTPsyub1HYNlJAgTmFO5ioJC81InlAbKxA05Bo+ZuLmrv379ejf5JMq4iJASJUroDoE7hxtyDB4qnzkSrcTMnKmDG3IiH93ws4rrRnY1adJEgzdo0CArtn7fHIPHrr0M2cKFC6v79+/7MQv0YsOGDapTp04ea3Lr1q3V8uXLXQvmQHx93yGvUBiNGzdWtWvXVqyEaHA7Mi0xpHVDjsEzNRkTUCc9aerUqRpwAZ7nkCFD3JTRNi4NiSeVmQe/cd9gqmRFuGpIOjyz3MwGHIP3888/60x69eplVR7PN1rdNApIAeW5detWWx5OI5i9R/jLk3WrleVk//79igk/8VnisbJxSo7A+/Dhg2tNa9rWpCLmM1TbgywZv//+e92wZh7y26qh2BbAV0biutkWdQTenTt3PKYbycCJTwgzdokf6Nm0aVOnDWwZj16FWSlQHvJu9erVQXkwD2VeKHEnT54cNK7vB0fgsUqQIUjXdrKmXbJkiS6QFMx8MrsPBeH0U6dOnaB5sRbHeGBFpkEB8eSUHIGHsVAqjnvY06dPbfkTp0KFCjqdpOeZL18+df36dVseTiPgJWryN3+zKWS3yc42paTBFYTe6IQcgYc3kzBH0zqdR2F6atCggU4Lj4oVK4Zl7xatmSNHDp0XI6Vv377q9evXtjgw4Zf64W1w69Yt2zREcASeuabt3bu3I8YSiVZEYOPtyZwvnFYVTGbLli1T8+fPV2hRp4SdEHEEgBhU9+3b5yipLXh0efxLpGVmzpzpiPHXFAkRU6xYMV3HxYsXOyq+LXi4S5hr2oRYXB2VJIqREEPstkkH4TiDE7IFj61E0bTY+t26wDopRGKIYxpSnU6jbMFjjiQtwvLFqSZKDIC4KQP7MVJPJt1Olmm24OGlLkzx7oxV+vPPP/WZD0YYyseObMHDnC3gseSKVbp9+7bXgZpt27bZVtUSPDRtpUqVNHh//PGHLcOvOULlypV1XZ1Yyi3Bu3fvnvruu+88DDFTh9MxMTGAbvq68NuOLME7dOiQbglAZIMllok5rIgojAV2yzpL8JYuXaqZMXxjVdNKh+BoloDHgUI7a7kleEwWhRkm9Fgn5rDsz0id7cSUJXjmwZNRo0bFOnbq1atXqnTp0hq8BQsWWNY5KHgM0VKlSmlGbNzEA+GOKz1vwIABllUOCh4eTqJpsfG7sVJY5pjIP5rbB5jTrCgoeJzfEu8mNzYuq8y+hm+4xEnPw53u2bNnQYsdFDxsYsIEA2asa1pBiOmZuNHhHImPXzAKCt7QoUM1eJE40xCsgJF+jwmuQIECuu5WbiVBwWvWrJlmMHr06EjXIWr5sZlvnpVjsz8YBQTP9whmvGhaAYlNfRFZVqMuIHj4FuOqAANs+mw9xhOZh59ZpgVzWQsIHjfriKbl4Mm///4bT9h5btDAEELnof7BdtMCgmdaVatWrRr1m3Mi3XKMPAyigMeRBM7PBaKA4Jmatm3btoHSxfQ7TPC4AYvcC3bpTUDw2ACRhJjh45FatGihMaAzBSI/8NhhN9e0Vk4ygRjGyrsRI0Zo8H788ceA1fIDDxcJuSmHNS1bj/FIK1eu1ODht4wrmy/5gYemlSGL31qkvNh9Cxbt/3QaOcvGWTg8533JDzx8SgQ85jjxSogv01MikE+iH3jmfU9cChjPZN6WgX+1L/mBZ/psTJ8+3Td+XP3H8VxGIZ5ivuQFHmZo80iolS+vL6NY/G8uFtjT9d1N8wKPA7viGY5zT0IO8MYSiNj2ZJnGoWz2sU3yAm/Tpk26mxYpUiSs13iYhUisv1nTy1YEw9d3meYF3rRp0zR4yL54J45QmI6dvldreoHXvXt3DV5CDu/GItgc/RKlgXO4SV7gmUdCOQrwf1LKdMHgcgqTNHg4Wpu2+ylTpigEJluOTgM+btxbzE47abmMQS6uYcbOxQhyoQIbKzhSc3rSvHgGvzi5aAaFFc2AB8Hs2bN1z2MmYh6j0OBROTm4SzdFy4imkW7r9ClpeWJUlYBtTAJLHwloeAnsXElA40czcERWdtKoO/iYJyk1eOaa1ilI8Rhv586deuRq8Njc7dGjh9eNsvEITrA6M0pQqOaw/R971ss8zQCSZAAAAABJRU5ErkJggg==;" vertex="1" parent="WIyWlLk6GJQsqaUBKTNV-1">
          <mxGeometry x="1568.33" y="833.4399999999999" width="79" height="78" as="geometry" />
        </mxCell>
        <mxCell id="MjlApDLCVCDL2BFmYz9w-974" value="" style="strokeWidth=2;html=1;shape=mxgraph.flowchart.database;whiteSpace=wrap;rounded=1;shadow=1;sketch=0;fontSize=26;fontColor=#000000;fillColor=none;align=center;" vertex="1" parent="WIyWlLk6GJQsqaUBKTNV-1">
          <mxGeometry x="1534.7" y="781.4399999999999" width="140" height="137" as="geometry" />
        </mxCell>
        <mxCell id="MjlApDLCVCDL2BFmYz9w-49" value="" style="rounded=1;whiteSpace=wrap;html=1;fontSize=16;fontColor=#000000;strokeWidth=2;fillColor=default;align=center;strokeColor=#B3B3B3;opacity=30;shadow=1;" vertex="1" parent="WIyWlLk6GJQsqaUBKTNV-1">
          <mxGeometry x="42.5" y="180" width="340" height="210" as="geometry" />
        </mxCell>
        <mxCell id="MjlApDLCVCDL2BFmYz9w-4" value="" style="rounded=1;whiteSpace=wrap;html=1;fillColor=none;dashed=1;strokeWidth=4;" vertex="1" parent="WIyWlLk6GJQsqaUBKTNV-1">
          <mxGeometry x="-528" y="250" width="390" height="410" as="geometry" />
        </mxCell>
        <mxCell id="MjlApDLCVCDL2BFmYz9w-0" value="" style="shape=image;verticalLabelPosition=bottom;labelBackgroundColor=#ffffff;verticalAlign=top;aspect=fixed;imageAspect=0;image=data:image/png,iVBORw0KGgoAAAANSUhEUgAAAFgAAABYCAYAAABxlTA0AAAIcElEQVR4Ae2ddYgWTxjH1w5EMdE/bL3D7lYQG+WEsxHBQEQR8Q8buwUVbESw4w5bsNA/xEAwsAMRBbG7Ox75Lr+Rfffejam93767A3vzbs0889nnZieeedagOGglYGhNPU6cIgP458+f9OfPn8AfeUoDvn37Nk2YMIFat25N1atXpwYNGtDYsWPp5s2bgYFOWcArVqygkiVLkmEYObYyZcrQoUOHAoGckoAnT56cA6oddKFChejAgQPaIScAvnHjBu3cuZPWrl3ruW3YsIGOHj1Knz9/1i4kTwZTpkzxhMtgA/K+fft4kue+1gT84MED6t27NxUpUsS3cEzIWrVq0bp167gz1nHD1KlTueUvXLgw7d+/X4c4ZpoG3q7t27fnFowBZvH27du1Cekn4WnTpgmXAYqlq7ow8EZlkGRivKXfvXvnh4Xya6ZPny5dBl11snHs2DFp4diD2bJli3J4XgnOnDlTmfw6qgvj7NmzygQcMGCAFw+l52fNmqVMdqYkqC5UvviMx48fU/78+ZUImpaWRl++fFEK0SkxHXAZZGjynj17nLLmOm62Ijp37qwEcLly5ejRo0dcAohcPGfOHCXyMqDJ4gIFCphNVhH5rPeYgA8ePKhE4Hz58tHFixet6Sv/PW/ePCWyJoNqP1awYEGSbR3962jMmDFDieCyAjk9ka9fv9L48eOVyGgH6bW/bNkyQnNWJPwDjJu3bt1KmZmZ1KJFC2rWrFnChmP169enPHnyuBYSD0pHOH36NHXq1Im6du1K3bp1C2xD9dmjRw+6du2aULESAFtT+P37tzm8hyE+Nsz37NkzKl++vCvgwYMHW5OJ/G9HwE5kmjdv7gq4Y8eOTrdG8jg34CFDhrgCRo9u1apVhOHCqGxr1qyhzZs3EzptHz9+TFAkbsBLlixxBez1wkj18+np6bR48WL69euXCZob8PHjx2PASQbx7YozfPhwMcD379+n4sWLx5B9QL5+/Tr/pOePHz+obt26MWAfgDH4xV1FQO/79u0bA/YBGGPMQoAXLlwYA/YB+O7du2KAVY1d2F8MqbSP1gSqUyENvnfvHhUrVizWYhctxhQWghBgtPFq164dA3YAnDdvXjp//rw4YNyJ2YtU+pdWWZZGjRrR9+/f5QDPnz8/BuygwQsWLDDh4o9QFYEb9+7dGwNOAhhzenfu3JEHfOvWLWVzeSr/PXM7LYxVW4OwBmPUqHLlyrEW27QYJmXWIAwYiaiaLM1trVOVf+nSpen58+dWvuJ1MFIZPXp0rMEWDe7fv38CXOxIaTAGmlU9/VRIJysrSy3gM2fOxID/02DYhLx8+VItYFgFlSpVKoZsGDRw4MAccKWrCHSZmzZtGgM2DNq9e7d6wEhx0KBBkQcMU4ZXr17pAbx06dLIA4aSOQWpVgQSVWlfHNaWxK5du5z4yjXTkCrGhqM8CVqxYkV6+/atPsAwisNCmLBqn6zc48aNc4SLE9JVBBKBwaCsoGG8HwPr586d0w9YxSKUMAJGExVGkm5BiQbv2LEjkhqMRZteQQngq1evEkzuw6iFojL7XfCjBDCsz6tWrRoZwBg1Q5n9BCWAkVFGRoYrYLwQoOVYxxGmjcmNwRy4ReBdC6gMsNdSVqykRIP8ypUrdOnSpdBsWNSD6TF0hZmlvx/NZdcoA4wK36s+O3nyJMs3MrEywPAu4rWgcfXq1ZEBywqqDDAmQbF8wE2LmVEyyzwKsTLAgNW9e3dXwO3atYsC04QyKgU8ceJEV8A1atTIsUgkQZoU3FEK2KtHB6sX2MxGKSgFDItCr5Wg2dnZ9OHDh9Bs79+/N+18RZVCKWAIU6VKFddqAtMreBlWq1btf7+hd4qtcePG1KdPH9MJFC9opYCRObqRbi2JsJ/LtZ4ce7JY8Rh2iG7y16tXj2vlvXINRv2aygM/ZcuWdZ0iYorGYuWAkbBOdy9u2hXEOSgPj9scLYDfvHmTsgYpWCPIE7QAhgAPHz40HXgEoVVB5YGxFq85ODt8bYCR0dOnTwnDmC1btqRKlSqZzjwqVKhAYdtgaN62bVtzuNUO0GtfK2Br5mgjwzgZFogYW0X84sWLUGx2HxDWcnn9DgywlyCpej4wwDB13bZtG02aNMlcYzdq1Chavny5ObORW3DhaxNe/mBft2jRIlq5ciXBE6LXVDyPvNoBw8R17ty5js6UMD/Xs2dPwsx0UAHV1ezZsx3b661ataJNmzYpEUcr4NevX5tuuPy85eEOXKXPSCc6WMPWpEkTX73NXr160adPn5yS8nVcG2CsNIefMz9w2TVFixalCxcu+BJc5CK4ffSadWGysLhfv35Ck51MPm2A4RiICckTY52vrNawwtnjYcOGCckk4+FbC2A0a2DWyQPWeq0O94zwnwNflNZ8/P5G9xj1tkjQAljWKNtpQYlIAdk9PM7zk4EXdXerBbDssoKGDRtK1XsMqjWGz8tk4PwegwWpSNACWORrANaCYrbDr+2X30K3adNGCjC+ICMStACGS0UrMN7faEapDh06dJCSCR0kkaAF8KlTp6QKM3ToUJGyuN4zZswYKZk2btzomr7TSS2A8e9ds2ZN4QLB2YfqcOLECWF58O2jJ0+eCImkBTAkEa0m4D7327dvQoVxuwnjC7wdH1a1yTid1gYYPTkvUypWABaXKFFCqw94tIV53ZHhgWOeUTRoAwyBUFV4+RtmcNFygBtx3eHw4cMEY2qWr1sM12VYBygTtAJmgq1fv57q1KmTtFDQ2pEjRwbyeQgmDzS5S5cuSeUBcBiLwxLU7r2E3c8TBwIYAqH7jK9eYZgQbUo0e/BZNVkN4Sms/dojR47QiBEjzI9lYXkAoOPTPZcvX7ZfKrwfGGBhCUN+YwxY8wP8C+1jfWpmJwRzAAAAAElFTkSuQmCC;" vertex="1" parent="WIyWlLk6GJQsqaUBKTNV-1">
          <mxGeometry x="-370" y="330" width="58" height="58" as="geometry" />
        </mxCell>
        <mxCell id="MjlApDLCVCDL2BFmYz9w-1" value="" style="shape=image;verticalLabelPosition=bottom;labelBackgroundColor=#ffffff;verticalAlign=top;aspect=fixed;imageAspect=0;image=data:image/png,iVBORw0KGgoAAAANSUhEUgAAAEcAAABHCAYAAABVsFofAAAOfklEQVR4Ae2a+XcUVRbH+RPmtzlnxFHZCYvpLb2kk3SWTnc1AVEZtsgQIkoCRgRlE9kSUBBFOAjIHMew74uoQIDsCSogKOuIsooyEBj2nSTfOd/bqaISkiYJiXaQPuedqlSqXr37effd7VUzACg9sx3le8bgdnYX3M1WcHur9xFuCu5s9aL0m0EoPbYGKLtDBNX+mpWd/w4o8AHbE3Bn26MMpbJsyO8C7HoOpT99Wi0YXmx2Z9cIoDjhEdaUylD0qwIFXXA79x8ov3W+WkDNbm31aRpza4sX5TleoEgBCh/QChQgT8Hd7JpfTk2UfooU6Zf96wcX6Pyu7tmyHC9ub/Gi6vjqoukcq8iVf89slGUrKM1WUHbxQPVwOAh1kGU5Cn5a6saK9CisnuKqtq2a7MLnU13Imx2No8viUJrtBQoUDbDaF6Fd3eTBl++7sGRiFH5e5gb7V/8f6MhnL37pwbr3XFiWHoWTq9wozVHkefbD/tgv+w80Oeo7SnO82P1pLBZNiELx3Bh5hmAFTI6C8ov7qoejdsAjZ3l5ugvPtDWgTYgRT7UxSHu6jQFqe6q1AS3aGdCxsxERdjNSe9uwc36sAOIM36ow5uW5CkrWexDhMOOvT4ViZYZLZk7/vprOOctHl7thMJrwZCsDtn4UrWkg+2F/7Jf98z019cPrNL6cvIzUcPyleSgG97EDuQqoFIRD6OUX99cODjWmTYgBkQ4zkp63Sev/vA1qS3rBhj5drYh2mgUgB280mjBzuBO3tnlRVjFYDvrc5x64oyx4urUBa9+tG5xjK9ywW/3vyJl1Dw77YX/sl/3XFs57aU78rYUBb/RzPBwcagnBXNvkX3I3srxQ280s/3L579p4Ue0XvWFo2c6AFm0NmJbmRHmFHVLhxLsseKZN/eA4bGa07WBEVTjsj/3WBc7UNCeeaGnAsIaAQ02hWiKX6le5cflQNVHsw6WvPMhIcaBdR6MIsnpKlCyfRx4OtYVgAq1p5HPdepHS04YnW4UiIc6CcxviZZ1zZh9ZzakNHNGuQgX7MuNgDTOhbYgBX013Adt9ovZ/ejil27woz/UitbcdzVuG4oOh4cB2Bec2PNYciXG4vKamhYvRG5lkF9d7/jEcrwbn/aF+OG/1t4vNeQyHgRZD/TwFo5MdojlThoSLJ2uMZbVmiktCg7q6coYZdOUNEufQldfaIOcpOL8hHt5oi0TXC8dHNppBzpoRLe+IibTg9Np4CSkCeVM1v0tP8U/c2IEOmUg1fahzhMwgsLZwmNvQ+DJCZnDGyPrESrfYnAZ35fkKDi2Kg8lkwrOhRuz8V6y8JxAcNUZLesEqqcjckRHyjNR06pM+qHAYDZdl+/MTdqa1bfeWEooVbJnhgtlkkvxr9gj/yxsjCKSgN7d4JX15srVB8iXmg/rkuSooBqoFH8cIzPadjCj8OEYDWq/cigln8os2UT9J81me0Ld8BfROtCkzhjklt2KONaSPDTe3eMAIujHgqDHVgnGRkvwyp8v60AV87ZOSiB6MlDyKfTi91o3unjDRGuaFN7Z4tMC2XnBatzdAibHgwzecIjyP+vb+606MSXbAF2ORlKFDJyMG9bTh9Lp4gcZBNhYclj0ubfRgQMUysYWZsCIjCtc3e/z1mmIfqM1Mb3b/OxYvPWeVygKX4o4qy7BecDp0NkpJonlLA6pr1BIuvZBORhBMv+5W3MjyyKDUglZjwRHtyVdkInon+DWifUcj/uELk4lkLSrznUikJdphMZvAEkuoweivCrDupKuP1wtOmw4GxERYMPQlu7TXE+1QG6+l9LLhufgwhBpMUrYwm02g+766+V4JoTHhCKACRZbMW/0dCA01ySQSBLWe9agnWobKOaHlz/aXPKrapnrBoVYMeKHmrJz0L38VL1W11F42WVocGAtKyPOKgWxsOAIoj9VBf5Xvw2FOdHOHoeOzJimEjXnZgU0fROPKRo/YS73G8Fm2esOhK5eaba5fWFJXG70G1z6NNQf38VtOWWKsvazMiBJv8HvA8QtYUfPe5cOiCZH4e2sDUnv50xfanvIApdmHglObIJAQ6MlGv+yQkgUDwZLPG6dkoc64epSieZ6/TIqvFak3E05KT7tM2oPqy40OhwMlHNZ8nXazrPPVk6MaJUJWocg7CxUcXhKHCa+Go//zVnAZ0R62DjEipZdd3HVQwJGYItcrHoL5C/MYBl8NnVupcBhjcZeEWtqynREdn7UgpLMZnUNNUpEMKjiSv+QrmPa6PysfNcAh2kQ47ooa8ro6FtiPr3RDrSFnz/R7G8KhvWMg93IPG1qHmBATE4NZs2Zh9OjRMJvNwQ/nTZYs8hXxFAwm6f0YqNGAq7Mf6EhbwhwqzGIST7h93r2Qn/0eXBgnOxOhRjO2bdumbasMHz4cHTpbgnBZ5SkY/k9mvqGYMjhcPBZnuW83K5q3MuCjYc7awylSJC1gcMcU4T+L47TIm/Ztx/xY0RJHeAR+++03Dc7ChQtledFb8d1BYXM4mywfxEbSBhiwPN3vzqkps97011ESu1pxM8ufdwXSGlmiBQomDw6XfKhXQpikBhSWz+nhRES6cPLkSQ3OkiVLgguObNMUKxIhP93WILug9FzcvyK0fZmxkrFTCxjaM0msGqnqYdGQc5vZ5TTLcpw/OqKSxunhOCOicOLECQ3OokWLfj84LA9QeM5m1SYeqiJTXzwhUkoCDNvnVJQsGJHynrJcL8a94pDgjDZky0cu8WS0K/w/++WRwRp3LI4sj5OSBOOVhFgLzqyL13ZRq2rOHwKHJYsBL9r8UXDF1xRqwCXHXD80ehQKzgSUyejg3iwJeGUfS9UG3n9qjVsyeN7DZHDeqAiUbIj3f9GRyw1CL65s8mD9VBfiIs2SLLI+xE1/aoraV1DAaR3i34se/0o4xr8ajnGv6Nqr4WCpkR8QcDOfM8z70/racGb9vZJFJYEqAraXulllqVDDWAMemmjHOwMdGJHkALeVmX4QIINJ2fsqqpxF/+FwlqW7RGAaVnqealsLfymjXQeD7HCumhwlS4Nawu9o9GDUc2oAk0AuO9qTVu3ZvwFPtPA3ArNaTBiV7MDPS92iMVxy6vPq8Xe1OfoB0Ih+Oz8WDOLeGajTFp3m8PqklHDxQlkzXFJYR5FPq66pQlR3VPOwX1a5se7dKCmgTRwUjvdec8o3N4xtZA9e94FR1X5qC4fOQD6cqrBt7IceT8xCviLFOPl4KdAnKHo4lTpgQllTU19c4H9JVQEC/U1DLQPkl2OqPeORf+cHrgez39rAGdzbjtNr3OIpjy2v+MCqyCf1Z+Zj+xbE4SxNQKEPyPeh/EINHy/dKU6GfBtXUePg4AnsgU1XUQsEI9D/9O8KdJ/+fw+CYzJZEBthkbzLGmaW3RDaTRr31/rYJCXhdUbuiydE4W62D7h2RAsH9CfNSn/5Evi2qwB6IJDaQGvke6hh3JJhHlWdK7dYLPJFWOdQM8KsdklGO3Tyb+V06MyjCWaLFR07m2EwWbDwg0HC486dO7h9+7aeDZqhvAx3f85EeXGiAEJhF/+xIEiPOxKwN9MdEE5YWBjmz5+Pw4cPIzMzEza7HaJRsbHYtGkTfvzxR0yYMAFmSxg8SjdkZExBYmIievfujWnTpuHUqVMCqZmKqvz2/8BvkstLvkFZybdB23BxF77LXeyH43TeFyFbrVb07dtXFUuOSUlJsNvtmD59unb9119/RUREBMwWC/iMzWaTxvu6d++OixcvQoOjPdUETvbsPVQjHAo5ZMiQSlKkpKQInDlz5mjXz507B4/HA2qZy+XCJ598AqYfbrdbILEM0jTh7NkTEE5qaqoGgSeDBg0SOLNnz9aunz17FvHx8QJiwYIF2nVm9gTG/wUlnCtXruD69evagKue7GkgONQSGnD2p/62bt0q4LkJGFRwdu/ejTFjxqBLly5ISEhAWloasrKy1HFrx5rg0Pg6HA4MHDhQu5cnycnJCA8Px8yZM7Xr1Jy4uDiB8/3332vXN2/eHHxw1q9fL4LRZtBAqkaSKq5fDpSiJjirV6+Gz+fDqFGjNGF5MnLkSAH+2WefadcJh7aG/XNS1F/QwSkpKZFaMIH06NEDq1atwoYNGzB48GCBRAFoMNVfTXBu3bolXobLUv+7evUqLly4gBs3bmiXz5w5g65duyIyMhI//PCDdj3o4HzxxReapuhV/O7duxg/frwYTQKaN2+eCLF///5qDbImYS1OGPCxinjs2LFK0IIOzty5cwUAbcDly5criUZAEydO1AAtXboUBw4ceGg4lV6i+yPo4OTl5YnmMADLzc3VDdV/ytB+3LhxAohpA101vQyDOH2Z9L4H63Eh6OBcu3YNffr0EeEZX+hdqyofNWjSpEkCkWAIKSqqcg1ZvfdhjkEHh8LQKHKDjtrDo96DqMKWlpaKBtH+ENCfBg4BUGO8Xq8Aogbt3LlT5aIdCSg9PV00yFklt9JueoiToNQcVZ69e/dK6E4NopvdsWOH+i/tyCXGWIZR7PHjx7XrDXES1HAo4MGDBzUNYqBWVFR0n9w00syyWX5oyF/Qw6Gwhw4dkqhW1aDCwsL7GDBWYYDXkL8mAYcCHzlyRGorTCm4xHJychqSQ7V9NRk4HP3Ro0fRs2dPMdJMHquLg6qVsp4XmxQcysiqXa9evTRA1WXq9WRx32NNDg4l4KcmLH/SBrEsQSEa49ck4RAEM2lG0gREO8SEtaF/TRYOQZw+fRr9+/cXQCxxNDSgJg1H1aB+/fpJlMxAsLpcrL4a1eThUHDWYWh7mIA2pIvnN4bsky2oash1me1Lly4hOjpahMjPz6/LowHvXbFihZROmbc1WTjcd2JqwRluCDgbN26UXVAmvjT2I0aMeAxHVaOxY8eKkWc5hICYsz3WnAo6GRkZojEMFdTq4mM4OjiMn/iBgfp7DKcKnLfffltlg/8DV/+cBcX00/4AAAAASUVORK5CYII=;" vertex="1" parent="WIyWlLk6GJQsqaUBKTNV-1">
          <mxGeometry x="-460" y="484" width="56" height="56" as="geometry" />
        </mxCell>
        <mxCell id="MjlApDLCVCDL2BFmYz9w-2" value="" style="shape=image;verticalLabelPosition=bottom;labelBackgroundColor=#ffffff;verticalAlign=top;aspect=fixed;imageAspect=0;image=data:image/png,iVBORw0KGgoAAAANSUhEUgAAAEMAAABDCAYAAADHyrhzAAAJd0lEQVR4Ae2bBagUXRTHn/XZ3QEqtqhYYKCChYioWKhgiy12I3Yg2CiKCna3KBgoit2B3d3dfT5+A3e4szuzM7s7uyq8A4+7E/fc//xvnbgvQRLFZCDB/JX4QxLJ0AZBIhl/moz379/LvXv35OLFi3Ly5Ek5ePCgHD58WE6cOGHce/78ufz8+VODGZ+fcRkZt2/flnXr1knv3r2lVq1aUrJkScmRI4ekT59eUqZMKUmSJJFkyZLJf//9Z9zLnz+/VKpUSdq1ayfz58+XM2fOyO/fv2POSMzIuH//vsydO1fq1asnmTNnloSEhIj/IKlGjRoyZcoUuXHjRsxI8Z2MCxcuyJAhQyRnzpwhP56RkDFjRsmSJYtky5bNKLlOnjx5yHq8379/fzl37pzvpPhGxuvXr6Vfv36SIUMG24/JmjWrMfQHDRok69evN9YHevnu3bvy8OFDo+T61KlTsnnzZhkxYoRUq1ZNcufObauPKdarVy958OCBb6T4QgbgS5UqFQQ6VapU0qxZM1mxYoWxYEaC+vHjx7J161Zp27atMZICp1uuXLlkzpw5kagOqhMVGW/fvjWGbCBAeq1Lly5y+vTpoAajuXHlyhVhZNmNliZNmggLdTQSMRlXr16VihUrBo0GQLFuxFKYWt27d5cUKVJY2i9YsKAcO3Ys4qYjIoOPLVSokAUI2+HatWsjBhJJxX379knZsmUtOFiEd+3aFYm68M3xmzdvStGiRS0AmjdvLnfu3IkIQLSVXr16JZ06dbLgyZQpk+zcuTNs1WGNDBaz0qVLWxru2bNnXAwity8bOXKkBRcj5OzZs27VLM89k/H582epWbOmpcGxY8dalP3pi9mzZ1vwMYIx/ryKZzKwIfRdg+u/USZMmGDB2bBhQ/nx44cnqJ7I2LBhg6UBbIe/WTp37mzBO3nyZE9wXcn48OGDFC9e3FReuHBhefTokSflf+olvOIKFSqYmNOmTSuXL192heNKxujRo02leJeRrNKuKGLwAgZfmjRpTOzYP24SkgwWH93j9KLQrcF4Ph86dKhJRtKkSeXAgQMhmw9JxqhRo0xlOGCYw/+SvHnzxmIctmzZMiR8RzJYF/A01Q6Cr/EvytSpU81vIDyAV+wkjmQsWLDAVIL3ef78eScdf/V9LFRcBdWpw4YNc8TrSEbjxo1NBQ0aNHBU8C88wNNVZLDLfPv2zRa2LRlPnjwxok9KwcKFC20re7n569cvL6/F9J3du3cbcVa+hwgbgWc7sSVDN7JSp04tly5dsqvr6d7Hjx9l8ODBRgDmTzlz7969E9x71bmTJk2yxW5LRrdu3cyKuMjfv3+3rez1JlFugBC/xMNdsmSJXL9+3Wt1X95r06aN+U3169e31RlEBiF53SEj+BqtkBtheKqeocSrBBQLNcGaWAspB9V+sWLFBCs1UILI4KUSJUqYFYlfRiusG+RBFJjAkhFDSmHGjBlCBC0WcujQIbN9OsaunSAy6KXs2bObFffv3+8LtjFjxpg6A8nQr/Ej2L1mzpzp63ZOlo4UBhF1PG67eGkQGaT8COgCkORNuAESJ+bQo2KWmMYtWrSQRo0aWcx9nRR+Y99Ur15diFMQaox1Vi2IDOY3KT/AYIL7udDVrl3bHB30EEKuZNmyZdK0adOQxOB0Va1aVRhhsTIAg8hgbtFzkEGmK5xIkdOoUPf1RYxwP1ueLgzdRYsWSevWrYV8SOBIUdeY1YyYcePGydGjR8UvWyaIDAwSpgcNs+ITAPZLGAVqCqJ/8eLFjqox/JYuXSp4yvny5XMkho7Dqhw/fryRJvjy5YujTrcHQWToawbTxe+cJtup6uG6deu64TOeP336VDZt2mRk5fXFXelRJbsEdtGAAQMMYpzMbqdGg8jg3IRqkGCOWwzASbHT/VWrVplkMEoYLeEII2bjxo1GEikwd6NIoQR7uXLljAwceRQvIyaIDFKGel5k9erV4WB1fRcvMk+ePCYhHFuIVMDKiOnRo4cxVQhEQYJOivrNmZA+ffoIrgYjzU6CyODEDKu2UhLK5bVT6OWebhpXqVLFlwXwyJEjgqettm+FP7BkDXKa+kFk8DEdO3Y0yahcubLv+ztHEhRI5vnx48e9cBj0DlNm3rx5wtpDFk3p1EvI4Tk7mdtmYEuGPq/ZUeystSBkYdwg4k6UXYEmG+ZVcBe2b98uXbt2tc3GK51lypSR4cOHO7rrdu3ZkoGrDQlK8cqVK+3qRnWPFV/pZwdwS/RwrguDq0iRImY9VV+V2C6tWrUyIvifPn0KG58tGWjBcVKNYDr7LXv27DH10w4ZdSdZvny5YZorPHrJ9g9WbJJoDURHMqZNm2aCZQv00yzno+k5fdciC2YnTh4vhhY5Hb98J9p2JOPWrVuWqTJw4EA7rFHdI3GterlAgQJCaD9QiGbrh94IDpHI+vr1a+CrUV87koFmPdnM6T2OJPgp9KpyCiGFhTFQ9Iwe60W4VmWgvlDXIckg9kkMVPUe4UA/hUWTrVvpD0zy0Pv6eRAW3VhKSDJoWB8dDFeONvspEydONMlIly6dJQS4Y8cO8xmEhVpk/cDkSsaLFy8kb968Jih6ym5uRwoGQ4jolhoduPBKVCCZZ+XLl4/pFKFNVzJ4ia1NgaVs3769wutLyYESpZ/fCD6M3gnTp0/3pa1QSjyRgQIIUIApw7EaQwHgmR70YY3CzOagrWrP6/kKt3bcnnsm49mzZxa7AKCzZs1y0+/pOWED3eJlHSEMqMioU6eO7/6RHTDPZFCZPV8HDVjOUPkhhPrUxxNP0Q+ahIqI+dG20hEWGVTC4AkkBOvx5cuXSmdE5ZYtW0wyFCmUhPw4pB8PCZsMQBE50k/0AJpdBn8jUmHXsot1cuA1XhIRGYDjzJR+8A1CiB307dtXWF8iEX0rVaNj27ZtkaiKqE7EZNAaC5++0KkPIFaB3xFu1n3v3r2WqUKak8O48ZKoyFAg+X8P/udMkaFKFkK25DVr1njya8j26/+3QvwinuILGQAmGkZsMzDbroghCEz4DfsEGwKv2E5U0IfcDQGdeIpvZCjQDHWiTbrbrQjRyw4dOqgqlpJEN++RtXeLflkq+nDhOxkKE0FeYpB4pXYRa+wKO4EAzk/wn4rxlpiRoT6E1AM7D0cQybqzAxHJDuXfkIi2Oz+hdMaqjDkZgcCJbl+7di1kGJHREevjB4G4uI47GXYg/pZ7iWRoPZFIRiIZGgPaz/8BcMvDSG+AebwAAAAASUVORK5CYII=;" vertex="1" parent="WIyWlLk6GJQsqaUBKTNV-1">
          <mxGeometry x="-270" y="484" width="57" height="57" as="geometry" />
        </mxCell>
        <mxCell id="MjlApDLCVCDL2BFmYz9w-3" value="" style="shape=image;verticalLabelPosition=bottom;labelBackgroundColor=#ffffff;verticalAlign=top;aspect=fixed;imageAspect=0;image=data:image/png,iVBORw0KGgoAAAANSUhEUgAAAGgAAABoCAYAAAAdHLWhAAALCUlEQVR4Ae1ddcgUQRT/7O7uArsVVBRbsbu7sUXF1n8MsBsDwUDsTkzsFgO7G+zuevI7mGV2b7/77r6dnZk794Hs593ezHvvN/nemzdR5JHWGojSmjuPOfIA0rwReAB5AGmuAc3Z83qQB5DmGtCcPa8HeQBprgHN2fN6kAeQexr4+PEjPXz4kI4fP047duygNWvW0Pr162n37t105swZevbsGX3//t09BiSUHHY96Pr167R48WLq0KEDFS5cmJImTUpRUVF+/+LEiUNp0qShcuXK0cCBA2nr1q30+vVrCSoVW0VYAPThwwdatmwZ1a9fP1pA7ECyfpYnTx7q2bMnHT58WKwWXSxNa4B+//5NS5YsoeLFi/v1EKvyQ/l/3LhxqXnz5r6h0UXdCilaW4BOnDhBNWrUCAhMqlSpqFixYlStWjVq1aoV9e3bl3r16kVNmjShSpUqUYECBShhwoTRlpEgQQJfj8I8pitpCdCsWbMoceLEtorNkSMHtWnThpYvX+5bIHz69In+/Pnjp9+fP3/S+/fv6erVqzR9+nSqW7cuAVC7npY/f37av3+/Xxk6fKAVQF++fKF+/frZKhG9Yd68efT8+fNY6+3OnTs0dOhQSp06tV8d6GkzZsyIddlu/VAbgLAQqF27tp/ismfPTtOmTaO3b98K08Hly5epY8eOhLnI2qOGDRsmrB4RBWkB0OfPn6lWrVp+yqpatSrdvn1bhJy2ZaxatYqSJUvmV++ECRNs31fxoRYAderUyU9J7du3J2xE3aaDBw8Slt/WnrRgwQK3qw6qfOUAzZ492085Y8aMCYp5US89efKESpcubeIDm9xbt26JqiLW5SgF6MqVK35DDCwEKghgZMmSxQQSht2/f/+qYMeoUylAsAzwQ0vJkiUJiwVVtG/fPkqePLmJJ6wcVZIygDZt2mRSRJIkSejIkSMqdeGrGytGvtGkT5+eHj9+rIwvJQDBwgwjJq8IWAF0IOzFypYta+Jt8uTJylhTAtDOnTtNCsiYMaPSVmrVPlwX/B6paNGihK2AClICkHVZjWFFN2rUqJGpEe3du1cJi9IBgqmGXy3B7KKjsdI6R6oagqUDhJYIZxqbf6pXr66kZcZUKbyxGHoZnwULFqSvX7/G9DPh30sHCBMuExpPWK51paZNmxq8xo8fn44ePSqdVekA8fMPLMgXLlyQLnSwFS5cuNAACI0JrnbZJB2gChUqGEJjLlK5x4hJ2Xv27DF4BUAjRoyI6SfCv5cK0Ldv3yhnzpyG0BjX4VTTlRAZxM+Xbdu2lc6qVIBevXpFmTJlMgAqX768rTdUuhaiqfDGjRuUMmVKg9969epF86Z7H0sF6NGjR5QuXTpDYDjodKanT58SHIZsUQP/lGySCtCbN28oc+bMhsAI7NCZ4CJPmzatwW+dOnWksysVIARy5M2b1xC4SJEihKAPXen8+fMmk0+LFi2ksyoVIPhWeMcYhg9sCHWlAwcOGI0Jw1z//v2lsyoVIEiHgEE2pqdIkYJu3rwpXehgK0TMAuMVTxW+IekAWf0t69atC1Zf0t/r06ePARCs2ypi56QDhGGD31uocnHHhDbcC4jFYz0I+7d3797F9DPh30sH6MWLF5QtWzblgsekSXh348WLZ/CJ0GIVJB0gCNmtWzdDcLTQzZs3q5A9YJ2DBg0y8bhixYqA77v1pRKAEJzBhg484WJWYcqPTqmINkLYFeMRezcnIcfR1RPM50oAgt8fpxKYAvDUye3ArzTBW+/evYPRpSvvKAEIkixdutQEUNasWbWwbO/atcvEF/xA586dc0X5wRSqDCBYtvlNK1pqs2bNCIe2VBGOV+bKlcsEkMreAz0oAwiVb9myxaQMgDRy5Egl+KDBwLoOHtg/xGy/fPlSCT+sUqUAgYkhQ4YYCoFisCHcuHEj40/aE8H6DBjGBxYzqkk5QDCg4sgirxyYgGQta7Fg6dq1q6l+8KLLOSHlAKGFYvNqd1B43LhxrjZgzDm8C541EhyxRMPRgbQACIqA7wVnRZmS2LNx48Z08uRJobr69esXrVy50m9BgDpbt26tLIrUTkhtAAJzOAJi3R9BaYj+6dy5M128eNFOhqA/g7tj+/btVLlyZb+GgHpgHLU7kBx0BS68qBVAkA8GyR49etgqEHMTNpGLFi0K+nAVlu2nTp2iiRMnUpUqVWzLhc1t7NixLqjXeZHaAcREmj9/vinAhA157Ikj9ciPMGDAABo/frwPtA0bNvjy9cydO9encORMKFOmDCVKlMgWGJRVokQJ2rZtG6tWu6e2AEFTiJlDLBofF8AAcvrEHge+KZ1d7tCB1gAh+RHmjIoVK5p8SE7AwRw3adIkZcbPULuolgBh1YZ5CPY5J2DgtxjecLQS8QSIFJVxcjxUEAK9rxVAMFTi3Cpy6AQCBt/D6Ye9E2LVYMPDfDNq1ChCcD7mL8QT4Ij9pUuXtHJlBALD7jstAIKv3y7LCA8SwAAI2L8gHApH52E/i3RSChDisrEIiC4jFRxlAAX53X78+BHpWNjKpwwgnLWxuhtYj8FEjgxVCBVWSVjhnT17lhARq4qUADR16lTCppMBwp6IOkUCPx0mcj65U6FChXwLDBUgSQcIG0sGCP+ERVl1j+EBOHbsmIlP5K+bM2cO/4qUv6UBBJMLYuB4UPA3ltJr166VImwoldy9e5eQxMLKr2yHohSAYD22BmJAcKzcrl27ForepL6LA1x8sD8Dy203CC+k6wDBr2IHDnwucJbpTvfu3fPLigKgZA13rgM0ePBgv2ECbm7dzPqBGgqyPTZs2NBPDljV3SZXAYJVmQ0L7Cl7DBelQCy5kZiWyYEnLBqHDh0SVYVtOa4BhFWQ1WTTpUsXWybC5UP0JKuLHAH2OCrpFrkCEMJkkYCIb21Ijhfu9ygABBws5jOQQMYGDRq4Fs/nCkAwz/DgQCDEHEQKwTHIZ8OCrG4d7hIOEI5tIFyWAYSzQDof0opto7GefsD5IUQniSahAGG/Yw3IQEBgJBIOeMFdzhoinm7sj4QCZE3hlSFDBrp//34k4uOTCRGwPECQV7S5ShhAWABYVzhIuRzJhDAu5E7gQRo9erRQkYUBhMgYntF8+fIpzeArVEsBCoN7no8aQmoBpLwRRcIAatmypQmgKVOmiOJR+3Ks3mC43EWREIBg+eVvFMFYrHOCClHKY+WsXr3a1DgRiyfqSKcQgHB8kR/ecA3Z/0RwMOI+PaYDRKqePn1aiAqEAFSzZk2DOZh3dEhQLkQ7IRQyfPhwQwcACtGuIsgxQLAQ8DnVEE8QCSadUJVrTZaLTF4i7n1wDBDuLWVdG8/u3buHKltEvI/AEj6bJGLHRdx95BggdGUeINwt978SspHwusCFu07JMUA8UwisQCTn/0qI+eYBQtZgp+QYoFKlShlM5c6dW/mpaKcKcfJ73HbMAwTPsVNyBBAiQ3FtJmMKph4RE6NToVT9HqMHf3U17n9wSo4AQkQOfzdpu3btnPIT1r/H5tzaYJ0K5Agg3BbMx1WruoDCqRJE/R4jCp9jDjlZnZIjgHC8g/csihhznQqk8vfwh/FzMk7xOTX5OALIelGTaFO7SmXHtm7e5YIk7k69rI4AQhYotkDAE4Hv/zshconpBHkflPYgBB/OnDnTd9oad3CrPKahS8N48OCBL5IWMXQicv046kFMKeEUJcp4DpenEIDCRdhw5NMDSHPUPIA8gDTXgObseT3IA0hzDWjOnteDPIA014Dm7Hk9yANIcw1ozt4/BaeT1Hrs378AAAAASUVORK5CYII=;" vertex="1" parent="WIyWlLk6GJQsqaUBKTNV-1">
          <mxGeometry x="-370" y="410" width="74" height="74" as="geometry" />
        </mxCell>
        <mxCell id="MjlApDLCVCDL2BFmYz9w-5" value="Buy" style="text;html=1;resizable=0;autosize=1;align=center;verticalAlign=middle;points=[];fillColor=none;strokeColor=none;rounded=0;dashed=1;fontSize=19;" vertex="1" parent="WIyWlLk6GJQsqaUBKTNV-1">
          <mxGeometry x="-463" y="440" width="50" height="30" as="geometry" />
        </mxCell>
        <mxCell id="MjlApDLCVCDL2BFmYz9w-8" value="Cart" style="text;html=1;resizable=0;autosize=1;align=center;verticalAlign=middle;points=[];fillColor=none;strokeColor=none;rounded=0;dashed=1;fontSize=19;" vertex="1" parent="WIyWlLk6GJQsqaUBKTNV-1">
          <mxGeometry x="-366" y="290" width="50" height="30" as="geometry" />
        </mxCell>
        <mxCell id="MjlApDLCVCDL2BFmYz9w-9" value="Click" style="text;html=1;resizable=0;autosize=1;align=center;verticalAlign=middle;points=[];fillColor=none;strokeColor=none;rounded=0;dashed=1;fontSize=19;" vertex="1" parent="WIyWlLk6GJQsqaUBKTNV-1">
          <mxGeometry x="-268" y="432" width="60" height="30" as="geometry" />
        </mxCell>
        <mxCell id="MjlApDLCVCDL2BFmYz9w-10" value="&lt;font style=&quot;font-size: 28px&quot;&gt;User&#39;s Multi Behavior&lt;/font&gt;" style="text;html=1;resizable=0;autosize=1;align=center;verticalAlign=middle;points=[];fillColor=none;strokeColor=none;rounded=0;dashed=1;fontSize=19;" vertex="1" parent="WIyWlLk6GJQsqaUBKTNV-1">
          <mxGeometry x="-477" y="585" width="280" height="30" as="geometry" />
        </mxCell>
        <mxCell id="MjlApDLCVCDL2BFmYz9w-16" style="edgeStyle=orthogonalEdgeStyle;rounded=0;orthogonalLoop=1;jettySize=auto;html=1;entryX=0;entryY=0.5;entryDx=0;entryDy=0;fontSize=16;fontColor=#000000;" edge="1" parent="WIyWlLk6GJQsqaUBKTNV-1" source="MjlApDLCVCDL2BFmYz9w-14" target="MjlApDLCVCDL2BFmYz9w-15">
          <mxGeometry relative="1" as="geometry" />
        </mxCell>
        <mxCell id="MjlApDLCVCDL2BFmYz9w-14" value="&lt;font color=&quot;#000000&quot;&gt;&lt;span style=&quot;font-size: 15px&quot;&gt;1&lt;/span&gt;&lt;/font&gt;" style="ellipse;whiteSpace=wrap;html=1;aspect=fixed;fontSize=19;fontColor=#3399FF;strokeWidth=2;fillColor=none;align=center;" vertex="1" parent="WIyWlLk6GJQsqaUBKTNV-1">
          <mxGeometry x="97.5" y="335" width="35" height="35" as="geometry" />
        </mxCell>
        <mxCell id="MjlApDLCVCDL2BFmYz9w-18" style="edgeStyle=orthogonalEdgeStyle;rounded=0;orthogonalLoop=1;jettySize=auto;html=1;entryX=0;entryY=0.5;entryDx=0;entryDy=0;fontSize=16;fontColor=#000000;" edge="1" parent="WIyWlLk6GJQsqaUBKTNV-1" source="MjlApDLCVCDL2BFmYz9w-15" target="MjlApDLCVCDL2BFmYz9w-17">
          <mxGeometry relative="1" as="geometry" />
        </mxCell>
        <mxCell id="MjlApDLCVCDL2BFmYz9w-15" value="&lt;font color=&quot;#000000&quot;&gt;&lt;span style=&quot;font-size: 16px&quot;&gt;4&lt;/span&gt;&lt;/font&gt;" style="ellipse;whiteSpace=wrap;html=1;aspect=fixed;fontSize=19;fontColor=#3399FF;strokeWidth=2;fillColor=none;" vertex="1" parent="WIyWlLk6GJQsqaUBKTNV-1">
          <mxGeometry x="157.5" y="335" width="35" height="35" as="geometry" />
        </mxCell>
        <mxCell id="MjlApDLCVCDL2BFmYz9w-29" value="" style="edgeStyle=orthogonalEdgeStyle;rounded=0;orthogonalLoop=1;jettySize=auto;html=1;fontSize=16;fontColor=#000000;" edge="1" parent="WIyWlLk6GJQsqaUBKTNV-1" source="MjlApDLCVCDL2BFmYz9w-17" target="MjlApDLCVCDL2BFmYz9w-28">
          <mxGeometry relative="1" as="geometry" />
        </mxCell>
        <mxCell id="MjlApDLCVCDL2BFmYz9w-17" value="&lt;font color=&quot;#000000&quot;&gt;&lt;span style=&quot;font-size: 15px&quot;&gt;5&lt;/span&gt;&lt;/font&gt;" style="ellipse;whiteSpace=wrap;html=1;aspect=fixed;fontSize=19;fontColor=#3399FF;strokeWidth=2;fillColor=none;align=center;" vertex="1" parent="WIyWlLk6GJQsqaUBKTNV-1">
          <mxGeometry x="217.5" y="335" width="35" height="35" as="geometry" />
        </mxCell>
        <mxCell id="MjlApDLCVCDL2BFmYz9w-28" value="&lt;font color=&quot;#000000&quot;&gt;&lt;span style=&quot;font-size: 16px&quot;&gt;7&lt;/span&gt;&lt;/font&gt;" style="ellipse;whiteSpace=wrap;html=1;aspect=fixed;fontSize=19;fontColor=#3399FF;strokeWidth=2;fillColor=none;" vertex="1" parent="WIyWlLk6GJQsqaUBKTNV-1">
          <mxGeometry x="277.5" y="335" width="35" height="35" as="geometry" />
        </mxCell>
        <mxCell id="MjlApDLCVCDL2BFmYz9w-30" style="edgeStyle=orthogonalEdgeStyle;rounded=0;orthogonalLoop=1;jettySize=auto;html=1;entryX=0;entryY=0.5;entryDx=0;entryDy=0;fontSize=16;fontColor=#000000;" edge="1" parent="WIyWlLk6GJQsqaUBKTNV-1" source="MjlApDLCVCDL2BFmYz9w-31" target="MjlApDLCVCDL2BFmYz9w-33">
          <mxGeometry relative="1" as="geometry" />
        </mxCell>
        <mxCell id="MjlApDLCVCDL2BFmYz9w-31" value="&lt;font color=&quot;#000000&quot;&gt;&lt;span style=&quot;font-size: 15px&quot;&gt;1&lt;/span&gt;&lt;/font&gt;" style="ellipse;whiteSpace=wrap;html=1;aspect=fixed;fontSize=19;fontColor=#3399FF;strokeWidth=2;fillColor=none;align=center;" vertex="1" parent="WIyWlLk6GJQsqaUBKTNV-1">
          <mxGeometry x="97.5" y="270.99" width="35" height="35" as="geometry" />
        </mxCell>
        <mxCell id="MjlApDLCVCDL2BFmYz9w-32" style="edgeStyle=orthogonalEdgeStyle;rounded=0;orthogonalLoop=1;jettySize=auto;html=1;entryX=0;entryY=0.5;entryDx=0;entryDy=0;fontSize=16;fontColor=#000000;" edge="1" parent="WIyWlLk6GJQsqaUBKTNV-1" source="MjlApDLCVCDL2BFmYz9w-33" target="MjlApDLCVCDL2BFmYz9w-35">
          <mxGeometry relative="1" as="geometry" />
        </mxCell>
        <mxCell id="MjlApDLCVCDL2BFmYz9w-33" value="&lt;font color=&quot;#000000&quot;&gt;&lt;span style=&quot;font-size: 16px&quot;&gt;5&lt;/span&gt;&lt;/font&gt;" style="ellipse;whiteSpace=wrap;html=1;aspect=fixed;fontSize=19;fontColor=#3399FF;strokeWidth=2;fillColor=none;" vertex="1" parent="WIyWlLk6GJQsqaUBKTNV-1">
          <mxGeometry x="157.5" y="270.99" width="35" height="35" as="geometry" />
        </mxCell>
        <mxCell id="MjlApDLCVCDL2BFmYz9w-35" value="&lt;font color=&quot;#000000&quot;&gt;&lt;span style=&quot;font-size: 15px&quot;&gt;7&lt;/span&gt;&lt;/font&gt;" style="ellipse;whiteSpace=wrap;html=1;aspect=fixed;fontSize=19;fontColor=#3399FF;strokeWidth=2;fillColor=none;align=center;" vertex="1" parent="WIyWlLk6GJQsqaUBKTNV-1">
          <mxGeometry x="217.5" y="270.99" width="35" height="35" as="geometry" />
        </mxCell>
        <mxCell id="MjlApDLCVCDL2BFmYz9w-37" style="edgeStyle=orthogonalEdgeStyle;rounded=0;orthogonalLoop=1;jettySize=auto;html=1;entryX=0;entryY=0.5;entryDx=0;entryDy=0;fontSize=16;fontColor=#000000;" edge="1" parent="WIyWlLk6GJQsqaUBKTNV-1" source="MjlApDLCVCDL2BFmYz9w-38" target="MjlApDLCVCDL2BFmYz9w-40">
          <mxGeometry relative="1" as="geometry" />
        </mxCell>
        <mxCell id="MjlApDLCVCDL2BFmYz9w-38" value="&lt;font color=&quot;#000000&quot;&gt;&lt;span style=&quot;font-size: 15px&quot;&gt;1&lt;/span&gt;&lt;/font&gt;" style="ellipse;whiteSpace=wrap;html=1;aspect=fixed;fontSize=19;fontColor=#3399FF;strokeWidth=2;fillColor=none;align=center;" vertex="1" parent="WIyWlLk6GJQsqaUBKTNV-1">
          <mxGeometry x="97.5" y="210" width="35" height="35" as="geometry" />
        </mxCell>
        <mxCell id="MjlApDLCVCDL2BFmYz9w-40" value="&lt;font color=&quot;#000000&quot;&gt;&lt;span style=&quot;font-size: 16px&quot;&gt;7&lt;/span&gt;&lt;/font&gt;" style="ellipse;whiteSpace=wrap;html=1;aspect=fixed;fontSize=19;fontColor=#3399FF;strokeWidth=2;fillColor=none;" vertex="1" parent="WIyWlLk6GJQsqaUBKTNV-1">
          <mxGeometry x="157.5" y="210" width="35" height="35" as="geometry" />
        </mxCell>
        <mxCell id="MjlApDLCVCDL2BFmYz9w-46" value="Buy" style="text;html=1;resizable=0;autosize=1;align=center;verticalAlign=middle;points=[];fillColor=none;strokeColor=none;rounded=0;dashed=1;fontSize=19;" vertex="1" parent="WIyWlLk6GJQsqaUBKTNV-1">
          <mxGeometry x="210" y="210" width="50" height="30" as="geometry" />
        </mxCell>
        <mxCell id="MjlApDLCVCDL2BFmYz9w-47" value="cart" style="text;html=1;resizable=0;autosize=1;align=center;verticalAlign=middle;points=[];fillColor=none;strokeColor=none;rounded=0;dashed=1;fontSize=19;" vertex="1" parent="WIyWlLk6GJQsqaUBKTNV-1">
          <mxGeometry x="270" y="270.99" width="50" height="30" as="geometry" />
        </mxCell>
        <mxCell id="MjlApDLCVCDL2BFmYz9w-48" value="Click" style="text;html=1;resizable=0;autosize=1;align=center;verticalAlign=middle;points=[];fillColor=none;strokeColor=none;rounded=0;dashed=1;fontSize=19;" vertex="1" parent="WIyWlLk6GJQsqaUBKTNV-1">
          <mxGeometry x="325" y="340" width="60" height="30" as="geometry" />
        </mxCell>
        <mxCell id="MjlApDLCVCDL2BFmYz9w-225" value="&lt;font style=&quot;font-size: 35px&quot;&gt;Graph view &lt;br&gt;construction&lt;/font&gt;" style="text;html=1;align=center;verticalAlign=middle;resizable=0;points=[];autosize=1;strokeColor=none;fillColor=none;fontSize=16;fontColor=#000000;" vertex="1" parent="WIyWlLk6GJQsqaUBKTNV-1">
          <mxGeometry x="-145" y="594.8700000000001" width="200" height="60" as="geometry" />
        </mxCell>
        <mxCell id="MjlApDLCVCDL2BFmYz9w-699" style="edgeStyle=orthogonalEdgeStyle;rounded=1;orthogonalLoop=1;jettySize=auto;html=1;entryX=0.5;entryY=0;entryDx=0;entryDy=0;fontSize=19;fontColor=#000000;endArrow=classic;endFill=1;strokeColor=default;strokeWidth=2;opacity=80;" edge="1" parent="WIyWlLk6GJQsqaUBKTNV-1" source="MjlApDLCVCDL2BFmYz9w-603" target="MjlApDLCVCDL2BFmYz9w-692">
          <mxGeometry relative="1" as="geometry" />
        </mxCell>
        <mxCell id="MjlApDLCVCDL2BFmYz9w-603" value="" style="rounded=1;whiteSpace=wrap;html=1;shadow=0;sketch=0;fontSize=19;fontColor=#000000;strokeColor=#000000;strokeWidth=2;fillColor=none;align=center;rotation=90;" vertex="1" parent="WIyWlLk6GJQsqaUBKTNV-1">
          <mxGeometry x="481.1150000000001" y="162.99499999999995" width="280" height="36.87" as="geometry" />
        </mxCell>
        <mxCell id="MjlApDLCVCDL2BFmYz9w-604" value="" style="ellipse;whiteSpace=wrap;html=1;aspect=fixed;shadow=0;sketch=0;fontSize=19;strokeColor=#d6b656;strokeWidth=2;fillColor=#fff2cc;align=center;rotation=90;" vertex="1" parent="WIyWlLk6GJQsqaUBKTNV-1">
          <mxGeometry x="603.1150000000001" y="41.99499999999996" width="36.87" height="36.87" as="geometry" />
        </mxCell>
        <mxCell id="MjlApDLCVCDL2BFmYz9w-605" value="" style="ellipse;whiteSpace=wrap;html=1;aspect=fixed;shadow=0;sketch=0;fontSize=19;strokeColor=#d6b656;strokeWidth=2;fillColor=#fff2cc;align=center;rotation=90;" vertex="1" parent="WIyWlLk6GJQsqaUBKTNV-1">
          <mxGeometry x="603.1150000000001" y="86.99499999999996" width="36.87" height="36.87" as="geometry" />
        </mxCell>
        <mxCell id="MjlApDLCVCDL2BFmYz9w-606" value="" style="ellipse;whiteSpace=wrap;html=1;aspect=fixed;shadow=0;sketch=0;fontSize=19;strokeColor=#d6b656;strokeWidth=2;fillColor=#fff2cc;align=center;rotation=90;" vertex="1" parent="WIyWlLk6GJQsqaUBKTNV-1">
          <mxGeometry x="603.1150000000001" y="127.99499999999995" width="36.87" height="36.87" as="geometry" />
        </mxCell>
        <mxCell id="MjlApDLCVCDL2BFmYz9w-607" value="&lt;b&gt;&lt;font style=&quot;font-size: 25px&quot;&gt;...&lt;/font&gt;&lt;/b&gt;" style="text;html=1;resizable=0;autosize=1;align=center;verticalAlign=middle;points=[];fillColor=none;strokeColor=none;rounded=0;shadow=0;sketch=0;fontSize=19;fontColor=#000000;rotation=90;" vertex="1" parent="WIyWlLk6GJQsqaUBKTNV-1">
          <mxGeometry x="604.1150000000001" y="169.99499999999995" width="40" height="30" as="geometry" />
        </mxCell>
        <mxCell id="MjlApDLCVCDL2BFmYz9w-608" value="" style="ellipse;whiteSpace=wrap;html=1;aspect=fixed;shadow=0;sketch=0;fontSize=19;strokeColor=#d6b656;strokeWidth=2;fillColor=#fff2cc;align=center;rotation=90;" vertex="1" parent="WIyWlLk6GJQsqaUBKTNV-1">
          <mxGeometry x="603.1150000000001" y="196.99499999999995" width="36.87" height="36.87" as="geometry" />
        </mxCell>
        <mxCell id="MjlApDLCVCDL2BFmYz9w-609" value="" style="ellipse;whiteSpace=wrap;html=1;aspect=fixed;shadow=0;sketch=0;fontSize=19;strokeColor=#d6b656;strokeWidth=2;fillColor=#fff2cc;align=center;rotation=90;" vertex="1" parent="WIyWlLk6GJQsqaUBKTNV-1">
          <mxGeometry x="603.1150000000001" y="241.99499999999995" width="36.87" height="36.87" as="geometry" />
        </mxCell>
        <mxCell id="MjlApDLCVCDL2BFmYz9w-610" value="" style="ellipse;whiteSpace=wrap;html=1;aspect=fixed;shadow=0;sketch=0;fontSize=19;strokeColor=#d6b656;strokeWidth=2;fillColor=#fff2cc;align=center;rotation=90;" vertex="1" parent="WIyWlLk6GJQsqaUBKTNV-1">
          <mxGeometry x="603.1150000000001" y="281.99499999999995" width="36.87" height="36.87" as="geometry" />
        </mxCell>
        <mxCell id="MjlApDLCVCDL2BFmYz9w-619" value="" style="rounded=1;whiteSpace=wrap;html=1;shadow=0;sketch=0;fontSize=19;fontColor=#000000;strokeColor=#000000;strokeWidth=2;fillColor=none;align=center;rotation=90;" vertex="1" parent="WIyWlLk6GJQsqaUBKTNV-1">
          <mxGeometry x="569.9950000000001" y="163.99499999999998" width="280" height="36.87" as="geometry" />
        </mxCell>
        <mxCell id="MjlApDLCVCDL2BFmYz9w-620" value="" style="ellipse;whiteSpace=wrap;html=1;aspect=fixed;shadow=0;sketch=0;fontSize=19;fontColor=#ffffff;strokeColor=#006EAF;strokeWidth=2;fillColor=#1ba1e2;align=center;rotation=90;" vertex="1" parent="WIyWlLk6GJQsqaUBKTNV-1">
          <mxGeometry x="691.9950000000001" y="42.994999999999976" width="36.87" height="36.87" as="geometry" />
        </mxCell>
        <mxCell id="MjlApDLCVCDL2BFmYz9w-621" value="" style="ellipse;whiteSpace=wrap;html=1;aspect=fixed;shadow=0;sketch=0;fontSize=19;fontColor=#ffffff;strokeColor=#006EAF;strokeWidth=2;fillColor=#1ba1e2;align=center;rotation=90;" vertex="1" parent="WIyWlLk6GJQsqaUBKTNV-1">
          <mxGeometry x="691.9950000000001" y="87.99499999999998" width="36.87" height="36.87" as="geometry" />
        </mxCell>
        <mxCell id="MjlApDLCVCDL2BFmYz9w-622" value="" style="ellipse;whiteSpace=wrap;html=1;aspect=fixed;shadow=0;sketch=0;fontSize=19;strokeColor=#b85450;strokeWidth=2;fillColor=#f8cecc;align=center;rotation=90;" vertex="1" parent="WIyWlLk6GJQsqaUBKTNV-1">
          <mxGeometry x="691.9950000000001" y="128.99499999999998" width="36.87" height="36.87" as="geometry" />
        </mxCell>
        <mxCell id="MjlApDLCVCDL2BFmYz9w-623" value="&lt;b&gt;&lt;font style=&quot;font-size: 25px&quot;&gt;...&lt;/font&gt;&lt;/b&gt;" style="text;html=1;resizable=0;autosize=1;align=center;verticalAlign=middle;points=[];fillColor=none;strokeColor=none;rounded=0;shadow=0;sketch=0;fontSize=19;fontColor=#000000;rotation=90;" vertex="1" parent="WIyWlLk6GJQsqaUBKTNV-1">
          <mxGeometry x="692.9950000000001" y="170.99499999999998" width="40" height="30" as="geometry" />
        </mxCell>
        <mxCell id="MjlApDLCVCDL2BFmYz9w-624" value="" style="ellipse;whiteSpace=wrap;html=1;aspect=fixed;shadow=0;sketch=0;fontSize=19;strokeColor=#b85450;strokeWidth=2;fillColor=#f8cecc;align=center;rotation=90;" vertex="1" parent="WIyWlLk6GJQsqaUBKTNV-1">
          <mxGeometry x="691.9950000000001" y="197.99499999999998" width="36.87" height="36.87" as="geometry" />
        </mxCell>
        <mxCell id="MjlApDLCVCDL2BFmYz9w-625" value="" style="ellipse;whiteSpace=wrap;html=1;aspect=fixed;shadow=0;sketch=0;fontSize=19;strokeColor=#b85450;strokeWidth=2;fillColor=#f8cecc;align=center;rotation=90;" vertex="1" parent="WIyWlLk6GJQsqaUBKTNV-1">
          <mxGeometry x="691.9950000000001" y="242.995" width="36.87" height="36.87" as="geometry" />
        </mxCell>
        <mxCell id="MjlApDLCVCDL2BFmYz9w-700" style="edgeStyle=orthogonalEdgeStyle;rounded=1;orthogonalLoop=1;jettySize=auto;html=1;entryX=1;entryY=0.75;entryDx=0;entryDy=0;fontSize=19;fontColor=#000000;endArrow=classic;endFill=1;strokeColor=default;strokeWidth=2;opacity=80;exitX=1;exitY=0.5;exitDx=0;exitDy=0;" edge="1" parent="WIyWlLk6GJQsqaUBKTNV-1" source="MjlApDLCVCDL2BFmYz9w-619" target="MjlApDLCVCDL2BFmYz9w-692">
          <mxGeometry relative="1" as="geometry" />
        </mxCell>
        <mxCell id="MjlApDLCVCDL2BFmYz9w-626" value="" style="ellipse;whiteSpace=wrap;html=1;aspect=fixed;shadow=0;sketch=0;fontSize=19;strokeColor=#b85450;strokeWidth=2;fillColor=#f8cecc;align=center;rotation=90;" vertex="1" parent="WIyWlLk6GJQsqaUBKTNV-1">
          <mxGeometry x="691.9950000000001" y="282.995" width="36.87" height="36.87" as="geometry" />
        </mxCell>
        <mxCell id="MjlApDLCVCDL2BFmYz9w-729" style="edgeStyle=orthogonalEdgeStyle;rounded=1;orthogonalLoop=1;jettySize=auto;html=1;exitX=1;exitY=0.5;exitDx=0;exitDy=0;entryX=0;entryY=0.75;entryDx=0;entryDy=0;fontSize=19;fontColor=#000000;endArrow=classic;endFill=1;strokeColor=default;strokeWidth=2;opacity=80;" edge="1" parent="WIyWlLk6GJQsqaUBKTNV-1" source="MjlApDLCVCDL2BFmYz9w-594" target="MjlApDLCVCDL2BFmYz9w-692">
          <mxGeometry relative="1" as="geometry" />
        </mxCell>
        <mxCell id="MjlApDLCVCDL2BFmYz9w-594" value="" style="rounded=1;whiteSpace=wrap;html=1;shadow=0;sketch=0;fontSize=19;fontColor=#000000;strokeColor=#000000;strokeWidth=2;fillColor=none;align=center;rotation=90;" vertex="1" parent="WIyWlLk6GJQsqaUBKTNV-1">
          <mxGeometry x="389.99500000000006" y="162.995" width="280" height="36.87" as="geometry" />
        </mxCell>
        <mxCell id="MjlApDLCVCDL2BFmYz9w-595" value="" style="ellipse;whiteSpace=wrap;html=1;aspect=fixed;shadow=0;sketch=0;fontSize=19;fontColor=#ffffff;strokeColor=#006EAF;strokeWidth=2;fillColor=#1ba1e2;align=center;rotation=90;" vertex="1" parent="WIyWlLk6GJQsqaUBKTNV-1">
          <mxGeometry x="511.995" y="41.995000000000005" width="36.87" height="36.87" as="geometry" />
        </mxCell>
        <mxCell id="MjlApDLCVCDL2BFmYz9w-596" value="" style="ellipse;whiteSpace=wrap;html=1;aspect=fixed;shadow=0;sketch=0;fontSize=19;fontColor=#ffffff;strokeColor=#006EAF;strokeWidth=2;fillColor=#1ba1e2;align=center;rotation=90;" vertex="1" parent="WIyWlLk6GJQsqaUBKTNV-1">
          <mxGeometry x="511.995" y="86.995" width="36.87" height="36.87" as="geometry" />
        </mxCell>
        <mxCell id="MjlApDLCVCDL2BFmYz9w-597" value="" style="ellipse;whiteSpace=wrap;html=1;aspect=fixed;shadow=0;sketch=0;fontSize=19;fontColor=#ffffff;strokeColor=#006EAF;strokeWidth=2;fillColor=#1ba1e2;align=center;rotation=90;" vertex="1" parent="WIyWlLk6GJQsqaUBKTNV-1">
          <mxGeometry x="511.995" y="127.995" width="36.87" height="36.87" as="geometry" />
        </mxCell>
        <mxCell id="MjlApDLCVCDL2BFmYz9w-598" value="&lt;b&gt;&lt;font style=&quot;font-size: 25px&quot;&gt;...&lt;/font&gt;&lt;/b&gt;" style="text;html=1;resizable=0;autosize=1;align=center;verticalAlign=middle;points=[];fillColor=none;strokeColor=none;rounded=0;shadow=0;sketch=0;fontSize=19;fontColor=#000000;rotation=90;" vertex="1" parent="WIyWlLk6GJQsqaUBKTNV-1">
          <mxGeometry x="512.995" y="169.995" width="40" height="30" as="geometry" />
        </mxCell>
        <mxCell id="MjlApDLCVCDL2BFmYz9w-599" value="" style="ellipse;whiteSpace=wrap;html=1;aspect=fixed;shadow=0;sketch=0;fontSize=19;fontColor=#ffffff;strokeColor=#006EAF;strokeWidth=2;fillColor=#1ba1e2;align=center;rotation=90;" vertex="1" parent="WIyWlLk6GJQsqaUBKTNV-1">
          <mxGeometry x="511.995" y="196.995" width="36.87" height="36.87" as="geometry" />
        </mxCell>
        <mxCell id="MjlApDLCVCDL2BFmYz9w-600" value="" style="ellipse;whiteSpace=wrap;html=1;aspect=fixed;shadow=0;sketch=0;fontSize=19;fontColor=#ffffff;strokeColor=#006EAF;strokeWidth=2;fillColor=#1ba1e2;align=center;rotation=90;" vertex="1" parent="WIyWlLk6GJQsqaUBKTNV-1">
          <mxGeometry x="511.995" y="241.995" width="36.87" height="36.87" as="geometry" />
        </mxCell>
        <mxCell id="MjlApDLCVCDL2BFmYz9w-601" value="" style="ellipse;whiteSpace=wrap;html=1;aspect=fixed;shadow=0;sketch=0;fontSize=19;fontColor=#ffffff;strokeColor=#006EAF;strokeWidth=2;fillColor=#1ba1e2;align=center;rotation=90;" vertex="1" parent="WIyWlLk6GJQsqaUBKTNV-1">
          <mxGeometry x="511.995" y="281.995" width="36.87" height="36.87" as="geometry" />
        </mxCell>
        <mxCell id="MjlApDLCVCDL2BFmYz9w-633" value="" style="ellipse;whiteSpace=wrap;html=1;aspect=fixed;shadow=0;sketch=0;fontSize=19;fontColor=#ffffff;strokeColor=#006EAF;strokeWidth=2;fillColor=#1ba1e2;align=center;rotation=90;" vertex="1" parent="WIyWlLk6GJQsqaUBKTNV-1">
          <mxGeometry x="691.9950000000001" y="42.994999999999976" width="36.87" height="36.87" as="geometry" />
        </mxCell>
        <mxCell id="MjlApDLCVCDL2BFmYz9w-634" value="" style="ellipse;whiteSpace=wrap;html=1;aspect=fixed;shadow=0;sketch=0;fontSize=19;fontColor=#ffffff;strokeColor=#006EAF;strokeWidth=2;fillColor=#1ba1e2;align=center;rotation=90;" vertex="1" parent="WIyWlLk6GJQsqaUBKTNV-1">
          <mxGeometry x="691.9950000000001" y="87.99499999999998" width="36.87" height="36.87" as="geometry" />
        </mxCell>
        <mxCell id="MjlApDLCVCDL2BFmYz9w-635" value="" style="ellipse;whiteSpace=wrap;html=1;aspect=fixed;shadow=0;sketch=0;fontSize=19;strokeColor=#b85450;strokeWidth=2;fillColor=#f8cecc;align=center;rotation=90;" vertex="1" parent="WIyWlLk6GJQsqaUBKTNV-1">
          <mxGeometry x="691.9950000000001" y="42.994999999999976" width="36.87" height="36.87" as="geometry" />
        </mxCell>
        <mxCell id="MjlApDLCVCDL2BFmYz9w-636" value="" style="ellipse;whiteSpace=wrap;html=1;aspect=fixed;shadow=0;sketch=0;fontSize=19;strokeColor=#b85450;strokeWidth=2;fillColor=#f8cecc;align=center;rotation=90;" vertex="1" parent="WIyWlLk6GJQsqaUBKTNV-1">
          <mxGeometry x="691.9950000000001" y="87.99499999999998" width="36.87" height="36.87" as="geometry" />
        </mxCell>
        <mxCell id="MjlApDLCVCDL2BFmYz9w-640" value="" style="shape=curlyBracket;whiteSpace=wrap;html=1;rounded=1;shadow=0;sketch=0;fontSize=22;fontColor=#CC0000;strokeColor=#000000;strokeWidth=1;fillColor=none;align=center;rotation=90;" vertex="1" parent="WIyWlLk6GJQsqaUBKTNV-1">
          <mxGeometry x="600.0000000000001" y="-97.42000000000002" width="20" height="239.42" as="geometry" />
        </mxCell>
        <mxCell id="MjlApDLCVCDL2BFmYz9w-641" value="&lt;font color=&quot;#000000&quot; style=&quot;font-size: 35px&quot;&gt;View Fussion&lt;/font&gt;" style="text;html=1;resizable=0;autosize=1;align=center;verticalAlign=middle;points=[];fillColor=none;strokeColor=none;rounded=0;shadow=0;sketch=0;fontSize=22;fontColor=#CC0000;" vertex="1" parent="WIyWlLk6GJQsqaUBKTNV-1">
          <mxGeometry x="1030" y="131" width="220" height="40" as="geometry" />
        </mxCell>
        <mxCell id="MjlApDLCVCDL2BFmYz9w-692" value="&lt;div&gt;&lt;font face=&quot;helvetica&quot; size=&quot;1&quot;&gt;&lt;b&gt;&lt;i style=&quot;font-size: 35px&quot;&gt;Behavior CL&lt;/i&gt;&lt;/b&gt;&lt;/font&gt;&lt;/div&gt;" style="text;whiteSpace=wrap;html=1;fontSize=15;fontColor=#000000;align=center;" vertex="1" parent="WIyWlLk6GJQsqaUBKTNV-1">
          <mxGeometry x="552.99" y="400" width="136.25" height="32" as="geometry" />
        </mxCell>
        <mxCell id="MjlApDLCVCDL2BFmYz9w-775" value="" style="rounded=1;whiteSpace=wrap;html=1;shadow=0;sketch=0;fontSize=19;fontColor=#000000;strokeColor=#000000;strokeWidth=2;fillColor=none;align=center;rotation=-90;" vertex="1" parent="WIyWlLk6GJQsqaUBKTNV-1">
          <mxGeometry x="469.0000000000002" y="761.5649999999999" width="280" height="36.87" as="geometry" />
        </mxCell>
        <mxCell id="MjlApDLCVCDL2BFmYz9w-776" value="" style="ellipse;whiteSpace=wrap;html=1;aspect=fixed;shadow=0;sketch=0;fontSize=19;strokeColor=#d6b656;strokeWidth=2;fillColor=#fff2cc;align=center;rotation=-90;" vertex="1" parent="WIyWlLk6GJQsqaUBKTNV-1">
          <mxGeometry x="590.0000000000002" y="881.5649999999999" width="36.87" height="36.87" as="geometry" />
        </mxCell>
        <mxCell id="MjlApDLCVCDL2BFmYz9w-777" value="" style="ellipse;whiteSpace=wrap;html=1;aspect=fixed;shadow=0;sketch=0;fontSize=19;strokeColor=#d6b656;strokeWidth=2;fillColor=#fff2cc;align=center;rotation=-90;" vertex="1" parent="WIyWlLk6GJQsqaUBKTNV-1">
          <mxGeometry x="590.0000000000002" y="836.5649999999999" width="36.87" height="36.87" as="geometry" />
        </mxCell>
        <mxCell id="MjlApDLCVCDL2BFmYz9w-778" value="" style="ellipse;whiteSpace=wrap;html=1;aspect=fixed;shadow=0;sketch=0;fontSize=19;strokeColor=#d6b656;strokeWidth=2;fillColor=#fff2cc;align=center;rotation=-90;" vertex="1" parent="WIyWlLk6GJQsqaUBKTNV-1">
          <mxGeometry x="590.0000000000002" y="795.5649999999999" width="36.87" height="36.87" as="geometry" />
        </mxCell>
        <mxCell id="MjlApDLCVCDL2BFmYz9w-779" value="&lt;b&gt;&lt;font style=&quot;font-size: 25px&quot;&gt;...&lt;/font&gt;&lt;/b&gt;" style="text;html=1;resizable=0;autosize=1;align=center;verticalAlign=middle;points=[];fillColor=none;strokeColor=none;rounded=0;shadow=0;sketch=0;fontSize=19;fontColor=#000000;rotation=-90;" vertex="1" parent="WIyWlLk6GJQsqaUBKTNV-1">
          <mxGeometry x="586.0000000000002" y="760.5649999999999" width="40" height="30" as="geometry" />
        </mxCell>
        <mxCell id="MjlApDLCVCDL2BFmYz9w-780" value="" style="ellipse;whiteSpace=wrap;html=1;aspect=fixed;shadow=0;sketch=0;fontSize=19;strokeColor=#d6b656;strokeWidth=2;fillColor=#fff2cc;align=center;rotation=-90;" vertex="1" parent="WIyWlLk6GJQsqaUBKTNV-1">
          <mxGeometry x="590.0000000000002" y="726.5649999999999" width="36.87" height="36.87" as="geometry" />
        </mxCell>
        <mxCell id="MjlApDLCVCDL2BFmYz9w-781" value="" style="ellipse;whiteSpace=wrap;html=1;aspect=fixed;shadow=0;sketch=0;fontSize=19;strokeColor=#d6b656;strokeWidth=2;fillColor=#fff2cc;align=center;rotation=-90;" vertex="1" parent="WIyWlLk6GJQsqaUBKTNV-1">
          <mxGeometry x="590.0000000000002" y="682.5649999999999" width="36.87" height="36.87" as="geometry" />
        </mxCell>
        <mxCell id="MjlApDLCVCDL2BFmYz9w-782" value="" style="ellipse;whiteSpace=wrap;html=1;aspect=fixed;shadow=0;sketch=0;fontSize=19;strokeColor=#d6b656;strokeWidth=2;fillColor=#fff2cc;align=center;rotation=-90;" vertex="1" parent="WIyWlLk6GJQsqaUBKTNV-1">
          <mxGeometry x="590.0000000000002" y="642.5649999999999" width="36.87" height="36.87" as="geometry" />
        </mxCell>
        <mxCell id="MjlApDLCVCDL2BFmYz9w-783" value="" style="rounded=1;whiteSpace=wrap;html=1;shadow=0;sketch=0;fontSize=19;fontColor=#000000;strokeColor=#000000;strokeWidth=2;fillColor=none;align=center;rotation=-90;" vertex="1" parent="WIyWlLk6GJQsqaUBKTNV-1">
          <mxGeometry x="380.0000000000002" y="760.5649999999999" width="280" height="36.87" as="geometry" />
        </mxCell>
        <mxCell id="MjlApDLCVCDL2BFmYz9w-784" value="" style="ellipse;whiteSpace=wrap;html=1;aspect=fixed;shadow=0;sketch=0;fontSize=19;fontColor=#ffffff;strokeColor=#006EAF;strokeWidth=2;fillColor=#1ba1e2;align=center;rotation=-90;" vertex="1" parent="WIyWlLk6GJQsqaUBKTNV-1">
          <mxGeometry x="502.0000000000002" y="881.5649999999999" width="36.87" height="36.87" as="geometry" />
        </mxCell>
        <mxCell id="MjlApDLCVCDL2BFmYz9w-785" value="" style="ellipse;whiteSpace=wrap;html=1;aspect=fixed;shadow=0;sketch=0;fontSize=19;fontColor=#ffffff;strokeColor=#006EAF;strokeWidth=2;fillColor=#1ba1e2;align=center;rotation=-90;" vertex="1" parent="WIyWlLk6GJQsqaUBKTNV-1">
          <mxGeometry x="501.0000000000002" y="836.5649999999999" width="36.87" height="36.87" as="geometry" />
        </mxCell>
        <mxCell id="MjlApDLCVCDL2BFmYz9w-786" value="" style="ellipse;whiteSpace=wrap;html=1;aspect=fixed;shadow=0;sketch=0;fontSize=19;strokeColor=#b85450;strokeWidth=2;fillColor=#f8cecc;align=center;rotation=-90;" vertex="1" parent="WIyWlLk6GJQsqaUBKTNV-1">
          <mxGeometry x="502.0000000000002" y="794.5649999999999" width="36.87" height="36.87" as="geometry" />
        </mxCell>
        <mxCell id="MjlApDLCVCDL2BFmYz9w-787" value="&lt;b&gt;&lt;font style=&quot;font-size: 25px&quot;&gt;...&lt;/font&gt;&lt;/b&gt;" style="text;html=1;resizable=0;autosize=1;align=center;verticalAlign=middle;points=[];fillColor=none;strokeColor=none;rounded=0;shadow=0;sketch=0;fontSize=19;fontColor=#000000;rotation=-90;" vertex="1" parent="WIyWlLk6GJQsqaUBKTNV-1">
          <mxGeometry x="497.0000000000002" y="760.5649999999999" width="40" height="30" as="geometry" />
        </mxCell>
        <mxCell id="MjlApDLCVCDL2BFmYz9w-788" value="" style="ellipse;whiteSpace=wrap;html=1;aspect=fixed;shadow=0;sketch=0;fontSize=19;strokeColor=#b85450;strokeWidth=2;fillColor=#f8cecc;align=center;rotation=-90;" vertex="1" parent="WIyWlLk6GJQsqaUBKTNV-1">
          <mxGeometry x="501.0000000000002" y="725.5649999999999" width="36.87" height="36.87" as="geometry" />
        </mxCell>
        <mxCell id="MjlApDLCVCDL2BFmYz9w-789" value="" style="ellipse;whiteSpace=wrap;html=1;aspect=fixed;shadow=0;sketch=0;fontSize=19;strokeColor=#b85450;strokeWidth=2;fillColor=#f8cecc;align=center;rotation=-90;" vertex="1" parent="WIyWlLk6GJQsqaUBKTNV-1">
          <mxGeometry x="502.0000000000002" y="680.5649999999999" width="36.87" height="36.87" as="geometry" />
        </mxCell>
        <mxCell id="MjlApDLCVCDL2BFmYz9w-790" style="edgeStyle=orthogonalEdgeStyle;rounded=1;orthogonalLoop=1;jettySize=auto;html=1;entryX=0;entryY=0.5;entryDx=0;entryDy=0;fontSize=19;fontColor=#000000;endArrow=classic;endFill=1;strokeColor=default;strokeWidth=2;opacity=80;exitX=1;exitY=0.5;exitDx=0;exitDy=0;" edge="1" source="MjlApDLCVCDL2BFmYz9w-783" target="MjlApDLCVCDL2BFmYz9w-809" parent="WIyWlLk6GJQsqaUBKTNV-1">
          <mxGeometry relative="1" as="geometry">
            <mxPoint x="541" y="536.065" as="targetPoint" />
          </mxGeometry>
        </mxCell>
        <mxCell id="MjlApDLCVCDL2BFmYz9w-791" value="" style="ellipse;whiteSpace=wrap;html=1;aspect=fixed;shadow=0;sketch=0;fontSize=19;strokeColor=#b85450;strokeWidth=2;fillColor=#f8cecc;align=center;rotation=-90;" vertex="1" parent="WIyWlLk6GJQsqaUBKTNV-1">
          <mxGeometry x="501.0000000000002" y="640.5649999999999" width="36.87" height="36.87" as="geometry" />
        </mxCell>
        <mxCell id="MjlApDLCVCDL2BFmYz9w-793" value="" style="rounded=1;whiteSpace=wrap;html=1;shadow=0;sketch=0;fontSize=19;fontColor=#000000;strokeColor=#000000;strokeWidth=2;fillColor=none;align=center;rotation=-90;" vertex="1" parent="WIyWlLk6GJQsqaUBKTNV-1">
          <mxGeometry x="560.0000000000002" y="761.5649999999999" width="280" height="36.87" as="geometry" />
        </mxCell>
        <mxCell id="MjlApDLCVCDL2BFmYz9w-794" value="" style="ellipse;whiteSpace=wrap;html=1;aspect=fixed;shadow=0;sketch=0;fontSize=19;fontColor=#ffffff;strokeColor=#006EAF;strokeWidth=2;fillColor=#1ba1e2;align=center;rotation=-90;" vertex="1" parent="WIyWlLk6GJQsqaUBKTNV-1">
          <mxGeometry x="682.0000000000002" y="882.5649999999999" width="36.87" height="36.87" as="geometry" />
        </mxCell>
        <mxCell id="MjlApDLCVCDL2BFmYz9w-795" value="" style="ellipse;whiteSpace=wrap;html=1;aspect=fixed;shadow=0;sketch=0;fontSize=19;fontColor=#ffffff;strokeColor=#006EAF;strokeWidth=2;fillColor=#1ba1e2;align=center;rotation=-90;" vertex="1" parent="WIyWlLk6GJQsqaUBKTNV-1">
          <mxGeometry x="681.0000000000002" y="837.5649999999999" width="36.87" height="36.87" as="geometry" />
        </mxCell>
        <mxCell id="MjlApDLCVCDL2BFmYz9w-796" value="" style="ellipse;whiteSpace=wrap;html=1;aspect=fixed;shadow=0;sketch=0;fontSize=19;fontColor=#ffffff;strokeColor=#006EAF;strokeWidth=2;fillColor=#1ba1e2;align=center;rotation=-90;" vertex="1" parent="WIyWlLk6GJQsqaUBKTNV-1">
          <mxGeometry x="682.0000000000002" y="796.5649999999999" width="36.87" height="36.87" as="geometry" />
        </mxCell>
        <mxCell id="MjlApDLCVCDL2BFmYz9w-797" value="&lt;b&gt;&lt;font style=&quot;font-size: 25px&quot;&gt;...&lt;/font&gt;&lt;/b&gt;" style="text;html=1;resizable=0;autosize=1;align=center;verticalAlign=middle;points=[];fillColor=none;strokeColor=none;rounded=0;shadow=0;sketch=0;fontSize=19;fontColor=#000000;rotation=-90;" vertex="1" parent="WIyWlLk6GJQsqaUBKTNV-1">
          <mxGeometry x="677.0000000000002" y="760.5649999999999" width="40" height="30" as="geometry" />
        </mxCell>
        <mxCell id="MjlApDLCVCDL2BFmYz9w-798" value="" style="ellipse;whiteSpace=wrap;html=1;aspect=fixed;shadow=0;sketch=0;fontSize=19;fontColor=#ffffff;strokeColor=#006EAF;strokeWidth=2;fillColor=#1ba1e2;align=center;rotation=-90;" vertex="1" parent="WIyWlLk6GJQsqaUBKTNV-1">
          <mxGeometry x="681.0000000000002" y="727.5649999999999" width="36.87" height="36.87" as="geometry" />
        </mxCell>
        <mxCell id="MjlApDLCVCDL2BFmYz9w-799" value="" style="ellipse;whiteSpace=wrap;html=1;aspect=fixed;shadow=0;sketch=0;fontSize=19;fontColor=#ffffff;strokeColor=#006EAF;strokeWidth=2;fillColor=#1ba1e2;align=center;rotation=-90;" vertex="1" parent="WIyWlLk6GJQsqaUBKTNV-1">
          <mxGeometry x="682.0000000000002" y="682.5649999999999" width="36.87" height="36.87" as="geometry" />
        </mxCell>
        <mxCell id="MjlApDLCVCDL2BFmYz9w-800" value="" style="ellipse;whiteSpace=wrap;html=1;aspect=fixed;shadow=0;sketch=0;fontSize=19;fontColor=#ffffff;strokeColor=#006EAF;strokeWidth=2;fillColor=#1ba1e2;align=center;rotation=-90;" vertex="1" parent="WIyWlLk6GJQsqaUBKTNV-1">
          <mxGeometry x="682.0000000000002" y="642.5649999999999" width="36.87" height="36.87" as="geometry" />
        </mxCell>
        <mxCell id="MjlApDLCVCDL2BFmYz9w-801" value="" style="ellipse;whiteSpace=wrap;html=1;aspect=fixed;shadow=0;sketch=0;fontSize=19;fontColor=#ffffff;strokeColor=#006EAF;strokeWidth=2;fillColor=#1ba1e2;align=center;rotation=-90;" vertex="1" parent="WIyWlLk6GJQsqaUBKTNV-1">
          <mxGeometry x="502.0000000000002" y="881.5649999999999" width="36.87" height="36.87" as="geometry" />
        </mxCell>
        <mxCell id="MjlApDLCVCDL2BFmYz9w-802" value="" style="ellipse;whiteSpace=wrap;html=1;aspect=fixed;shadow=0;sketch=0;fontSize=19;fontColor=#ffffff;strokeColor=#006EAF;strokeWidth=2;fillColor=#1ba1e2;align=center;rotation=-90;" vertex="1" parent="WIyWlLk6GJQsqaUBKTNV-1">
          <mxGeometry x="501.0000000000002" y="836.5649999999999" width="36.87" height="36.87" as="geometry" />
        </mxCell>
        <mxCell id="MjlApDLCVCDL2BFmYz9w-803" value="" style="ellipse;whiteSpace=wrap;html=1;aspect=fixed;shadow=0;sketch=0;fontSize=19;strokeColor=#b85450;strokeWidth=2;fillColor=#f8cecc;align=center;rotation=-90;" vertex="1" parent="WIyWlLk6GJQsqaUBKTNV-1">
          <mxGeometry x="502.0000000000002" y="881.5649999999999" width="36.87" height="36.87" as="geometry" />
        </mxCell>
        <mxCell id="MjlApDLCVCDL2BFmYz9w-804" value="" style="ellipse;whiteSpace=wrap;html=1;aspect=fixed;shadow=0;sketch=0;fontSize=19;strokeColor=#b85450;strokeWidth=2;fillColor=#f8cecc;align=center;rotation=-90;" vertex="1" parent="WIyWlLk6GJQsqaUBKTNV-1">
          <mxGeometry x="501.0000000000002" y="836.5649999999999" width="36.87" height="36.87" as="geometry" />
        </mxCell>
        <mxCell id="MjlApDLCVCDL2BFmYz9w-805" value="" style="shape=curlyBracket;whiteSpace=wrap;html=1;rounded=1;shadow=0;sketch=0;fontSize=22;fontColor=#CC0000;strokeColor=#000000;strokeWidth=1;fillColor=none;align=center;rotation=-90;" vertex="1" parent="WIyWlLk6GJQsqaUBKTNV-1">
          <mxGeometry x="610.0000000000002" y="818.5649999999999" width="20" height="239.42" as="geometry" />
        </mxCell>
        <mxCell id="MjlApDLCVCDL2BFmYz9w-806" value="&lt;font color=&quot;#000000&quot; style=&quot;font-size: 35px&quot;&gt;Graph Multi-behavior&amp;nbsp;&lt;/font&gt;" style="text;html=1;resizable=0;autosize=1;align=center;verticalAlign=middle;points=[];fillColor=none;strokeColor=none;rounded=0;shadow=0;sketch=0;fontSize=22;fontColor=#CC0000;rotation=0;" vertex="1" parent="WIyWlLk6GJQsqaUBKTNV-1">
          <mxGeometry x="449.12000000000023" y="954.5649999999999" width="350" height="40" as="geometry" />
        </mxCell>
        <mxCell id="MjlApDLCVCDL2BFmYz9w-774" style="edgeStyle=orthogonalEdgeStyle;rounded=1;orthogonalLoop=1;jettySize=auto;html=1;fontSize=19;fontColor=#000000;endArrow=classic;endFill=1;strokeColor=default;strokeWidth=2;opacity=80;" edge="1" source="MjlApDLCVCDL2BFmYz9w-775" parent="WIyWlLk6GJQsqaUBKTNV-1">
          <mxGeometry relative="1" as="geometry">
            <mxPoint x="609" y="570" as="targetPoint" />
          </mxGeometry>
        </mxCell>
        <mxCell id="MjlApDLCVCDL2BFmYz9w-809" value="&lt;div&gt;&lt;font face=&quot;helvetica&quot; size=&quot;1&quot;&gt;&lt;b&gt;&lt;i style=&quot;font-size: 35px&quot;&gt;Behavior CL&lt;/i&gt;&lt;/b&gt;&lt;/font&gt;&lt;/div&gt;" style="text;whiteSpace=wrap;html=1;fontSize=15;fontColor=#000000;align=center;" vertex="1" parent="WIyWlLk6GJQsqaUBKTNV-1">
          <mxGeometry x="540.87" y="479.5" width="159.13" height="70.5" as="geometry" />
        </mxCell>
        <mxCell id="MjlApDLCVCDL2BFmYz9w-810" value="" style="group;aspect=fixed;" vertex="1" connectable="0" parent="WIyWlLk6GJQsqaUBKTNV-1">
          <mxGeometry x="119.8" y="471.69000000000005" width="300" height="228.30999999999995" as="geometry" />
        </mxCell>
        <mxCell id="MjlApDLCVCDL2BFmYz9w-875" value="" style="rounded=1;whiteSpace=wrap;html=1;fontSize=16;fontColor=#000000;strokeWidth=2;fillColor=default;align=center;strokeColor=#B3B3B3;opacity=30;shadow=1;" vertex="1" parent="MjlApDLCVCDL2BFmYz9w-810">
          <mxGeometry x="-73.74" y="-11.36" width="349.8" height="229.33" as="geometry" />
        </mxCell>
        <mxCell id="MjlApDLCVCDL2BFmYz9w-183" value="" style="ellipse;whiteSpace=wrap;html=1;aspect=fixed;shadow=0;sketch=0;fontSize=16;fontColor=#000000;strokeColor=#000000;strokeWidth=1;fillColor=none;align=center;dashed=1;dashPattern=1 2;" vertex="1" parent="MjlApDLCVCDL2BFmYz9w-810">
          <mxGeometry x="12.92142857142856" y="15.08074285714284" width="175.5894886363635" height="175.5894886363635" as="geometry" />
        </mxCell>
        <mxCell id="MjlApDLCVCDL2BFmYz9w-184" value="" style="ellipse;whiteSpace=wrap;html=1;aspect=fixed;shadow=0;sketch=0;fontSize=16;fontColor=#000000;strokeColor=#000000;strokeWidth=1;fillColor=none;align=center;dashed=1;dashPattern=1 2;" vertex="1" parent="MjlApDLCVCDL2BFmYz9w-810">
          <mxGeometry x="49.52639999999995" y="51.68571428571424" width="102.78409090909084" height="102.78409090909084" as="geometry" />
        </mxCell>
        <mxCell id="MjlApDLCVCDL2BFmYz9w-185" value="" style="ellipse;whiteSpace=wrap;html=1;aspect=fixed;shadow=0;fontSize=16;strokeColor=#6c8ebf;strokeWidth=1;fillColor=#dae8fc;align=center;sketch=0;" vertex="1" parent="MjlApDLCVCDL2BFmYz9w-810">
          <mxGeometry x="49.52639999999995" y="119.4514285714285" width="18.272727272727263" height="18.272727272727263" as="geometry" />
        </mxCell>
        <mxCell id="MjlApDLCVCDL2BFmYz9w-187" value="" style="ellipse;whiteSpace=wrap;html=1;aspect=fixed;shadow=0;fontSize=16;strokeColor=#6c8ebf;strokeWidth=1;fillColor=#dae8fc;align=center;sketch=0;" vertex="1" parent="MjlApDLCVCDL2BFmYz9w-810">
          <mxGeometry x="67.90354285714281" y="45.942857142857115" width="18.272727272727263" height="18.272727272727263" as="geometry" />
        </mxCell>
        <mxCell id="MjlApDLCVCDL2BFmYz9w-188" value="" style="ellipse;whiteSpace=wrap;html=1;aspect=fixed;shadow=0;fontSize=16;strokeColor=#6c8ebf;strokeWidth=1;fillColor=#dae8fc;align=center;sketch=0;" vertex="1" parent="MjlApDLCVCDL2BFmYz9w-810">
          <mxGeometry x="134.52068571428563" y="119.4514285714285" width="18.272727272727263" height="18.272727272727263" as="geometry" />
        </mxCell>
        <mxCell id="MjlApDLCVCDL2BFmYz9w-189" value="" style="shape=image;verticalLabelPosition=bottom;labelBackgroundColor=#ffffff;verticalAlign=top;aspect=fixed;imageAspect=0;image=data:image/png,iVBORw0KGgoAAAANSUhEUgAAAGgAAABoCAYAAAAdHLWhAAALCUlEQVR4Ae1ddcgUQRT/7O7uArsVVBRbsbu7sUXF1n8MsBsDwUDsTkzsFgO7G+zuevI7mGV2b7/77r6dnZk794Hs593ezHvvN/nemzdR5JHWGojSmjuPOfIA0rwReAB5AGmuAc3Z83qQB5DmGtCcPa8HeQBprgHN2fN6kAeQexr4+PEjPXz4kI4fP047duygNWvW0Pr162n37t105swZevbsGX3//t09BiSUHHY96Pr167R48WLq0KEDFS5cmJImTUpRUVF+/+LEiUNp0qShcuXK0cCBA2nr1q30+vVrCSoVW0VYAPThwwdatmwZ1a9fP1pA7ECyfpYnTx7q2bMnHT58WKwWXSxNa4B+//5NS5YsoeLFi/v1EKvyQ/l/3LhxqXnz5r6h0UXdCilaW4BOnDhBNWrUCAhMqlSpqFixYlStWjVq1aoV9e3bl3r16kVNmjShSpUqUYECBShhwoTRlpEgQQJfj8I8pitpCdCsWbMoceLEtorNkSMHtWnThpYvX+5bIHz69In+/Pnjp9+fP3/S+/fv6erVqzR9+nSqW7cuAVC7npY/f37av3+/Xxk6fKAVQF++fKF+/frZKhG9Yd68efT8+fNY6+3OnTs0dOhQSp06tV8d6GkzZsyIddlu/VAbgLAQqF27tp/ismfPTtOmTaO3b98K08Hly5epY8eOhLnI2qOGDRsmrB4RBWkB0OfPn6lWrVp+yqpatSrdvn1bhJy2ZaxatYqSJUvmV++ECRNs31fxoRYAderUyU9J7du3J2xE3aaDBw8Slt/WnrRgwQK3qw6qfOUAzZ492085Y8aMCYp5US89efKESpcubeIDm9xbt26JqiLW5SgF6MqVK35DDCwEKghgZMmSxQQSht2/f/+qYMeoUylAsAzwQ0vJkiUJiwVVtG/fPkqePLmJJ6wcVZIygDZt2mRSRJIkSejIkSMqdeGrGytGvtGkT5+eHj9+rIwvJQDBwgwjJq8IWAF0IOzFypYta+Jt8uTJylhTAtDOnTtNCsiYMaPSVmrVPlwX/B6paNGihK2AClICkHVZjWFFN2rUqJGpEe3du1cJi9IBgqmGXy3B7KKjsdI6R6oagqUDhJYIZxqbf6pXr66kZcZUKbyxGHoZnwULFqSvX7/G9DPh30sHCBMuExpPWK51paZNmxq8xo8fn44ePSqdVekA8fMPLMgXLlyQLnSwFS5cuNAACI0JrnbZJB2gChUqGEJjLlK5x4hJ2Xv27DF4BUAjRoyI6SfCv5cK0Ldv3yhnzpyG0BjX4VTTlRAZxM+Xbdu2lc6qVIBevXpFmTJlMgAqX768rTdUuhaiqfDGjRuUMmVKg9969epF86Z7H0sF6NGjR5QuXTpDYDjodKanT58SHIZsUQP/lGySCtCbN28oc+bMhsAI7NCZ4CJPmzatwW+dOnWksysVIARy5M2b1xC4SJEihKAPXen8+fMmk0+LFi2ksyoVIPhWeMcYhg9sCHWlAwcOGI0Jw1z//v2lsyoVIEiHgEE2pqdIkYJu3rwpXehgK0TMAuMVTxW+IekAWf0t69atC1Zf0t/r06ePARCs2ypi56QDhGGD31uocnHHhDbcC4jFYz0I+7d3797F9DPh30sH6MWLF5QtWzblgsekSXh348WLZ/CJ0GIVJB0gCNmtWzdDcLTQzZs3q5A9YJ2DBg0y8bhixYqA77v1pRKAEJzBhg484WJWYcqPTqmINkLYFeMRezcnIcfR1RPM50oAgt8fpxKYAvDUye3ArzTBW+/evYPRpSvvKAEIkixdutQEUNasWbWwbO/atcvEF/xA586dc0X5wRSqDCBYtvlNK1pqs2bNCIe2VBGOV+bKlcsEkMreAz0oAwiVb9myxaQMgDRy5Egl+KDBwLoOHtg/xGy/fPlSCT+sUqUAgYkhQ4YYCoFisCHcuHEj40/aE8H6DBjGBxYzqkk5QDCg4sgirxyYgGQta7Fg6dq1q6l+8KLLOSHlAKGFYvNqd1B43LhxrjZgzDm8C541EhyxRMPRgbQACIqA7wVnRZmS2LNx48Z08uRJobr69esXrVy50m9BgDpbt26tLIrUTkhtAAJzOAJi3R9BaYj+6dy5M128eNFOhqA/g7tj+/btVLlyZb+GgHpgHLU7kBx0BS68qBVAkA8GyR49etgqEHMTNpGLFi0K+nAVlu2nTp2iiRMnUpUqVWzLhc1t7NixLqjXeZHaAcREmj9/vinAhA157Ikj9ciPMGDAABo/frwPtA0bNvjy9cydO9encORMKFOmDCVKlMgWGJRVokQJ2rZtG6tWu6e2AEFTiJlDLBofF8AAcvrEHge+KZ1d7tCB1gAh+RHmjIoVK5p8SE7AwRw3adIkZcbPULuolgBh1YZ5CPY5J2DgtxjecLQS8QSIFJVxcjxUEAK9rxVAMFTi3Cpy6AQCBt/D6Ye9E2LVYMPDfDNq1ChCcD7mL8QT4Ij9pUuXtHJlBALD7jstAIKv3y7LCA8SwAAI2L8gHApH52E/i3RSChDisrEIiC4jFRxlAAX53X78+BHpWNjKpwwgnLWxuhtYj8FEjgxVCBVWSVjhnT17lhARq4qUADR16lTCppMBwp6IOkUCPx0mcj65U6FChXwLDBUgSQcIG0sGCP+ERVl1j+EBOHbsmIlP5K+bM2cO/4qUv6UBBJMLYuB4UPA3ltJr166VImwoldy9e5eQxMLKr2yHohSAYD22BmJAcKzcrl27ForepL6LA1x8sD8Dy203CC+k6wDBr2IHDnwucJbpTvfu3fPLigKgZA13rgM0ePBgv2ECbm7dzPqBGgqyPTZs2NBPDljV3SZXAYJVmQ0L7Cl7DBelQCy5kZiWyYEnLBqHDh0SVYVtOa4BhFWQ1WTTpUsXWybC5UP0JKuLHAH2OCrpFrkCEMJkkYCIb21Ijhfu9ygABBws5jOQQMYGDRq4Fs/nCkAwz/DgQCDEHEQKwTHIZ8OCrG4d7hIOEI5tIFyWAYSzQDof0opto7GefsD5IUQniSahAGG/Yw3IQEBgJBIOeMFdzhoinm7sj4QCZE3hlSFDBrp//34k4uOTCRGwPECQV7S5ShhAWABYVzhIuRzJhDAu5E7gQRo9erRQkYUBhMgYntF8+fIpzeArVEsBCoN7no8aQmoBpLwRRcIAatmypQmgKVOmiOJR+3Ks3mC43EWREIBg+eVvFMFYrHOCClHKY+WsXr3a1DgRiyfqSKcQgHB8kR/ecA3Z/0RwMOI+PaYDRKqePn1aiAqEAFSzZk2DOZh3dEhQLkQ7IRQyfPhwQwcACtGuIsgxQLAQ8DnVEE8QCSadUJVrTZaLTF4i7n1wDBDuLWVdG8/u3buHKltEvI/AEj6bJGLHRdx95BggdGUeINwt978SspHwusCFu07JMUA8UwisQCTn/0qI+eYBQtZgp+QYoFKlShlM5c6dW/mpaKcKcfJ73HbMAwTPsVNyBBAiQ3FtJmMKph4RE6NToVT9HqMHf3U17n9wSo4AQkQOfzdpu3btnPIT1r/H5tzaYJ0K5Agg3BbMx1WruoDCqRJE/R4jCp9jDjlZnZIjgHC8g/csihhznQqk8vfwh/FzMk7xOTX5OALIelGTaFO7SmXHtm7e5YIk7k69rI4AQhYotkDAE4Hv/zshconpBHkflPYgBB/OnDnTd9oad3CrPKahS8N48OCBL5IWMXQicv046kFMKeEUJcp4DpenEIDCRdhw5NMDSHPUPIA8gDTXgObseT3IA0hzDWjOnteDPIA014Dm7Hk9yANIcw1ozt4/BaeT1Hrs378AAAAASUVORK5CYII=;" vertex="1" parent="MjlApDLCVCDL2BFmYz9w-810">
          <mxGeometry x="89.72640000000001" y="91.88571428571423" width="22.84090909090908" height="22.84090909090908" as="geometry" />
        </mxCell>
        <mxCell id="MjlApDLCVCDL2BFmYz9w-190" value="" style="endArrow=none;html=1;rounded=1;fontSize=16;fontColor=#000000;strokeColor=#6c8ebf;entryX=0.042;entryY=0.401;entryDx=0;entryDy=0;entryPerimeter=0;fillColor=#dae8fc;" edge="1" parent="MjlApDLCVCDL2BFmYz9w-810" source="MjlApDLCVCDL2BFmYz9w-189" target="MjlApDLCVCDL2BFmYz9w-188">
          <mxGeometry width="50" height="50" relative="1" as="geometry">
            <mxPoint x="110.40068571428564" y="126.34285714285704" as="sourcePoint" />
            <mxPoint x="147.15497142857134" y="82.69714285714278" as="targetPoint" />
          </mxGeometry>
        </mxCell>
        <mxCell id="MjlApDLCVCDL2BFmYz9w-186" value="" style="edgeStyle=none;rounded=1;orthogonalLoop=1;jettySize=auto;html=1;fontSize=16;fontColor=#000000;endArrow=none;endFill=0;strokeColor=default;" edge="1" parent="MjlApDLCVCDL2BFmYz9w-810" source="MjlApDLCVCDL2BFmYz9w-187" target="MjlApDLCVCDL2BFmYz9w-189">
          <mxGeometry relative="1" as="geometry" />
        </mxCell>
        <mxCell id="MjlApDLCVCDL2BFmYz9w-191" value="" style="edgeStyle=none;rounded=1;orthogonalLoop=1;jettySize=auto;html=1;fontSize=16;fontColor=#000000;endArrow=none;endFill=0;strokeColor=#b85450;entryX=0;entryY=1;entryDx=0;entryDy=0;fillColor=#f8cecc;exitX=1;exitY=0;exitDx=0;exitDy=0;" edge="1" parent="MjlApDLCVCDL2BFmYz9w-810" source="MjlApDLCVCDL2BFmYz9w-185" target="MjlApDLCVCDL2BFmYz9w-189">
          <mxGeometry relative="1" as="geometry">
            <mxPoint x="64.1603822559615" y="75.81048884611245" as="sourcePoint" />
            <mxPoint x="60.17201632653065" y="103.46331428571426" as="targetPoint" />
          </mxGeometry>
        </mxCell>
        <mxCell id="MjlApDLCVCDL2BFmYz9w-192" value="" style="ellipse;whiteSpace=wrap;html=1;aspect=fixed;shadow=0;fontSize=16;strokeColor=#6c8ebf;strokeWidth=1;fillColor=#dae8fc;align=center;sketch=0;" vertex="1" parent="MjlApDLCVCDL2BFmYz9w-810">
          <mxGeometry x="134.52068571428563" y="64.31999999999995" width="18.272727272727263" height="18.272727272727263" as="geometry" />
        </mxCell>
        <mxCell id="MjlApDLCVCDL2BFmYz9w-193" value="" style="edgeStyle=none;rounded=1;orthogonalLoop=1;jettySize=auto;html=1;fontSize=16;fontColor=#000000;endArrow=none;endFill=0;strokeColor=default;exitX=0.013;exitY=0.776;exitDx=0;exitDy=0;exitPerimeter=0;entryX=1;entryY=0.25;entryDx=0;entryDy=0;" edge="1" parent="MjlApDLCVCDL2BFmYz9w-810" source="MjlApDLCVCDL2BFmYz9w-192" target="MjlApDLCVCDL2BFmYz9w-189">
          <mxGeometry relative="1" as="geometry">
            <mxPoint x="118.32701082739" y="75.71860313182682" as="sourcePoint" />
            <mxPoint x="114.33864489795916" y="103.37142857142848" as="targetPoint" />
          </mxGeometry>
        </mxCell>
        <mxCell id="MjlApDLCVCDL2BFmYz9w-194" value="" style="shape=image;verticalLabelPosition=bottom;labelBackgroundColor=#ffffff;verticalAlign=top;aspect=fixed;imageAspect=0;image=data:image/png,iVBORw0KGgoAAAANSUhEUgAAAGgAAABoCAYAAAAdHLWhAAALCUlEQVR4Ae1ddcgUQRT/7O7uArsVVBRbsbu7sUXF1n8MsBsDwUDsTkzsFgO7G+zuevI7mGV2b7/77r6dnZk794Hs593ezHvvN/nemzdR5JHWGojSmjuPOfIA0rwReAB5AGmuAc3Z83qQB5DmGtCcPa8HeQBprgHN2fN6kAeQexr4+PEjPXz4kI4fP047duygNWvW0Pr162n37t105swZevbsGX3//t09BiSUHHY96Pr167R48WLq0KEDFS5cmJImTUpRUVF+/+LEiUNp0qShcuXK0cCBA2nr1q30+vVrCSoVW0VYAPThwwdatmwZ1a9fP1pA7ECyfpYnTx7q2bMnHT58WKwWXSxNa4B+//5NS5YsoeLFi/v1EKvyQ/l/3LhxqXnz5r6h0UXdCilaW4BOnDhBNWrUCAhMqlSpqFixYlStWjVq1aoV9e3bl3r16kVNmjShSpUqUYECBShhwoTRlpEgQQJfj8I8pitpCdCsWbMoceLEtorNkSMHtWnThpYvX+5bIHz69In+/Pnjp9+fP3/S+/fv6erVqzR9+nSqW7cuAVC7npY/f37av3+/Xxk6fKAVQF++fKF+/frZKhG9Yd68efT8+fNY6+3OnTs0dOhQSp06tV8d6GkzZsyIddlu/VAbgLAQqF27tp/ismfPTtOmTaO3b98K08Hly5epY8eOhLnI2qOGDRsmrB4RBWkB0OfPn6lWrVp+yqpatSrdvn1bhJy2ZaxatYqSJUvmV++ECRNs31fxoRYAderUyU9J7du3J2xE3aaDBw8Slt/WnrRgwQK3qw6qfOUAzZ492085Y8aMCYp5US89efKESpcubeIDm9xbt26JqiLW5SgF6MqVK35DDCwEKghgZMmSxQQSht2/f/+qYMeoUylAsAzwQ0vJkiUJiwVVtG/fPkqePLmJJ6wcVZIygDZt2mRSRJIkSejIkSMqdeGrGytGvtGkT5+eHj9+rIwvJQDBwgwjJq8IWAF0IOzFypYta+Jt8uTJylhTAtDOnTtNCsiYMaPSVmrVPlwX/B6paNGihK2AClICkHVZjWFFN2rUqJGpEe3du1cJi9IBgqmGXy3B7KKjsdI6R6oagqUDhJYIZxqbf6pXr66kZcZUKbyxGHoZnwULFqSvX7/G9DPh30sHCBMuExpPWK51paZNmxq8xo8fn44ePSqdVekA8fMPLMgXLlyQLnSwFS5cuNAACI0JrnbZJB2gChUqGEJjLlK5x4hJ2Xv27DF4BUAjRoyI6SfCv5cK0Ldv3yhnzpyG0BjX4VTTlRAZxM+Xbdu2lc6qVIBevXpFmTJlMgAqX768rTdUuhaiqfDGjRuUMmVKg9969epF86Z7H0sF6NGjR5QuXTpDYDjodKanT58SHIZsUQP/lGySCtCbN28oc+bMhsAI7NCZ4CJPmzatwW+dOnWksysVIARy5M2b1xC4SJEihKAPXen8+fMmk0+LFi2ksyoVIPhWeMcYhg9sCHWlAwcOGI0Jw1z//v2lsyoVIEiHgEE2pqdIkYJu3rwpXehgK0TMAuMVTxW+IekAWf0t69atC1Zf0t/r06ePARCs2ypi56QDhGGD31uocnHHhDbcC4jFYz0I+7d3797F9DPh30sH6MWLF5QtWzblgsekSXh348WLZ/CJ0GIVJB0gCNmtWzdDcLTQzZs3q5A9YJ2DBg0y8bhixYqA77v1pRKAEJzBhg484WJWYcqPTqmINkLYFeMRezcnIcfR1RPM50oAgt8fpxKYAvDUye3ArzTBW+/evYPRpSvvKAEIkixdutQEUNasWbWwbO/atcvEF/xA586dc0X5wRSqDCBYtvlNK1pqs2bNCIe2VBGOV+bKlcsEkMreAz0oAwiVb9myxaQMgDRy5Egl+KDBwLoOHtg/xGy/fPlSCT+sUqUAgYkhQ4YYCoFisCHcuHEj40/aE8H6DBjGBxYzqkk5QDCg4sgirxyYgGQta7Fg6dq1q6l+8KLLOSHlAKGFYvNqd1B43LhxrjZgzDm8C541EhyxRMPRgbQACIqA7wVnRZmS2LNx48Z08uRJobr69esXrVy50m9BgDpbt26tLIrUTkhtAAJzOAJi3R9BaYj+6dy5M128eNFOhqA/g7tj+/btVLlyZb+GgHpgHLU7kBx0BS68qBVAkA8GyR49etgqEHMTNpGLFi0K+nAVlu2nTp2iiRMnUpUqVWzLhc1t7NixLqjXeZHaAcREmj9/vinAhA157Ikj9ciPMGDAABo/frwPtA0bNvjy9cydO9encORMKFOmDCVKlMgWGJRVokQJ2rZtG6tWu6e2AEFTiJlDLBofF8AAcvrEHge+KZ1d7tCB1gAh+RHmjIoVK5p8SE7AwRw3adIkZcbPULuolgBh1YZ5CPY5J2DgtxjecLQS8QSIFJVxcjxUEAK9rxVAMFTi3Cpy6AQCBt/D6Ye9E2LVYMPDfDNq1ChCcD7mL8QT4Ij9pUuXtHJlBALD7jstAIKv3y7LCA8SwAAI2L8gHApH52E/i3RSChDisrEIiC4jFRxlAAX53X78+BHpWNjKpwwgnLWxuhtYj8FEjgxVCBVWSVjhnT17lhARq4qUADR16lTCppMBwp6IOkUCPx0mcj65U6FChXwLDBUgSQcIG0sGCP+ERVl1j+EBOHbsmIlP5K+bM2cO/4qUv6UBBJMLYuB4UPA3ltJr166VImwoldy9e5eQxMLKr2yHohSAYD22BmJAcKzcrl27ForepL6LA1x8sD8Dy203CC+k6wDBr2IHDnwucJbpTvfu3fPLigKgZA13rgM0ePBgv2ECbm7dzPqBGgqyPTZs2NBPDljV3SZXAYJVmQ0L7Cl7DBelQCy5kZiWyYEnLBqHDh0SVYVtOa4BhFWQ1WTTpUsXWybC5UP0JKuLHAH2OCrpFrkCEMJkkYCIb21Ijhfu9ygABBws5jOQQMYGDRq4Fs/nCkAwz/DgQCDEHEQKwTHIZ8OCrG4d7hIOEI5tIFyWAYSzQDof0opto7GefsD5IUQniSahAGG/Yw3IQEBgJBIOeMFdzhoinm7sj4QCZE3hlSFDBrp//34k4uOTCRGwPECQV7S5ShhAWABYVzhIuRzJhDAu5E7gQRo9erRQkYUBhMgYntF8+fIpzeArVEsBCoN7no8aQmoBpLwRRcIAatmypQmgKVOmiOJR+3Ks3mC43EWREIBg+eVvFMFYrHOCClHKY+WsXr3a1DgRiyfqSKcQgHB8kR/ecA3Z/0RwMOI+PaYDRKqePn1aiAqEAFSzZk2DOZh3dEhQLkQ7IRQyfPhwQwcACtGuIsgxQLAQ8DnVEE8QCSadUJVrTZaLTF4i7n1wDBDuLWVdG8/u3buHKltEvI/AEj6bJGLHRdx95BggdGUeINwt978SspHwusCFu07JMUA8UwisQCTn/0qI+eYBQtZgp+QYoFKlShlM5c6dW/mpaKcKcfJ73HbMAwTPsVNyBBAiQ3FtJmMKph4RE6NToVT9HqMHf3U17n9wSo4AQkQOfzdpu3btnPIT1r/H5tzaYJ0K5Agg3BbMx1WruoDCqRJE/R4jCp9jDjlZnZIjgHC8g/csihhznQqk8vfwh/FzMk7xOTX5OALIelGTaFO7SmXHtm7e5YIk7k69rI4AQhYotkDAE4Hv/zshconpBHkflPYgBB/OnDnTd9oad3CrPKahS8N48OCBL5IWMXQicv046kFMKeEUJcp4DpenEIDCRdhw5NMDSHPUPIA8gDTXgObseT3IA0hzDWjOnteDPIA014Dm7Hk9yANIcw1ozt4/BaeT1Hrs378AAAAASUVORK5CYII=;" vertex="1" parent="MjlApDLCVCDL2BFmYz9w-810">
          <mxGeometry x="166.54285714285712" y="34.45714285714285" width="22.84090909090908" height="22.84090909090908" as="geometry" />
        </mxCell>
        <mxCell id="MjlApDLCVCDL2BFmYz9w-195" value="" style="edgeStyle=none;rounded=1;orthogonalLoop=1;jettySize=auto;html=1;fontSize=16;fontColor=#000000;endArrow=none;endFill=0;strokeColor=default;exitX=0;exitY=1;exitDx=0;exitDy=0;entryX=1;entryY=0;entryDx=0;entryDy=0;" edge="1" parent="MjlApDLCVCDL2BFmYz9w-810" source="MjlApDLCVCDL2BFmYz9w-194" target="MjlApDLCVCDL2BFmYz9w-192">
          <mxGeometry relative="1" as="geometry">
            <mxPoint x="174.95958857142853" y="51.681119999999794" as="sourcePoint" />
            <mxPoint x="152.89782857142845" y="70.72902857142849" as="targetPoint" />
          </mxGeometry>
        </mxCell>
        <mxCell id="MjlApDLCVCDL2BFmYz9w-196" value="" style="shape=image;verticalLabelPosition=bottom;labelBackgroundColor=#ffffff;verticalAlign=top;aspect=fixed;imageAspect=0;image=data:image/png,iVBORw0KGgoAAAANSUhEUgAAAGgAAABoCAYAAAAdHLWhAAALCUlEQVR4Ae1ddcgUQRT/7O7uArsVVBRbsbu7sUXF1n8MsBsDwUDsTkzsFgO7G+zuevI7mGV2b7/77r6dnZk794Hs593ezHvvN/nemzdR5JHWGojSmjuPOfIA0rwReAB5AGmuAc3Z83qQB5DmGtCcPa8HeQBprgHN2fN6kAeQexr4+PEjPXz4kI4fP047duygNWvW0Pr162n37t105swZevbsGX3//t09BiSUHHY96Pr167R48WLq0KEDFS5cmJImTUpRUVF+/+LEiUNp0qShcuXK0cCBA2nr1q30+vVrCSoVW0VYAPThwwdatmwZ1a9fP1pA7ECyfpYnTx7q2bMnHT58WKwWXSxNa4B+//5NS5YsoeLFi/v1EKvyQ/l/3LhxqXnz5r6h0UXdCilaW4BOnDhBNWrUCAhMqlSpqFixYlStWjVq1aoV9e3bl3r16kVNmjShSpUqUYECBShhwoTRlpEgQQJfj8I8pitpCdCsWbMoceLEtorNkSMHtWnThpYvX+5bIHz69In+/Pnjp9+fP3/S+/fv6erVqzR9+nSqW7cuAVC7npY/f37av3+/Xxk6fKAVQF++fKF+/frZKhG9Yd68efT8+fNY6+3OnTs0dOhQSp06tV8d6GkzZsyIddlu/VAbgLAQqF27tp/ismfPTtOmTaO3b98K08Hly5epY8eOhLnI2qOGDRsmrB4RBWkB0OfPn6lWrVp+yqpatSrdvn1bhJy2ZaxatYqSJUvmV++ECRNs31fxoRYAderUyU9J7du3J2xE3aaDBw8Slt/WnrRgwQK3qw6qfOUAzZ492085Y8aMCYp5US89efKESpcubeIDm9xbt26JqiLW5SgF6MqVK35DDCwEKghgZMmSxQQSht2/f/+qYMeoUylAsAzwQ0vJkiUJiwVVtG/fPkqePLmJJ6wcVZIygDZt2mRSRJIkSejIkSMqdeGrGytGvtGkT5+eHj9+rIwvJQDBwgwjJq8IWAF0IOzFypYta+Jt8uTJylhTAtDOnTtNCsiYMaPSVmrVPlwX/B6paNGihK2AClICkHVZjWFFN2rUqJGpEe3du1cJi9IBgqmGXy3B7KKjsdI6R6oagqUDhJYIZxqbf6pXr66kZcZUKbyxGHoZnwULFqSvX7/G9DPh30sHCBMuExpPWK51paZNmxq8xo8fn44ePSqdVekA8fMPLMgXLlyQLnSwFS5cuNAACI0JrnbZJB2gChUqGEJjLlK5x4hJ2Xv27DF4BUAjRoyI6SfCv5cK0Ldv3yhnzpyG0BjX4VTTlRAZxM+Xbdu2lc6qVIBevXpFmTJlMgAqX768rTdUuhaiqfDGjRuUMmVKg9969epF86Z7H0sF6NGjR5QuXTpDYDjodKanT58SHIZsUQP/lGySCtCbN28oc+bMhsAI7NCZ4CJPmzatwW+dOnWksysVIARy5M2b1xC4SJEihKAPXen8+fMmk0+LFi2ksyoVIPhWeMcYhg9sCHWlAwcOGI0Jw1z//v2lsyoVIEiHgEE2pqdIkYJu3rwpXehgK0TMAuMVTxW+IekAWf0t69atC1Zf0t/r06ePARCs2ypi56QDhGGD31uocnHHhDbcC4jFYz0I+7d3797F9DPh30sH6MWLF5QtWzblgsekSXh348WLZ/CJ0GIVJB0gCNmtWzdDcLTQzZs3q5A9YJ2DBg0y8bhixYqA77v1pRKAEJzBhg484WJWYcqPTqmINkLYFeMRezcnIcfR1RPM50oAgt8fpxKYAvDUye3ArzTBW+/evYPRpSvvKAEIkixdutQEUNasWbWwbO/atcvEF/xA586dc0X5wRSqDCBYtvlNK1pqs2bNCIe2VBGOV+bKlcsEkMreAz0oAwiVb9myxaQMgDRy5Egl+KDBwLoOHtg/xGy/fPlSCT+sUqUAgYkhQ4YYCoFisCHcuHEj40/aE8H6DBjGBxYzqkk5QDCg4sgirxyYgGQta7Fg6dq1q6l+8KLLOSHlAKGFYvNqd1B43LhxrjZgzDm8C541EhyxRMPRgbQACIqA7wVnRZmS2LNx48Z08uRJobr69esXrVy50m9BgDpbt26tLIrUTkhtAAJzOAJi3R9BaYj+6dy5M128eNFOhqA/g7tj+/btVLlyZb+GgHpgHLU7kBx0BS68qBVAkA8GyR49etgqEHMTNpGLFi0K+nAVlu2nTp2iiRMnUpUqVWzLhc1t7NixLqjXeZHaAcREmj9/vinAhA157Ikj9ciPMGDAABo/frwPtA0bNvjy9cydO9encORMKFOmDCVKlMgWGJRVokQJ2rZtG6tWu6e2AEFTiJlDLBofF8AAcvrEHge+KZ1d7tCB1gAh+RHmjIoVK5p8SE7AwRw3adIkZcbPULuolgBh1YZ5CPY5J2DgtxjecLQS8QSIFJVxcjxUEAK9rxVAMFTi3Cpy6AQCBt/D6Ye9E2LVYMPDfDNq1ChCcD7mL8QT4Ij9pUuXtHJlBALD7jstAIKv3y7LCA8SwAAI2L8gHApH52E/i3RSChDisrEIiC4jFRxlAAX53X78+BHpWNjKpwwgnLWxuhtYj8FEjgxVCBVWSVjhnT17lhARq4qUADR16lTCppMBwp6IOkUCPx0mcj65U6FChXwLDBUgSQcIG0sGCP+ERVl1j+EBOHbsmIlP5K+bM2cO/4qUv6UBBJMLYuB4UPA3ltJr166VImwoldy9e5eQxMLKr2yHohSAYD22BmJAcKzcrl27ForepL6LA1x8sD8Dy203CC+k6wDBr2IHDnwucJbpTvfu3fPLigKgZA13rgM0ePBgv2ECbm7dzPqBGgqyPTZs2NBPDljV3SZXAYJVmQ0L7Cl7DBelQCy5kZiWyYEnLBqHDh0SVYVtOa4BhFWQ1WTTpUsXWybC5UP0JKuLHAH2OCrpFrkCEMJkkYCIb21Ijhfu9ygABBws5jOQQMYGDRq4Fs/nCkAwz/DgQCDEHEQKwTHIZ8OCrG4d7hIOEI5tIFyWAYSzQDof0opto7GefsD5IUQniSahAGG/Yw3IQEBgJBIOeMFdzhoinm7sj4QCZE3hlSFDBrp//34k4uOTCRGwPECQV7S5ShhAWABYVzhIuRzJhDAu5E7gQRo9erRQkYUBhMgYntF8+fIpzeArVEsBCoN7no8aQmoBpLwRRcIAatmypQmgKVOmiOJR+3Ks3mC43EWREIBg+eVvFMFYrHOCClHKY+WsXr3a1DgRiyfqSKcQgHB8kR/ecA3Z/0RwMOI+PaYDRKqePn1aiAqEAFSzZk2DOZh3dEhQLkQ7IRQyfPhwQwcACtGuIsgxQLAQ8DnVEE8QCSadUJVrTZaLTF4i7n1wDBDuLWVdG8/u3buHKltEvI/AEj6bJGLHRdx95BggdGUeINwt978SspHwusCFu07JMUA8UwisQCTn/0qI+eYBQtZgp+QYoFKlShlM5c6dW/mpaKcKcfJ73HbMAwTPsVNyBBAiQ3FtJmMKph4RE6NToVT9HqMHf3U17n9wSo4AQkQOfzdpu3btnPIT1r/H5tzaYJ0K5Agg3BbMx1WruoDCqRJE/R4jCp9jDjlZnZIjgHC8g/csihhznQqk8vfwh/FzMk7xOTX5OALIelGTaFO7SmXHtm7e5YIk7k69rI4AQhYotkDAE4Hv/zshconpBHkflPYgBB/OnDnTd9oad3CrPKahS8N48OCBL5IWMXQicv046kFMKeEUJcp4DpenEIDCRdhw5NMDSHPUPIA8gDTXgObseT3IA0hzDWjOnteDPIA014Dm7Hk9yANIcw1ozt4/BaeT1Hrs378AAAAASUVORK5CYII=;" vertex="1" parent="MjlApDLCVCDL2BFmYz9w-810">
          <mxGeometry x="178.02857142857133" y="80.39999999999998" width="22.84090909090908" height="22.84090909090908" as="geometry" />
        </mxCell>
        <mxCell id="MjlApDLCVCDL2BFmYz9w-197" value="" style="shape=image;verticalLabelPosition=bottom;labelBackgroundColor=#ffffff;verticalAlign=top;aspect=fixed;imageAspect=0;image=data:image/png,iVBORw0KGgoAAAANSUhEUgAAAGgAAABoCAYAAAAdHLWhAAALCUlEQVR4Ae1ddcgUQRT/7O7uArsVVBRbsbu7sUXF1n8MsBsDwUDsTkzsFgO7G+zuevI7mGV2b7/77r6dnZk794Hs593ezHvvN/nemzdR5JHWGojSmjuPOfIA0rwReAB5AGmuAc3Z83qQB5DmGtCcPa8HeQBprgHN2fN6kAeQexr4+PEjPXz4kI4fP047duygNWvW0Pr162n37t105swZevbsGX3//t09BiSUHHY96Pr167R48WLq0KEDFS5cmJImTUpRUVF+/+LEiUNp0qShcuXK0cCBA2nr1q30+vVrCSoVW0VYAPThwwdatmwZ1a9fP1pA7ECyfpYnTx7q2bMnHT58WKwWXSxNa4B+//5NS5YsoeLFi/v1EKvyQ/l/3LhxqXnz5r6h0UXdCilaW4BOnDhBNWrUCAhMqlSpqFixYlStWjVq1aoV9e3bl3r16kVNmjShSpUqUYECBShhwoTRlpEgQQJfj8I8pitpCdCsWbMoceLEtorNkSMHtWnThpYvX+5bIHz69In+/Pnjp9+fP3/S+/fv6erVqzR9+nSqW7cuAVC7npY/f37av3+/Xxk6fKAVQF++fKF+/frZKhG9Yd68efT8+fNY6+3OnTs0dOhQSp06tV8d6GkzZsyIddlu/VAbgLAQqF27tp/ismfPTtOmTaO3b98K08Hly5epY8eOhLnI2qOGDRsmrB4RBWkB0OfPn6lWrVp+yqpatSrdvn1bhJy2ZaxatYqSJUvmV++ECRNs31fxoRYAderUyU9J7du3J2xE3aaDBw8Slt/WnrRgwQK3qw6qfOUAzZ492085Y8aMCYp5US89efKESpcubeIDm9xbt26JqiLW5SgF6MqVK35DDCwEKghgZMmSxQQSht2/f/+qYMeoUylAsAzwQ0vJkiUJiwVVtG/fPkqePLmJJ6wcVZIygDZt2mRSRJIkSejIkSMqdeGrGytGvtGkT5+eHj9+rIwvJQDBwgwjJq8IWAF0IOzFypYta+Jt8uTJylhTAtDOnTtNCsiYMaPSVmrVPlwX/B6paNGihK2AClICkHVZjWFFN2rUqJGpEe3du1cJi9IBgqmGXy3B7KKjsdI6R6oagqUDhJYIZxqbf6pXr66kZcZUKbyxGHoZnwULFqSvX7/G9DPh30sHCBMuExpPWK51paZNmxq8xo8fn44ePSqdVekA8fMPLMgXLlyQLnSwFS5cuNAACI0JrnbZJB2gChUqGEJjLlK5x4hJ2Xv27DF4BUAjRoyI6SfCv5cK0Ldv3yhnzpyG0BjX4VTTlRAZxM+Xbdu2lc6qVIBevXpFmTJlMgAqX768rTdUuhaiqfDGjRuUMmVKg9969epF86Z7H0sF6NGjR5QuXTpDYDjodKanT58SHIZsUQP/lGySCtCbN28oc+bMhsAI7NCZ4CJPmzatwW+dOnWksysVIARy5M2b1xC4SJEihKAPXen8+fMmk0+LFi2ksyoVIPhWeMcYhg9sCHWlAwcOGI0Jw1z//v2lsyoVIEiHgEE2pqdIkYJu3rwpXehgK0TMAuMVTxW+IekAWf0t69atC1Zf0t/r06ePARCs2ypi56QDhGGD31uocnHHhDbcC4jFYz0I+7d3797F9DPh30sH6MWLF5QtWzblgsekSXh348WLZ/CJ0GIVJB0gCNmtWzdDcLTQzZs3q5A9YJ2DBg0y8bhixYqA77v1pRKAEJzBhg484WJWYcqPTqmINkLYFeMRezcnIcfR1RPM50oAgt8fpxKYAvDUye3ArzTBW+/evYPRpSvvKAEIkixdutQEUNasWbWwbO/atcvEF/xA586dc0X5wRSqDCBYtvlNK1pqs2bNCIe2VBGOV+bKlcsEkMreAz0oAwiVb9myxaQMgDRy5Egl+KDBwLoOHtg/xGy/fPlSCT+sUqUAgYkhQ4YYCoFisCHcuHEj40/aE8H6DBjGBxYzqkk5QDCg4sgirxyYgGQta7Fg6dq1q6l+8KLLOSHlAKGFYvNqd1B43LhxrjZgzDm8C541EhyxRMPRgbQACIqA7wVnRZmS2LNx48Z08uRJobr69esXrVy50m9BgDpbt26tLIrUTkhtAAJzOAJi3R9BaYj+6dy5M128eNFOhqA/g7tj+/btVLlyZb+GgHpgHLU7kBx0BS68qBVAkA8GyR49etgqEHMTNpGLFi0K+nAVlu2nTp2iiRMnUpUqVWzLhc1t7NixLqjXeZHaAcREmj9/vinAhA157Ikj9ciPMGDAABo/frwPtA0bNvjy9cydO9encORMKFOmDCVKlMgWGJRVokQJ2rZtG6tWu6e2AEFTiJlDLBofF8AAcvrEHge+KZ1d7tCB1gAh+RHmjIoVK5p8SE7AwRw3adIkZcbPULuolgBh1YZ5CPY5J2DgtxjecLQS8QSIFJVxcjxUEAK9rxVAMFTi3Cpy6AQCBt/D6Ye9E2LVYMPDfDNq1ChCcD7mL8QT4Ij9pUuXtHJlBALD7jstAIKv3y7LCA8SwAAI2L8gHApH52E/i3RSChDisrEIiC4jFRxlAAX53X78+BHpWNjKpwwgnLWxuhtYj8FEjgxVCBVWSVjhnT17lhARq4qUADR16lTCppMBwp6IOkUCPx0mcj65U6FChXwLDBUgSQcIG0sGCP+ERVl1j+EBOHbsmIlP5K+bM2cO/4qUv6UBBJMLYuB4UPA3ltJr166VImwoldy9e5eQxMLKr2yHohSAYD22BmJAcKzcrl27ForepL6LA1x8sD8Dy203CC+k6wDBr2IHDnwucJbpTvfu3fPLigKgZA13rgM0ePBgv2ECbm7dzPqBGgqyPTZs2NBPDljV3SZXAYJVmQ0L7Cl7DBelQCy5kZiWyYEnLBqHDh0SVYVtOa4BhFWQ1WTTpUsXWybC5UP0JKuLHAH2OCrpFrkCEMJkkYCIb21Ijhfu9ygABBws5jOQQMYGDRq4Fs/nCkAwz/DgQCDEHEQKwTHIZ8OCrG4d7hIOEI5tIFyWAYSzQDof0opto7GefsD5IUQniSahAGG/Yw3IQEBgJBIOeMFdzhoinm7sj4QCZE3hlSFDBrp//34k4uOTCRGwPECQV7S5ShhAWABYVzhIuRzJhDAu5E7gQRo9erRQkYUBhMgYntF8+fIpzeArVEsBCoN7no8aQmoBpLwRRcIAatmypQmgKVOmiOJR+3Ks3mC43EWREIBg+eVvFMFYrHOCClHKY+WsXr3a1DgRiyfqSKcQgHB8kR/ecA3Z/0RwMOI+PaYDRKqePn1aiAqEAFSzZk2DOZh3dEhQLkQ7IRQyfPhwQwcACtGuIsgxQLAQ8DnVEE8QCSadUJVrTZaLTF4i7n1wDBDuLWVdG8/u3buHKltEvI/AEj6bJGLHRdx95BggdGUeINwt978SspHwusCFu07JMUA8UwisQCTn/0qI+eYBQtZgp+QYoFKlShlM5c6dW/mpaKcKcfJ73HbMAwTPsVNyBBAiQ3FtJmMKph4RE6NToVT9HqMHf3U17n9wSo4AQkQOfzdpu3btnPIT1r/H5tzaYJ0K5Agg3BbMx1WruoDCqRJE/R4jCp9jDjlZnZIjgHC8g/csihhznQqk8vfwh/FzMk7xOTX5OALIelGTaFO7SmXHtm7e5YIk7k69rI4AQhYotkDAE4Hv/zshconpBHkflPYgBB/OnDnTd9oad3CrPKahS8N48OCBL5IWMXQicv046kFMKeEUJcp4DpenEIDCRdhw5NMDSHPUPIA8gDTXgObseT3IA0hzDWjOnteDPIA014Dm7Hk9yANIcw1ozt4/BaeT1Hrs378AAAAASUVORK5CYII=;" vertex="1" parent="MjlApDLCVCDL2BFmYz9w-810">
          <mxGeometry x="166.54285714285712" y="128.6399999999999" width="22.84090909090908" height="22.84090909090908" as="geometry" />
        </mxCell>
        <mxCell id="MjlApDLCVCDL2BFmYz9w-198" value="" style="endArrow=none;html=1;rounded=1;fontSize=16;fontColor=#000000;strokeColor=#6c8ebf;entryX=0;entryY=0.5;entryDx=0;entryDy=0;fillColor=#dae8fc;" edge="1" parent="MjlApDLCVCDL2BFmYz9w-810" target="MjlApDLCVCDL2BFmYz9w-196">
          <mxGeometry width="50" height="50" relative="1" as="geometry">
            <mxPoint x="152.89782857142845" y="76.33470125948467" as="sourcePoint" />
            <mxPoint x="175.49252571428565" y="91.8811199999999" as="targetPoint" />
          </mxGeometry>
        </mxCell>
        <mxCell id="MjlApDLCVCDL2BFmYz9w-199" value="" style="edgeStyle=none;rounded=1;orthogonalLoop=1;jettySize=auto;html=1;fontSize=16;fontColor=#000000;endArrow=none;endFill=0;strokeColor=#b85450;entryX=0.056;entryY=0.4;entryDx=0;entryDy=0;fillColor=#f8cecc;exitX=1;exitY=0;exitDx=0;exitDy=0;entryPerimeter=0;" edge="1" parent="MjlApDLCVCDL2BFmYz9w-810" target="MjlApDLCVCDL2BFmYz9w-197">
          <mxGeometry relative="1" as="geometry">
            <mxPoint x="152.8942154522742" y="132.28458454772542" as="sourcePoint" />
            <mxPoint x="177.40834285714283" y="124.99902857142854" as="targetPoint" />
          </mxGeometry>
        </mxCell>
        <mxCell id="MjlApDLCVCDL2BFmYz9w-200" value="" style="edgeStyle=none;rounded=1;orthogonalLoop=1;jettySize=auto;html=1;fontSize=16;fontColor=#000000;endArrow=none;endFill=0;strokeColor=default;entryX=1;entryY=0;entryDx=0;entryDy=0;" edge="1" parent="MjlApDLCVCDL2BFmYz9w-810" source="MjlApDLCVCDL2BFmYz9w-196">
          <mxGeometry relative="1" as="geometry">
            <mxPoint x="169.23051428571426" y="114.85714285714282" as="sourcePoint" />
            <mxPoint x="152.89421545225906" y="126.73698454774093" as="targetPoint" />
          </mxGeometry>
        </mxCell>
        <mxCell id="MjlApDLCVCDL2BFmYz9w-201" value="" style="shape=image;verticalLabelPosition=bottom;labelBackgroundColor=#ffffff;verticalAlign=top;aspect=fixed;imageAspect=0;image=data:image/png,iVBORw0KGgoAAAANSUhEUgAAAGgAAABoCAYAAAAdHLWhAAALCUlEQVR4Ae1ddcgUQRT/7O7uArsVVBRbsbu7sUXF1n8MsBsDwUDsTkzsFgO7G+zuevI7mGV2b7/77r6dnZk794Hs593ezHvvN/nemzdR5JHWGojSmjuPOfIA0rwReAB5AGmuAc3Z83qQB5DmGtCcPa8HeQBprgHN2fN6kAeQexr4+PEjPXz4kI4fP047duygNWvW0Pr162n37t105swZevbsGX3//t09BiSUHHY96Pr167R48WLq0KEDFS5cmJImTUpRUVF+/+LEiUNp0qShcuXK0cCBA2nr1q30+vVrCSoVW0VYAPThwwdatmwZ1a9fP1pA7ECyfpYnTx7q2bMnHT58WKwWXSxNa4B+//5NS5YsoeLFi/v1EKvyQ/l/3LhxqXnz5r6h0UXdCilaW4BOnDhBNWrUCAhMqlSpqFixYlStWjVq1aoV9e3bl3r16kVNmjShSpUqUYECBShhwoTRlpEgQQJfj8I8pitpCdCsWbMoceLEtorNkSMHtWnThpYvX+5bIHz69In+/Pnjp9+fP3/S+/fv6erVqzR9+nSqW7cuAVC7npY/f37av3+/Xxk6fKAVQF++fKF+/frZKhG9Yd68efT8+fNY6+3OnTs0dOhQSp06tV8d6GkzZsyIddlu/VAbgLAQqF27tp/ismfPTtOmTaO3b98K08Hly5epY8eOhLnI2qOGDRsmrB4RBWkB0OfPn6lWrVp+yqpatSrdvn1bhJy2ZaxatYqSJUvmV++ECRNs31fxoRYAderUyU9J7du3J2xE3aaDBw8Slt/WnrRgwQK3qw6qfOUAzZ492085Y8aMCYp5US89efKESpcubeIDm9xbt26JqiLW5SgF6MqVK35DDCwEKghgZMmSxQQSht2/f/+qYMeoUylAsAzwQ0vJkiUJiwVVtG/fPkqePLmJJ6wcVZIygDZt2mRSRJIkSejIkSMqdeGrGytGvtGkT5+eHj9+rIwvJQDBwgwjJq8IWAF0IOzFypYta+Jt8uTJylhTAtDOnTtNCsiYMaPSVmrVPlwX/B6paNGihK2AClICkHVZjWFFN2rUqJGpEe3du1cJi9IBgqmGXy3B7KKjsdI6R6oagqUDhJYIZxqbf6pXr66kZcZUKbyxGHoZnwULFqSvX7/G9DPh30sHCBMuExpPWK51paZNmxq8xo8fn44ePSqdVekA8fMPLMgXLlyQLnSwFS5cuNAACI0JrnbZJB2gChUqGEJjLlK5x4hJ2Xv27DF4BUAjRoyI6SfCv5cK0Ldv3yhnzpyG0BjX4VTTlRAZxM+Xbdu2lc6qVIBevXpFmTJlMgAqX768rTdUuhaiqfDGjRuUMmVKg9969epF86Z7H0sF6NGjR5QuXTpDYDjodKanT58SHIZsUQP/lGySCtCbN28oc+bMhsAI7NCZ4CJPmzatwW+dOnWksysVIARy5M2b1xC4SJEihKAPXen8+fMmk0+LFi2ksyoVIPhWeMcYhg9sCHWlAwcOGI0Jw1z//v2lsyoVIEiHgEE2pqdIkYJu3rwpXehgK0TMAuMVTxW+IekAWf0t69atC1Zf0t/r06ePARCs2ypi56QDhGGD31uocnHHhDbcC4jFYz0I+7d3797F9DPh30sH6MWLF5QtWzblgsekSXh348WLZ/CJ0GIVJB0gCNmtWzdDcLTQzZs3q5A9YJ2DBg0y8bhixYqA77v1pRKAEJzBhg484WJWYcqPTqmINkLYFeMRezcnIcfR1RPM50oAgt8fpxKYAvDUye3ArzTBW+/evYPRpSvvKAEIkixdutQEUNasWbWwbO/atcvEF/xA586dc0X5wRSqDCBYtvlNK1pqs2bNCIe2VBGOV+bKlcsEkMreAz0oAwiVb9myxaQMgDRy5Egl+KDBwLoOHtg/xGy/fPlSCT+sUqUAgYkhQ4YYCoFisCHcuHEj40/aE8H6DBjGBxYzqkk5QDCg4sgirxyYgGQta7Fg6dq1q6l+8KLLOSHlAKGFYvNqd1B43LhxrjZgzDm8C541EhyxRMPRgbQACIqA7wVnRZmS2LNx48Z08uRJobr69esXrVy50m9BgDpbt26tLIrUTkhtAAJzOAJi3R9BaYj+6dy5M128eNFOhqA/g7tj+/btVLlyZb+GgHpgHLU7kBx0BS68qBVAkA8GyR49etgqEHMTNpGLFi0K+nAVlu2nTp2iiRMnUpUqVWzLhc1t7NixLqjXeZHaAcREmj9/vinAhA157Ikj9ciPMGDAABo/frwPtA0bNvjy9cydO9encORMKFOmDCVKlMgWGJRVokQJ2rZtG6tWu6e2AEFTiJlDLBofF8AAcvrEHge+KZ1d7tCB1gAh+RHmjIoVK5p8SE7AwRw3adIkZcbPULuolgBh1YZ5CPY5J2DgtxjecLQS8QSIFJVxcjxUEAK9rxVAMFTi3Cpy6AQCBt/D6Ye9E2LVYMPDfDNq1ChCcD7mL8QT4Ij9pUuXtHJlBALD7jstAIKv3y7LCA8SwAAI2L8gHApH52E/i3RSChDisrEIiC4jFRxlAAX53X78+BHpWNjKpwwgnLWxuhtYj8FEjgxVCBVWSVjhnT17lhARq4qUADR16lTCppMBwp6IOkUCPx0mcj65U6FChXwLDBUgSQcIG0sGCP+ERVl1j+EBOHbsmIlP5K+bM2cO/4qUv6UBBJMLYuB4UPA3ltJr166VImwoldy9e5eQxMLKr2yHohSAYD22BmJAcKzcrl27ForepL6LA1x8sD8Dy203CC+k6wDBr2IHDnwucJbpTvfu3fPLigKgZA13rgM0ePBgv2ECbm7dzPqBGgqyPTZs2NBPDljV3SZXAYJVmQ0L7Cl7DBelQCy5kZiWyYEnLBqHDh0SVYVtOa4BhFWQ1WTTpUsXWybC5UP0JKuLHAH2OCrpFrkCEMJkkYCIb21Ijhfu9ygABBws5jOQQMYGDRq4Fs/nCkAwz/DgQCDEHEQKwTHIZ8OCrG4d7hIOEI5tIFyWAYSzQDof0opto7GefsD5IUQniSahAGG/Yw3IQEBgJBIOeMFdzhoinm7sj4QCZE3hlSFDBrp//34k4uOTCRGwPECQV7S5ShhAWABYVzhIuRzJhDAu5E7gQRo9erRQkYUBhMgYntF8+fIpzeArVEsBCoN7no8aQmoBpLwRRcIAatmypQmgKVOmiOJR+3Ks3mC43EWREIBg+eVvFMFYrHOCClHKY+WsXr3a1DgRiyfqSKcQgHB8kR/ecA3Z/0RwMOI+PaYDRKqePn1aiAqEAFSzZk2DOZh3dEhQLkQ7IRQyfPhwQwcACtGuIsgxQLAQ8DnVEE8QCSadUJVrTZaLTF4i7n1wDBDuLWVdG8/u3buHKltEvI/AEj6bJGLHRdx95BggdGUeINwt978SspHwusCFu07JMUA8UwisQCTn/0qI+eYBQtZgp+QYoFKlShlM5c6dW/mpaKcKcfJ73HbMAwTPsVNyBBAiQ3FtJmMKph4RE6NToVT9HqMHf3U17n9wSo4AQkQOfzdpu3btnPIT1r/H5tzaYJ0K5Agg3BbMx1WruoDCqRJE/R4jCp9jDjlZnZIjgHC8g/csihhznQqk8vfwh/FzMk7xOTX5OALIelGTaFO7SmXHtm7e5YIk7k69rI4AQhYotkDAE4Hv/zshconpBHkflPYgBB/OnDnTd9oad3CrPKahS8N48OCBL5IWMXQicv046kFMKeEUJcp4DpenEIDCRdhw5NMDSHPUPIA8gDTXgObseT3IA0hzDWjOnteDPIA014Dm7Hk9yANIcw1ozt4/BaeT1Hrs378AAAAASUVORK5CYII=;" vertex="1" parent="MjlApDLCVCDL2BFmYz9w-810">
          <mxGeometry x="89.73788571428567" y="178.02857142857133" width="22.84090909090908" height="22.84090909090908" as="geometry" />
        </mxCell>
        <mxCell id="MjlApDLCVCDL2BFmYz9w-202" value="" style="shape=image;verticalLabelPosition=bottom;labelBackgroundColor=#ffffff;verticalAlign=top;aspect=fixed;imageAspect=0;image=data:image/png,iVBORw0KGgoAAAANSUhEUgAAAGgAAABoCAYAAAAdHLWhAAALCUlEQVR4Ae1ddcgUQRT/7O7uArsVVBRbsbu7sUXF1n8MsBsDwUDsTkzsFgO7G+zuevI7mGV2b7/77r6dnZk794Hs593ezHvvN/nemzdR5JHWGojSmjuPOfIA0rwReAB5AGmuAc3Z83qQB5DmGtCcPa8HeQBprgHN2fN6kAeQexr4+PEjPXz4kI4fP047duygNWvW0Pr162n37t105swZevbsGX3//t09BiSUHHY96Pr167R48WLq0KEDFS5cmJImTUpRUVF+/+LEiUNp0qShcuXK0cCBA2nr1q30+vVrCSoVW0VYAPThwwdatmwZ1a9fP1pA7ECyfpYnTx7q2bMnHT58WKwWXSxNa4B+//5NS5YsoeLFi/v1EKvyQ/l/3LhxqXnz5r6h0UXdCilaW4BOnDhBNWrUCAhMqlSpqFixYlStWjVq1aoV9e3bl3r16kVNmjShSpUqUYECBShhwoTRlpEgQQJfj8I8pitpCdCsWbMoceLEtorNkSMHtWnThpYvX+5bIHz69In+/Pnjp9+fP3/S+/fv6erVqzR9+nSqW7cuAVC7npY/f37av3+/Xxk6fKAVQF++fKF+/frZKhG9Yd68efT8+fNY6+3OnTs0dOhQSp06tV8d6GkzZsyIddlu/VAbgLAQqF27tp/ismfPTtOmTaO3b98K08Hly5epY8eOhLnI2qOGDRsmrB4RBWkB0OfPn6lWrVp+yqpatSrdvn1bhJy2ZaxatYqSJUvmV++ECRNs31fxoRYAderUyU9J7du3J2xE3aaDBw8Slt/WnrRgwQK3qw6qfOUAzZ492085Y8aMCYp5US89efKESpcubeIDm9xbt26JqiLW5SgF6MqVK35DDCwEKghgZMmSxQQSht2/f/+qYMeoUylAsAzwQ0vJkiUJiwVVtG/fPkqePLmJJ6wcVZIygDZt2mRSRJIkSejIkSMqdeGrGytGvtGkT5+eHj9+rIwvJQDBwgwjJq8IWAF0IOzFypYta+Jt8uTJylhTAtDOnTtNCsiYMaPSVmrVPlwX/B6paNGihK2AClICkHVZjWFFN2rUqJGpEe3du1cJi9IBgqmGXy3B7KKjsdI6R6oagqUDhJYIZxqbf6pXr66kZcZUKbyxGHoZnwULFqSvX7/G9DPh30sHCBMuExpPWK51paZNmxq8xo8fn44ePSqdVekA8fMPLMgXLlyQLnSwFS5cuNAACI0JrnbZJB2gChUqGEJjLlK5x4hJ2Xv27DF4BUAjRoyI6SfCv5cK0Ldv3yhnzpyG0BjX4VTTlRAZxM+Xbdu2lc6qVIBevXpFmTJlMgAqX768rTdUuhaiqfDGjRuUMmVKg9969epF86Z7H0sF6NGjR5QuXTpDYDjodKanT58SHIZsUQP/lGySCtCbN28oc+bMhsAI7NCZ4CJPmzatwW+dOnWksysVIARy5M2b1xC4SJEihKAPXen8+fMmk0+LFi2ksyoVIPhWeMcYhg9sCHWlAwcOGI0Jw1z//v2lsyoVIEiHgEE2pqdIkYJu3rwpXehgK0TMAuMVTxW+IekAWf0t69atC1Zf0t/r06ePARCs2ypi56QDhGGD31uocnHHhDbcC4jFYz0I+7d3797F9DPh30sH6MWLF5QtWzblgsekSXh348WLZ/CJ0GIVJB0gCNmtWzdDcLTQzZs3q5A9YJ2DBg0y8bhixYqA77v1pRKAEJzBhg484WJWYcqPTqmINkLYFeMRezcnIcfR1RPM50oAgt8fpxKYAvDUye3ArzTBW+/evYPRpSvvKAEIkixdutQEUNasWbWwbO/atcvEF/xA586dc0X5wRSqDCBYtvlNK1pqs2bNCIe2VBGOV+bKlcsEkMreAz0oAwiVb9myxaQMgDRy5Egl+KDBwLoOHtg/xGy/fPlSCT+sUqUAgYkhQ4YYCoFisCHcuHEj40/aE8H6DBjGBxYzqkk5QDCg4sgirxyYgGQta7Fg6dq1q6l+8KLLOSHlAKGFYvNqd1B43LhxrjZgzDm8C541EhyxRMPRgbQACIqA7wVnRZmS2LNx48Z08uRJobr69esXrVy50m9BgDpbt26tLIrUTkhtAAJzOAJi3R9BaYj+6dy5M128eNFOhqA/g7tj+/btVLlyZb+GgHpgHLU7kBx0BS68qBVAkA8GyR49etgqEHMTNpGLFi0K+nAVlu2nTp2iiRMnUpUqVWzLhc1t7NixLqjXeZHaAcREmj9/vinAhA157Ikj9ciPMGDAABo/frwPtA0bNvjy9cydO9encORMKFOmDCVKlMgWGJRVokQJ2rZtG6tWu6e2AEFTiJlDLBofF8AAcvrEHge+KZ1d7tCB1gAh+RHmjIoVK5p8SE7AwRw3adIkZcbPULuolgBh1YZ5CPY5J2DgtxjecLQS8QSIFJVxcjxUEAK9rxVAMFTi3Cpy6AQCBt/D6Ye9E2LVYMPDfDNq1ChCcD7mL8QT4Ij9pUuXtHJlBALD7jstAIKv3y7LCA8SwAAI2L8gHApH52E/i3RSChDisrEIiC4jFRxlAAX53X78+BHpWNjKpwwgnLWxuhtYj8FEjgxVCBVWSVjhnT17lhARq4qUADR16lTCppMBwp6IOkUCPx0mcj65U6FChXwLDBUgSQcIG0sGCP+ERVl1j+EBOHbsmIlP5K+bM2cO/4qUv6UBBJMLYuB4UPA3ltJr166VImwoldy9e5eQxMLKr2yHohSAYD22BmJAcKzcrl27ForepL6LA1x8sD8Dy203CC+k6wDBr2IHDnwucJbpTvfu3fPLigKgZA13rgM0ePBgv2ECbm7dzPqBGgqyPTZs2NBPDljV3SZXAYJVmQ0L7Cl7DBelQCy5kZiWyYEnLBqHDh0SVYVtOa4BhFWQ1WTTpUsXWybC5UP0JKuLHAH2OCrpFrkCEMJkkYCIb21Ijhfu9ygABBws5jOQQMYGDRq4Fs/nCkAwz/DgQCDEHEQKwTHIZ8OCrG4d7hIOEI5tIFyWAYSzQDof0opto7GefsD5IUQniSahAGG/Yw3IQEBgJBIOeMFdzhoinm7sj4QCZE3hlSFDBrp//34k4uOTCRGwPECQV7S5ShhAWABYVzhIuRzJhDAu5E7gQRo9erRQkYUBhMgYntF8+fIpzeArVEsBCoN7no8aQmoBpLwRRcIAatmypQmgKVOmiOJR+3Ks3mC43EWREIBg+eVvFMFYrHOCClHKY+WsXr3a1DgRiyfqSKcQgHB8kR/ecA3Z/0RwMOI+PaYDRKqePn1aiAqEAFSzZk2DOZh3dEhQLkQ7IRQyfPhwQwcACtGuIsgxQLAQ8DnVEE8QCSadUJVrTZaLTF4i7n1wDBDuLWVdG8/u3buHKltEvI/AEj6bJGLHRdx95BggdGUeINwt978SspHwusCFu07JMUA8UwisQCTn/0qI+eYBQtZgp+QYoFKlShlM5c6dW/mpaKcKcfJ73HbMAwTPsVNyBBAiQ3FtJmMKph4RE6NToVT9HqMHf3U17n9wSo4AQkQOfzdpu3btnPIT1r/H5tzaYJ0K5Agg3BbMx1WruoDCqRJE/R4jCp9jDjlZnZIjgHC8g/csihhznQqk8vfwh/FzMk7xOTX5OALIelGTaFO7SmXHtm7e5YIk7k69rI4AQhYotkDAE4Hv/zshconpBHkflPYgBB/OnDnTd9oad3CrPKahS8N48OCBL5IWMXQicv046kFMKeEUJcp4DpenEIDCRdhw5NMDSHPUPIA8gDTXgObseT3IA0hzDWjOnteDPIA014Dm7Hk9yANIcw1ozt4/BaeT1Hrs378AAAAASUVORK5CYII=;" vertex="1" parent="MjlApDLCVCDL2BFmYz9w-810">
          <mxGeometry x="12.92142857142856" y="132.08571428571415" width="22.84090909090908" height="22.84090909090908" as="geometry" />
        </mxCell>
        <mxCell id="MjlApDLCVCDL2BFmYz9w-203" value="" style="shape=image;verticalLabelPosition=bottom;labelBackgroundColor=#ffffff;verticalAlign=top;aspect=fixed;imageAspect=0;image=data:image/png,iVBORw0KGgoAAAANSUhEUgAAAGgAAABoCAYAAAAdHLWhAAALCUlEQVR4Ae1ddcgUQRT/7O7uArsVVBRbsbu7sUXF1n8MsBsDwUDsTkzsFgO7G+zuevI7mGV2b7/77r6dnZk794Hs593ezHvvN/nemzdR5JHWGojSmjuPOfIA0rwReAB5AGmuAc3Z83qQB5DmGtCcPa8HeQBprgHN2fN6kAeQexr4+PEjPXz4kI4fP047duygNWvW0Pr162n37t105swZevbsGX3//t09BiSUHHY96Pr167R48WLq0KEDFS5cmJImTUpRUVF+/+LEiUNp0qShcuXK0cCBA2nr1q30+vVrCSoVW0VYAPThwwdatmwZ1a9fP1pA7ECyfpYnTx7q2bMnHT58WKwWXSxNa4B+//5NS5YsoeLFi/v1EKvyQ/l/3LhxqXnz5r6h0UXdCilaW4BOnDhBNWrUCAhMqlSpqFixYlStWjVq1aoV9e3bl3r16kVNmjShSpUqUYECBShhwoTRlpEgQQJfj8I8pitpCdCsWbMoceLEtorNkSMHtWnThpYvX+5bIHz69In+/Pnjp9+fP3/S+/fv6erVqzR9+nSqW7cuAVC7npY/f37av3+/Xxk6fKAVQF++fKF+/frZKhG9Yd68efT8+fNY6+3OnTs0dOhQSp06tV8d6GkzZsyIddlu/VAbgLAQqF27tp/ismfPTtOmTaO3b98K08Hly5epY8eOhLnI2qOGDRsmrB4RBWkB0OfPn6lWrVp+yqpatSrdvn1bhJy2ZaxatYqSJUvmV++ECRNs31fxoRYAderUyU9J7du3J2xE3aaDBw8Slt/WnrRgwQK3qw6qfOUAzZ492085Y8aMCYp5US89efKESpcubeIDm9xbt26JqiLW5SgF6MqVK35DDCwEKghgZMmSxQQSht2/f/+qYMeoUylAsAzwQ0vJkiUJiwVVtG/fPkqePLmJJ6wcVZIygDZt2mRSRJIkSejIkSMqdeGrGytGvtGkT5+eHj9+rIwvJQDBwgwjJq8IWAF0IOzFypYta+Jt8uTJylhTAtDOnTtNCsiYMaPSVmrVPlwX/B6paNGihK2AClICkHVZjWFFN2rUqJGpEe3du1cJi9IBgqmGXy3B7KKjsdI6R6oagqUDhJYIZxqbf6pXr66kZcZUKbyxGHoZnwULFqSvX7/G9DPh30sHCBMuExpPWK51paZNmxq8xo8fn44ePSqdVekA8fMPLMgXLlyQLnSwFS5cuNAACI0JrnbZJB2gChUqGEJjLlK5x4hJ2Xv27DF4BUAjRoyI6SfCv5cK0Ldv3yhnzpyG0BjX4VTTlRAZxM+Xbdu2lc6qVIBevXpFmTJlMgAqX768rTdUuhaiqfDGjRuUMmVKg9969epF86Z7H0sF6NGjR5QuXTpDYDjodKanT58SHIZsUQP/lGySCtCbN28oc+bMhsAI7NCZ4CJPmzatwW+dOnWksysVIARy5M2b1xC4SJEihKAPXen8+fMmk0+LFi2ksyoVIPhWeMcYhg9sCHWlAwcOGI0Jw1z//v2lsyoVIEiHgEE2pqdIkYJu3rwpXehgK0TMAuMVTxW+IekAWf0t69atC1Zf0t/r06ePARCs2ypi56QDhGGD31uocnHHhDbcC4jFYz0I+7d3797F9DPh30sH6MWLF5QtWzblgsekSXh348WLZ/CJ0GIVJB0gCNmtWzdDcLTQzZs3q5A9YJ2DBg0y8bhixYqA77v1pRKAEJzBhg484WJWYcqPTqmINkLYFeMRezcnIcfR1RPM50oAgt8fpxKYAvDUye3ArzTBW+/evYPRpSvvKAEIkixdutQEUNasWbWwbO/atcvEF/xA586dc0X5wRSqDCBYtvlNK1pqs2bNCIe2VBGOV+bKlcsEkMreAz0oAwiVb9myxaQMgDRy5Egl+KDBwLoOHtg/xGy/fPlSCT+sUqUAgYkhQ4YYCoFisCHcuHEj40/aE8H6DBjGBxYzqkk5QDCg4sgirxyYgGQta7Fg6dq1q6l+8KLLOSHlAKGFYvNqd1B43LhxrjZgzDm8C541EhyxRMPRgbQACIqA7wVnRZmS2LNx48Z08uRJobr69esXrVy50m9BgDpbt26tLIrUTkhtAAJzOAJi3R9BaYj+6dy5M128eNFOhqA/g7tj+/btVLlyZb+GgHpgHLU7kBx0BS68qBVAkA8GyR49etgqEHMTNpGLFi0K+nAVlu2nTp2iiRMnUpUqVWzLhc1t7NixLqjXeZHaAcREmj9/vinAhA157Ikj9ciPMGDAABo/frwPtA0bNvjy9cydO9encORMKFOmDCVKlMgWGJRVokQJ2rZtG6tWu6e2AEFTiJlDLBofF8AAcvrEHge+KZ1d7tCB1gAh+RHmjIoVK5p8SE7AwRw3adIkZcbPULuolgBh1YZ5CPY5J2DgtxjecLQS8QSIFJVxcjxUEAK9rxVAMFTi3Cpy6AQCBt/D6Ye9E2LVYMPDfDNq1ChCcD7mL8QT4Ij9pUuXtHJlBALD7jstAIKv3y7LCA8SwAAI2L8gHApH52E/i3RSChDisrEIiC4jFRxlAAX53X78+BHpWNjKpwwgnLWxuhtYj8FEjgxVCBVWSVjhnT17lhARq4qUADR16lTCppMBwp6IOkUCPx0mcj65U6FChXwLDBUgSQcIG0sGCP+ERVl1j+EBOHbsmIlP5K+bM2cO/4qUv6UBBJMLYuB4UPA3ltJr166VImwoldy9e5eQxMLKr2yHohSAYD22BmJAcKzcrl27ForepL6LA1x8sD8Dy203CC+k6wDBr2IHDnwucJbpTvfu3fPLigKgZA13rgM0ePBgv2ECbm7dzPqBGgqyPTZs2NBPDljV3SZXAYJVmQ0L7Cl7DBelQCy5kZiWyYEnLBqHDh0SVYVtOa4BhFWQ1WTTpUsXWybC5UP0JKuLHAH2OCrpFrkCEMJkkYCIb21Ijhfu9ygABBws5jOQQMYGDRq4Fs/nCkAwz/DgQCDEHEQKwTHIZ8OCrG4d7hIOEI5tIFyWAYSzQDof0opto7GefsD5IUQniSahAGG/Yw3IQEBgJBIOeMFdzhoinm7sj4QCZE3hlSFDBrp//34k4uOTCRGwPECQV7S5ShhAWABYVzhIuRzJhDAu5E7gQRo9erRQkYUBhMgYntF8+fIpzeArVEsBCoN7no8aQmoBpLwRRcIAatmypQmgKVOmiOJR+3Ks3mC43EWREIBg+eVvFMFYrHOCClHKY+WsXr3a1DgRiyfqSKcQgHB8kR/ecA3Z/0RwMOI+PaYDRKqePn1aiAqEAFSzZk2DOZh3dEhQLkQ7IRQyfPhwQwcACtGuIsgxQLAQ8DnVEE8QCSadUJVrTZaLTF4i7n1wDBDuLWVdG8/u3buHKltEvI/AEj6bJGLHRdx95BggdGUeINwt978SspHwusCFu07JMUA8UwisQCTn/0qI+eYBQtZgp+QYoFKlShlM5c6dW/mpaKcKcfJ73HbMAwTPsVNyBBAiQ3FtJmMKph4RE6NToVT9HqMHf3U17n9wSo4AQkQOfzdpu3btnPIT1r/H5tzaYJ0K5Agg3BbMx1WruoDCqRJE/R4jCp9jDjlZnZIjgHC8g/csihhznQqk8vfwh/FzMk7xOTX5OALIelGTaFO7SmXHtm7e5YIk7k69rI4AQhYotkDAE4Hv/zshconpBHkflPYgBB/OnDnTd9oad3CrPKahS8N48OCBL5IWMXQicv046kFMKeEUJcp4DpenEIDCRdhw5NMDSHPUPIA8gDTXgObseT3IA0hzDWjOnteDPIA014Dm7Hk9yANIcw1ozt4/BaeT1Hrs378AAAAASUVORK5CYII=;" vertex="1" parent="MjlApDLCVCDL2BFmYz9w-810">
          <mxGeometry y="73.37074285714282" width="18.409772727272713" height="18.409772727272713" as="geometry" />
        </mxCell>
        <mxCell id="MjlApDLCVCDL2BFmYz9w-204" value="" style="shape=image;verticalLabelPosition=bottom;labelBackgroundColor=#ffffff;verticalAlign=top;aspect=fixed;imageAspect=0;image=data:image/png,iVBORw0KGgoAAAANSUhEUgAAAGgAAABoCAYAAAAdHLWhAAALCUlEQVR4Ae1ddcgUQRT/7O7uArsVVBRbsbu7sUXF1n8MsBsDwUDsTkzsFgO7G+zuevI7mGV2b7/77r6dnZk794Hs593ezHvvN/nemzdR5JHWGojSmjuPOfIA0rwReAB5AGmuAc3Z83qQB5DmGtCcPa8HeQBprgHN2fN6kAeQexr4+PEjPXz4kI4fP047duygNWvW0Pr162n37t105swZevbsGX3//t09BiSUHHY96Pr167R48WLq0KEDFS5cmJImTUpRUVF+/+LEiUNp0qShcuXK0cCBA2nr1q30+vVrCSoVW0VYAPThwwdatmwZ1a9fP1pA7ECyfpYnTx7q2bMnHT58WKwWXSxNa4B+//5NS5YsoeLFi/v1EKvyQ/l/3LhxqXnz5r6h0UXdCilaW4BOnDhBNWrUCAhMqlSpqFixYlStWjVq1aoV9e3bl3r16kVNmjShSpUqUYECBShhwoTRlpEgQQJfj8I8pitpCdCsWbMoceLEtorNkSMHtWnThpYvX+5bIHz69In+/Pnjp9+fP3/S+/fv6erVqzR9+nSqW7cuAVC7npY/f37av3+/Xxk6fKAVQF++fKF+/frZKhG9Yd68efT8+fNY6+3OnTs0dOhQSp06tV8d6GkzZsyIddlu/VAbgLAQqF27tp/ismfPTtOmTaO3b98K08Hly5epY8eOhLnI2qOGDRsmrB4RBWkB0OfPn6lWrVp+yqpatSrdvn1bhJy2ZaxatYqSJUvmV++ECRNs31fxoRYAderUyU9J7du3J2xE3aaDBw8Slt/WnrRgwQK3qw6qfOUAzZ492085Y8aMCYp5US89efKESpcubeIDm9xbt26JqiLW5SgF6MqVK35DDCwEKghgZMmSxQQSht2/f/+qYMeoUylAsAzwQ0vJkiUJiwVVtG/fPkqePLmJJ6wcVZIygDZt2mRSRJIkSejIkSMqdeGrGytGvtGkT5+eHj9+rIwvJQDBwgwjJq8IWAF0IOzFypYta+Jt8uTJylhTAtDOnTtNCsiYMaPSVmrVPlwX/B6paNGihK2AClICkHVZjWFFN2rUqJGpEe3du1cJi9IBgqmGXy3B7KKjsdI6R6oagqUDhJYIZxqbf6pXr66kZcZUKbyxGHoZnwULFqSvX7/G9DPh30sHCBMuExpPWK51paZNmxq8xo8fn44ePSqdVekA8fMPLMgXLlyQLnSwFS5cuNAACI0JrnbZJB2gChUqGEJjLlK5x4hJ2Xv27DF4BUAjRoyI6SfCv5cK0Ldv3yhnzpyG0BjX4VTTlRAZxM+Xbdu2lc6qVIBevXpFmTJlMgAqX768rTdUuhaiqfDGjRuUMmVKg9969epF86Z7H0sF6NGjR5QuXTpDYDjodKanT58SHIZsUQP/lGySCtCbN28oc+bMhsAI7NCZ4CJPmzatwW+dOnWksysVIARy5M2b1xC4SJEihKAPXen8+fMmk0+LFi2ksyoVIPhWeMcYhg9sCHWlAwcOGI0Jw1z//v2lsyoVIEiHgEE2pqdIkYJu3rwpXehgK0TMAuMVTxW+IekAWf0t69atC1Zf0t/r06ePARCs2ypi56QDhGGD31uocnHHhDbcC4jFYz0I+7d3797F9DPh30sH6MWLF5QtWzblgsekSXh348WLZ/CJ0GIVJB0gCNmtWzdDcLTQzZs3q5A9YJ2DBg0y8bhixYqA77v1pRKAEJzBhg484WJWYcqPTqmINkLYFeMRezcnIcfR1RPM50oAgt8fpxKYAvDUye3ArzTBW+/evYPRpSvvKAEIkixdutQEUNasWbWwbO/atcvEF/xA586dc0X5wRSqDCBYtvlNK1pqs2bNCIe2VBGOV+bKlcsEkMreAz0oAwiVb9myxaQMgDRy5Egl+KDBwLoOHtg/xGy/fPlSCT+sUqUAgYkhQ4YYCoFisCHcuHEj40/aE8H6DBjGBxYzqkk5QDCg4sgirxyYgGQta7Fg6dq1q6l+8KLLOSHlAKGFYvNqd1B43LhxrjZgzDm8C541EhyxRMPRgbQACIqA7wVnRZmS2LNx48Z08uRJobr69esXrVy50m9BgDpbt26tLIrUTkhtAAJzOAJi3R9BaYj+6dy5M128eNFOhqA/g7tj+/btVLlyZb+GgHpgHLU7kBx0BS68qBVAkA8GyR49etgqEHMTNpGLFi0K+nAVlu2nTp2iiRMnUpUqVWzLhc1t7NixLqjXeZHaAcREmj9/vinAhA157Ikj9ciPMGDAABo/frwPtA0bNvjy9cydO9encORMKFOmDCVKlMgWGJRVokQJ2rZtG6tWu6e2AEFTiJlDLBofF8AAcvrEHge+KZ1d7tCB1gAh+RHmjIoVK5p8SE7AwRw3adIkZcbPULuolgBh1YZ5CPY5J2DgtxjecLQS8QSIFJVxcjxUEAK9rxVAMFTi3Cpy6AQCBt/D6Ye9E2LVYMPDfDNq1ChCcD7mL8QT4Ij9pUuXtHJlBALD7jstAIKv3y7LCA8SwAAI2L8gHApH52E/i3RSChDisrEIiC4jFRxlAAX53X78+BHpWNjKpwwgnLWxuhtYj8FEjgxVCBVWSVjhnT17lhARq4qUADR16lTCppMBwp6IOkUCPx0mcj65U6FChXwLDBUgSQcIG0sGCP+ERVl1j+EBOHbsmIlP5K+bM2cO/4qUv6UBBJMLYuB4UPA3ltJr166VImwoldy9e5eQxMLKr2yHohSAYD22BmJAcKzcrl27ForepL6LA1x8sD8Dy203CC+k6wDBr2IHDnwucJbpTvfu3fPLigKgZA13rgM0ePBgv2ECbm7dzPqBGgqyPTZs2NBPDljV3SZXAYJVmQ0L7Cl7DBelQCy5kZiWyYEnLBqHDh0SVYVtOa4BhFWQ1WTTpUsXWybC5UP0JKuLHAH2OCrpFrkCEMJkkYCIb21Ijhfu9ygABBws5jOQQMYGDRq4Fs/nCkAwz/DgQCDEHEQKwTHIZ8OCrG4d7hIOEI5tIFyWAYSzQDof0opto7GefsD5IUQniSahAGG/Yw3IQEBgJBIOeMFdzhoinm7sj4QCZE3hlSFDBrp//34k4uOTCRGwPECQV7S5ShhAWABYVzhIuRzJhDAu5E7gQRo9erRQkYUBhMgYntF8+fIpzeArVEsBCoN7no8aQmoBpLwRRcIAatmypQmgKVOmiOJR+3Ks3mC43EWREIBg+eVvFMFYrHOCClHKY+WsXr3a1DgRiyfqSKcQgHB8kR/ecA3Z/0RwMOI+PaYDRKqePn1aiAqEAFSzZk2DOZh3dEhQLkQ7IRQyfPhwQwcACtGuIsgxQLAQ8DnVEE8QCSadUJVrTZaLTF4i7n1wDBDuLWVdG8/u3buHKltEvI/AEj6bJGLHRdx95BggdGUeINwt978SspHwusCFu07JMUA8UwisQCTn/0qI+eYBQtZgp+QYoFKlShlM5c6dW/mpaKcKcfJ73HbMAwTPsVNyBBAiQ3FtJmMKph4RE6NToVT9HqMHf3U17n9wSo4AQkQOfzdpu3btnPIT1r/H5tzaYJ0K5Agg3BbMx1WruoDCqRJE/R4jCp9jDjlZnZIjgHC8g/csihhznQqk8vfwh/FzMk7xOTX5OALIelGTaFO7SmXHtm7e5YIk7k69rI4AQhYotkDAE4Hv/zshconpBHkflPYgBB/OnDnTd9oad3CrPKahS8N48OCBL5IWMXQicv046kFMKeEUJcp4DpenEIDCRdhw5NMDSHPUPIA8gDTXgObseT3IA0hzDWjOnteDPIA014Dm7Hk9yANIcw1ozt4/BaeT1Hrs378AAAAASUVORK5CYII=;" vertex="1" parent="MjlApDLCVCDL2BFmYz9w-810">
          <mxGeometry x="86.2806857142857" width="22.84090909090908" height="22.84090909090908" as="geometry" />
        </mxCell>
        <mxCell id="MjlApDLCVCDL2BFmYz9w-205" value="" style="edgeStyle=none;rounded=1;orthogonalLoop=1;jettySize=auto;html=1;fontSize=16;fontColor=#000000;endArrow=none;endFill=0;strokeColor=default;entryX=0.387;entryY=0.055;entryDx=0;entryDy=0;entryPerimeter=0;strokeWidth=1;" edge="1" parent="MjlApDLCVCDL2BFmYz9w-810" target="MjlApDLCVCDL2BFmYz9w-192">
          <mxGeometry relative="1" as="geometry">
            <mxPoint x="109.24840587706623" y="22.96665973971917" as="sourcePoint" />
            <mxPoint x="123.54034285714286" y="51.490457142857025" as="targetPoint" />
          </mxGeometry>
        </mxCell>
        <mxCell id="MjlApDLCVCDL2BFmYz9w-206" value="" style="endArrow=none;html=1;rounded=1;fontSize=16;fontColor=#000000;strokeColor=#6c8ebf;entryX=0;entryY=0.5;entryDx=0;entryDy=0;fillColor=#dae8fc;exitX=0.94;exitY=0.914;exitDx=0;exitDy=0;exitPerimeter=0;" edge="1" parent="MjlApDLCVCDL2BFmYz9w-810" source="MjlApDLCVCDL2BFmYz9w-203" target="MjlApDLCVCDL2BFmYz9w-187">
          <mxGeometry width="50" height="50" relative="1" as="geometry">
            <mxPoint x="24.395657142857136" y="57.4292155451988" as="sourcePoint" />
            <mxPoint x="49.52639999999995" y="72.98022857142848" as="targetPoint" />
          </mxGeometry>
        </mxCell>
        <mxCell id="MjlApDLCVCDL2BFmYz9w-207" value="" style="endArrow=none;html=1;rounded=1;fontSize=16;fontColor=#000000;strokeColor=#6c8ebf;entryX=0;entryY=1;entryDx=0;entryDy=0;fillColor=#dae8fc;" edge="1" parent="MjlApDLCVCDL2BFmYz9w-810" source="MjlApDLCVCDL2BFmYz9w-202" target="MjlApDLCVCDL2BFmYz9w-185">
          <mxGeometry width="50" height="50" relative="1" as="geometry">
            <mxPoint x="18.514971428571425" y="149.3142857142856" as="sourcePoint" />
            <mxPoint x="51.90394285713728" y="148.99268571428564" as="targetPoint" />
          </mxGeometry>
        </mxCell>
        <mxCell id="MjlApDLCVCDL2BFmYz9w-208" value="" style="edgeStyle=none;rounded=1;orthogonalLoop=1;jettySize=auto;html=1;fontSize=16;fontColor=#000000;endArrow=none;endFill=0;strokeColor=#b85450;fillColor=#f8cecc;exitX=0.5;exitY=0;exitDx=0;exitDy=0;" edge="1" parent="MjlApDLCVCDL2BFmYz9w-810" source="MjlApDLCVCDL2BFmYz9w-187" target="MjlApDLCVCDL2BFmYz9w-204">
          <mxGeometry relative="1" as="geometry">
            <mxPoint x="76.69798688084566" y="34.460755976297214" as="sourcePoint" />
            <mxPoint x="101.21211428571422" y="27.175199999999954" as="targetPoint" />
          </mxGeometry>
        </mxCell>
        <mxCell id="MjlApDLCVCDL2BFmYz9w-209" value="" style="edgeStyle=none;rounded=1;orthogonalLoop=1;jettySize=auto;html=1;fontSize=16;fontColor=#000000;endArrow=none;endFill=0;strokeColor=default;entryX=0;entryY=0;entryDx=0;entryDy=0;" edge="1" parent="MjlApDLCVCDL2BFmYz9w-810" target="MjlApDLCVCDL2BFmYz9w-201">
          <mxGeometry relative="1" as="geometry">
            <mxPoint x="60.90503444849464" y="137.82380259686198" as="sourcePoint" />
            <mxPoint x="93.28926857142848" y="180.18788571428553" as="targetPoint" />
          </mxGeometry>
        </mxCell>
        <mxCell id="MjlApDLCVCDL2BFmYz9w-210" value="" style="edgeStyle=none;rounded=1;orthogonalLoop=1;jettySize=auto;html=1;fontSize=16;fontColor=#000000;endArrow=none;endFill=0;strokeColor=default;" edge="1" parent="MjlApDLCVCDL2BFmYz9w-810" target="MjlApDLCVCDL2BFmYz9w-201">
          <mxGeometry relative="1" as="geometry">
            <mxPoint x="149.19572016278067" y="137.82380259686198" as="sourcePoint" />
            <mxPoint x="178.02857142857133" y="178.02857142857133" as="targetPoint" />
          </mxGeometry>
        </mxCell>
        <mxCell id="MjlApDLCVCDL2BFmYz9w-813" style="edgeStyle=orthogonalEdgeStyle;rounded=1;orthogonalLoop=1;jettySize=auto;html=1;fontSize=16;fontColor=#000000;endArrow=classic;endFill=1;strokeColor=#6c8ebf;strokeWidth=7;opacity=80;fillColor=#dae8fc;exitX=1;exitY=0.465;exitDx=0;exitDy=0;exitPerimeter=0;" edge="1" parent="WIyWlLk6GJQsqaUBKTNV-1">
          <mxGeometry relative="1" as="geometry">
            <mxPoint x="733" y="184.81000000000054" as="sourcePoint" />
            <mxPoint x="873" y="184.41" as="targetPoint" />
            <Array as="points">
              <mxPoint x="779" y="184.41" />
            </Array>
          </mxGeometry>
        </mxCell>
        <mxCell id="MjlApDLCVCDL2BFmYz9w-935" style="edgeStyle=orthogonalEdgeStyle;rounded=1;orthogonalLoop=1;jettySize=auto;html=1;fontSize=26;fontColor=#000000;endArrow=classic;endFill=1;strokeColor=default;strokeWidth=2;opacity=80;" edge="1" parent="WIyWlLk6GJQsqaUBKTNV-1" source="MjlApDLCVCDL2BFmYz9w-865">
          <mxGeometry relative="1" as="geometry">
            <mxPoint x="901.1150000000002" y="440" as="targetPoint" />
          </mxGeometry>
        </mxCell>
        <mxCell id="MjlApDLCVCDL2BFmYz9w-865" value="" style="rounded=1;whiteSpace=wrap;html=1;shadow=0;sketch=0;fontSize=19;fontColor=#000000;strokeColor=#000000;strokeWidth=2;fillColor=none;align=center;rotation=90;" vertex="1" parent="WIyWlLk6GJQsqaUBKTNV-1">
          <mxGeometry x="761.1150000000001" y="156.565" width="280" height="36.87" as="geometry" />
        </mxCell>
        <mxCell id="MjlApDLCVCDL2BFmYz9w-866" value="" style="ellipse;whiteSpace=wrap;html=1;aspect=fixed;shadow=0;sketch=0;fontSize=19;strokeWidth=2;fillColor=#d0cee2;align=center;rotation=90;strokeColor=#56517e;" vertex="1" parent="WIyWlLk6GJQsqaUBKTNV-1">
          <mxGeometry x="883.115" y="35.565000000000005" width="36.87" height="36.87" as="geometry" />
        </mxCell>
        <mxCell id="MjlApDLCVCDL2BFmYz9w-867" value="" style="ellipse;whiteSpace=wrap;html=1;aspect=fixed;shadow=0;sketch=0;fontSize=19;strokeWidth=2;fillColor=#d0cee2;align=center;rotation=90;strokeColor=#56517e;" vertex="1" parent="WIyWlLk6GJQsqaUBKTNV-1">
          <mxGeometry x="883.115" y="80.565" width="36.87" height="36.87" as="geometry" />
        </mxCell>
        <mxCell id="MjlApDLCVCDL2BFmYz9w-868" value="" style="ellipse;whiteSpace=wrap;html=1;aspect=fixed;shadow=0;sketch=0;fontSize=19;strokeWidth=2;fillColor=#d0cee2;align=center;rotation=90;strokeColor=#56517e;" vertex="1" parent="WIyWlLk6GJQsqaUBKTNV-1">
          <mxGeometry x="881.99" y="121.57" width="38" height="38" as="geometry" />
        </mxCell>
        <mxCell id="MjlApDLCVCDL2BFmYz9w-869" value="&lt;b&gt;&lt;font style=&quot;font-size: 25px&quot;&gt;...&lt;/font&gt;&lt;/b&gt;" style="text;html=1;resizable=0;autosize=1;align=center;verticalAlign=middle;points=[];fillColor=none;strokeColor=none;rounded=0;shadow=0;sketch=0;fontSize=19;fontColor=#000000;rotation=90;" vertex="1" parent="WIyWlLk6GJQsqaUBKTNV-1">
          <mxGeometry x="884.115" y="163.565" width="40" height="30" as="geometry" />
        </mxCell>
        <mxCell id="MjlApDLCVCDL2BFmYz9w-870" value="" style="ellipse;whiteSpace=wrap;html=1;aspect=fixed;shadow=0;sketch=0;fontSize=19;fontColor=#ffffff;strokeColor=#006EAF;strokeWidth=2;fillColor=#1ba1e2;align=center;rotation=90;" vertex="1" parent="WIyWlLk6GJQsqaUBKTNV-1">
          <mxGeometry x="883.115" y="190.565" width="36.87" height="36.87" as="geometry" />
        </mxCell>
        <mxCell id="MjlApDLCVCDL2BFmYz9w-871" value="" style="ellipse;whiteSpace=wrap;html=1;aspect=fixed;shadow=0;sketch=0;fontSize=19;strokeColor=#56517e;strokeWidth=2;fillColor=#d0cee2;align=center;rotation=90;" vertex="1" parent="WIyWlLk6GJQsqaUBKTNV-1">
          <mxGeometry x="883.115" y="235.565" width="36.87" height="36.87" as="geometry" />
        </mxCell>
        <mxCell id="MjlApDLCVCDL2BFmYz9w-872" value="" style="ellipse;whiteSpace=wrap;html=1;aspect=fixed;shadow=0;sketch=0;fontSize=19;fontColor=#ffffff;strokeColor=#006EAF;strokeWidth=2;fillColor=#1ba1e2;align=center;rotation=90;" vertex="1" parent="WIyWlLk6GJQsqaUBKTNV-1">
          <mxGeometry x="883.115" y="275.565" width="36.87" height="36.87" as="geometry" />
        </mxCell>
        <mxCell id="MjlApDLCVCDL2BFmYz9w-873" style="edgeStyle=orthogonalEdgeStyle;rounded=1;orthogonalLoop=1;jettySize=auto;html=1;fontSize=16;fontColor=#000000;endArrow=classic;endFill=1;strokeColor=#6c8ebf;strokeWidth=7;opacity=80;fillColor=#dae8fc;exitX=1;exitY=0.5;exitDx=0;exitDy=0;entryX=0.5;entryY=1;entryDx=0;entryDy=0;" edge="1" parent="WIyWlLk6GJQsqaUBKTNV-1" source="MjlApDLCVCDL2BFmYz9w-49" target="MjlApDLCVCDL2BFmYz9w-594">
          <mxGeometry relative="1" as="geometry">
            <mxPoint x="377.7" y="378.40000000000043" as="sourcePoint" />
            <mxPoint x="517.7" y="377.9999999999999" as="targetPoint" />
            <Array as="points">
              <mxPoint x="424" y="285" />
              <mxPoint x="424" y="181" />
            </Array>
          </mxGeometry>
        </mxCell>
        <mxCell id="MjlApDLCVCDL2BFmYz9w-874" style="edgeStyle=orthogonalEdgeStyle;rounded=1;orthogonalLoop=1;jettySize=auto;html=1;fontSize=16;fontColor=#000000;endArrow=classic;endFill=1;strokeColor=#6c8ebf;strokeWidth=7;opacity=80;fillColor=#dae8fc;exitX=1.005;exitY=0.195;exitDx=0;exitDy=0;exitPerimeter=0;" edge="1" parent="WIyWlLk6GJQsqaUBKTNV-1" source="MjlApDLCVCDL2BFmYz9w-4">
          <mxGeometry relative="1" as="geometry">
            <mxPoint x="-102.5" y="330.40000000000043" as="sourcePoint" />
            <mxPoint x="37.5" y="329.9999999999999" as="targetPoint" />
            <Array as="points" />
          </mxGeometry>
        </mxCell>
        <mxCell id="MjlApDLCVCDL2BFmYz9w-879" style="edgeStyle=orthogonalEdgeStyle;rounded=1;orthogonalLoop=1;jettySize=auto;html=1;fontSize=16;fontColor=#000000;endArrow=classic;endFill=1;strokeColor=#6c8ebf;strokeWidth=7;opacity=80;fillColor=#dae8fc;exitX=1;exitY=0.5;exitDx=0;exitDy=0;entryX=0.5;entryY=0;entryDx=0;entryDy=0;" edge="1" parent="WIyWlLk6GJQsqaUBKTNV-1" target="MjlApDLCVCDL2BFmYz9w-783">
          <mxGeometry relative="1" as="geometry">
            <mxPoint x="392.5" y="651.8" as="sourcePoint" />
            <mxPoint x="521.56" y="548.2299999999998" as="targetPoint" />
            <Array as="points">
              <mxPoint x="434" y="652" />
              <mxPoint x="434" y="779" />
            </Array>
          </mxGeometry>
        </mxCell>
        <mxCell id="MjlApDLCVCDL2BFmYz9w-896" value="" style="rounded=1;whiteSpace=wrap;html=1;shadow=0;sketch=0;fontSize=19;fontColor=#000000;strokeColor=#000000;strokeWidth=2;fillColor=none;align=center;rotation=90;" vertex="1" parent="WIyWlLk6GJQsqaUBKTNV-1">
          <mxGeometry x="761.5500000000002" y="763.56" width="280" height="36.87" as="geometry" />
        </mxCell>
        <mxCell id="MjlApDLCVCDL2BFmYz9w-897" value="" style="ellipse;whiteSpace=wrap;html=1;aspect=fixed;shadow=0;sketch=0;fontSize=19;strokeColor=#56517e;strokeWidth=2;fillColor=#d0cee2;align=center;rotation=90;" vertex="1" parent="WIyWlLk6GJQsqaUBKTNV-1">
          <mxGeometry x="883.5500000000002" y="642.56" width="36.87" height="36.87" as="geometry" />
        </mxCell>
        <mxCell id="MjlApDLCVCDL2BFmYz9w-898" value="" style="ellipse;whiteSpace=wrap;html=1;aspect=fixed;shadow=0;sketch=0;fontSize=19;fontColor=#ffffff;strokeColor=#006EAF;strokeWidth=2;fillColor=#1ba1e2;align=center;rotation=90;" vertex="1" parent="WIyWlLk6GJQsqaUBKTNV-1">
          <mxGeometry x="883.5500000000002" y="687.56" width="36.87" height="36.87" as="geometry" />
        </mxCell>
        <mxCell id="MjlApDLCVCDL2BFmYz9w-899" value="" style="ellipse;whiteSpace=wrap;html=1;aspect=fixed;shadow=0;sketch=0;fontSize=19;strokeColor=#56517e;strokeWidth=2;fillColor=#d0cee2;align=center;rotation=90;" vertex="1" parent="WIyWlLk6GJQsqaUBKTNV-1">
          <mxGeometry x="883.5500000000002" y="728.56" width="36.87" height="36.87" as="geometry" />
        </mxCell>
        <mxCell id="MjlApDLCVCDL2BFmYz9w-900" value="&lt;b&gt;&lt;font style=&quot;font-size: 25px&quot;&gt;...&lt;/font&gt;&lt;/b&gt;" style="text;html=1;resizable=0;autosize=1;align=center;verticalAlign=middle;points=[];fillColor=none;strokeColor=none;rounded=0;shadow=0;sketch=0;fontSize=19;fontColor=#000000;rotation=90;" vertex="1" parent="WIyWlLk6GJQsqaUBKTNV-1">
          <mxGeometry x="887" y="765.43" width="40" height="30" as="geometry" />
        </mxCell>
        <mxCell id="MjlApDLCVCDL2BFmYz9w-901" value="" style="ellipse;whiteSpace=wrap;html=1;aspect=fixed;shadow=0;sketch=0;fontSize=19;fontColor=#ffffff;strokeColor=#006EAF;strokeWidth=2;fillColor=#1ba1e2;align=center;rotation=90;" vertex="1" parent="WIyWlLk6GJQsqaUBKTNV-1">
          <mxGeometry x="883.5500000000002" y="797.56" width="36.87" height="36.87" as="geometry" />
        </mxCell>
        <mxCell id="MjlApDLCVCDL2BFmYz9w-902" value="" style="ellipse;whiteSpace=wrap;html=1;aspect=fixed;shadow=0;sketch=0;fontSize=19;fontColor=#ffffff;strokeColor=#006EAF;strokeWidth=2;fillColor=#1ba1e2;align=center;rotation=90;" vertex="1" parent="WIyWlLk6GJQsqaUBKTNV-1">
          <mxGeometry x="883.5500000000002" y="842.56" width="36.87" height="36.87" as="geometry" />
        </mxCell>
        <mxCell id="MjlApDLCVCDL2BFmYz9w-903" value="" style="ellipse;whiteSpace=wrap;html=1;aspect=fixed;shadow=0;sketch=0;fontSize=19;strokeColor=#56517e;strokeWidth=2;fillColor=#d0cee2;align=center;rotation=90;" vertex="1" parent="WIyWlLk6GJQsqaUBKTNV-1">
          <mxGeometry x="883.5500000000002" y="882.56" width="36.87" height="36.87" as="geometry" />
        </mxCell>
        <mxCell id="MjlApDLCVCDL2BFmYz9w-908" value="" style="ellipse;whiteSpace=wrap;html=1;aspect=fixed;shadow=0;sketch=0;fontSize=19;fontColor=#ffffff;strokeColor=#006EAF;strokeWidth=2;fillColor=#1ba1e2;align=center;rotation=90;" vertex="1" parent="WIyWlLk6GJQsqaUBKTNV-1">
          <mxGeometry x="883.115" y="275.565" width="36.87" height="36.87" as="geometry" />
        </mxCell>
        <mxCell id="MjlApDLCVCDL2BFmYz9w-909" value="" style="ellipse;whiteSpace=wrap;html=1;aspect=fixed;shadow=0;sketch=0;fontSize=19;strokeColor=#56517e;strokeWidth=2;fillColor=#d0cee2;align=center;rotation=90;" vertex="1" parent="WIyWlLk6GJQsqaUBKTNV-1">
          <mxGeometry x="883.115" y="275.565" width="36.87" height="36.87" as="geometry" />
        </mxCell>
        <mxCell id="MjlApDLCVCDL2BFmYz9w-911" value="" style="ellipse;whiteSpace=wrap;html=1;aspect=fixed;shadow=0;sketch=0;fontSize=19;strokeWidth=2;fillColor=#d0cee2;align=center;rotation=90;strokeColor=#56517e;" vertex="1" parent="WIyWlLk6GJQsqaUBKTNV-1">
          <mxGeometry x="883.115" y="190.565" width="36.87" height="36.87" as="geometry" />
        </mxCell>
        <mxCell id="MjlApDLCVCDL2BFmYz9w-918" value="" style="ellipse;whiteSpace=wrap;html=1;aspect=fixed;shadow=0;sketch=0;fontSize=19;fontColor=#ffffff;strokeColor=#006EAF;strokeWidth=2;fillColor=#1ba1e2;align=center;rotation=90;" vertex="1" parent="WIyWlLk6GJQsqaUBKTNV-1">
          <mxGeometry x="883.5500000000002" y="687.56" width="36.87" height="36.87" as="geometry" />
        </mxCell>
        <mxCell id="MjlApDLCVCDL2BFmYz9w-920" value="" style="ellipse;whiteSpace=wrap;html=1;aspect=fixed;shadow=0;sketch=0;fontSize=19;fontColor=#ffffff;strokeColor=#006EAF;strokeWidth=2;fillColor=#1ba1e2;align=center;rotation=90;" vertex="1" parent="WIyWlLk6GJQsqaUBKTNV-1">
          <mxGeometry x="883.5500000000002" y="687.56" width="36.87" height="36.87" as="geometry" />
        </mxCell>
        <mxCell id="MjlApDLCVCDL2BFmYz9w-921" value="" style="ellipse;whiteSpace=wrap;html=1;aspect=fixed;shadow=0;sketch=0;fontSize=19;fontColor=#ffffff;strokeColor=#006EAF;strokeWidth=2;fillColor=#1ba1e2;align=center;rotation=90;" vertex="1" parent="WIyWlLk6GJQsqaUBKTNV-1">
          <mxGeometry x="883.5500000000002" y="797.56" width="36.87" height="36.87" as="geometry" />
        </mxCell>
        <mxCell id="MjlApDLCVCDL2BFmYz9w-923" value="" style="ellipse;whiteSpace=wrap;html=1;aspect=fixed;shadow=0;sketch=0;fontSize=19;strokeColor=#56517e;strokeWidth=2;fillColor=#d0cee2;align=center;rotation=90;" vertex="1" parent="WIyWlLk6GJQsqaUBKTNV-1">
          <mxGeometry x="883.5500000000002" y="687.56" width="36.87" height="36.87" as="geometry" />
        </mxCell>
        <mxCell id="MjlApDLCVCDL2BFmYz9w-924" value="" style="ellipse;whiteSpace=wrap;html=1;aspect=fixed;shadow=0;sketch=0;fontSize=19;strokeColor=#56517e;strokeWidth=2;fillColor=#d0cee2;align=center;rotation=90;" vertex="1" parent="WIyWlLk6GJQsqaUBKTNV-1">
          <mxGeometry x="883.5500000000002" y="797.56" width="36.87" height="36.87" as="geometry" />
        </mxCell>
        <mxCell id="MjlApDLCVCDL2BFmYz9w-936" style="edgeStyle=orthogonalEdgeStyle;rounded=1;orthogonalLoop=1;jettySize=auto;html=1;fontSize=26;fontColor=#000000;endArrow=classic;endFill=1;strokeColor=default;strokeWidth=2;opacity=80;" edge="1" parent="WIyWlLk6GJQsqaUBKTNV-1">
          <mxGeometry relative="1" as="geometry">
            <mxPoint x="902.5450000000001" y="490" as="targetPoint" />
            <mxPoint x="902.5450000000001" y="643.7000000000062" as="sourcePoint" />
          </mxGeometry>
        </mxCell>
        <mxCell id="MjlApDLCVCDL2BFmYz9w-933" value="" style="ellipse;whiteSpace=wrap;html=1;aspect=fixed;shadow=0;sketch=0;fontSize=19;strokeColor=#56517e;strokeWidth=2;fillColor=#d0cee2;align=center;rotation=90;" vertex="1" parent="WIyWlLk6GJQsqaUBKTNV-1">
          <mxGeometry x="883.5500000000002" y="842.56" width="36.87" height="36.87" as="geometry" />
        </mxCell>
        <mxCell id="MjlApDLCVCDL2BFmYz9w-937" value="&lt;div&gt;&lt;font face=&quot;helvetica&quot; size=&quot;1&quot;&gt;&lt;b&gt;&lt;i style=&quot;font-size: 35px&quot;&gt;Cross View CL&lt;/i&gt;&lt;/b&gt;&lt;/font&gt;&lt;/div&gt;" style="text;whiteSpace=wrap;html=1;fontSize=15;fontColor=#000000;align=center;" vertex="1" parent="WIyWlLk6GJQsqaUBKTNV-1">
          <mxGeometry x="788.12" y="438" width="253" height="32" as="geometry" />
        </mxCell>
        <mxCell id="MjlApDLCVCDL2BFmYz9w-942" style="edgeStyle=orthogonalEdgeStyle;rounded=1;orthogonalLoop=1;jettySize=auto;html=1;fontSize=16;fontColor=#000000;endArrow=classic;endFill=1;strokeColor=#6c8ebf;strokeWidth=7;opacity=80;fillColor=#dae8fc;exitX=1;exitY=0.465;exitDx=0;exitDy=0;exitPerimeter=0;" edge="1" parent="WIyWlLk6GJQsqaUBKTNV-1">
          <mxGeometry relative="1" as="geometry">
            <mxPoint x="732.99" y="780.0000000000005" as="sourcePoint" />
            <mxPoint x="872.99" y="779.5999999999999" as="targetPoint" />
            <Array as="points">
              <mxPoint x="778.99" y="779.6" />
            </Array>
          </mxGeometry>
        </mxCell>
        <mxCell id="MjlApDLCVCDL2BFmYz9w-943" style="edgeStyle=orthogonalEdgeStyle;rounded=1;orthogonalLoop=1;jettySize=auto;html=1;fontSize=16;fontColor=#000000;endArrow=classic;endFill=1;strokeColor=#6c8ebf;strokeWidth=7;opacity=80;fillColor=#dae8fc;entryX=0;entryY=0.5;entryDx=0;entryDy=0;" edge="1" parent="WIyWlLk6GJQsqaUBKTNV-1" target="MjlApDLCVCDL2BFmYz9w-945">
          <mxGeometry relative="1" as="geometry">
            <mxPoint x="920" y="190" as="sourcePoint" />
            <mxPoint x="1227.02" y="286" as="targetPoint" />
            <Array as="points">
              <mxPoint x="1190" y="190" />
            </Array>
          </mxGeometry>
        </mxCell>
        <mxCell id="MjlApDLCVCDL2BFmYz9w-945" value="" style="rounded=1;whiteSpace=wrap;html=1;shadow=0;sketch=0;fontSize=19;fontColor=#000000;strokeColor=#000000;strokeWidth=2;fillColor=none;align=center;rotation=90;" vertex="1" parent="WIyWlLk6GJQsqaUBKTNV-1">
          <mxGeometry x="1050.0000000000002" y="494" width="280" height="36.87" as="geometry" />
        </mxCell>
        <mxCell id="MjlApDLCVCDL2BFmYz9w-946" value="" style="ellipse;whiteSpace=wrap;html=1;aspect=fixed;shadow=0;sketch=0;fontSize=19;fontColor=#ffffff;strokeColor=#006EAF;strokeWidth=2;fillColor=#1ba1e2;align=center;rotation=90;" vertex="1" parent="WIyWlLk6GJQsqaUBKTNV-1">
          <mxGeometry x="1172.0000000000002" y="373" width="36.87" height="36.87" as="geometry" />
        </mxCell>
        <mxCell id="MjlApDLCVCDL2BFmYz9w-947" value="" style="ellipse;whiteSpace=wrap;html=1;aspect=fixed;shadow=0;sketch=0;fontSize=19;fontColor=#ffffff;strokeColor=#006EAF;strokeWidth=2;fillColor=#1ba1e2;align=center;rotation=90;" vertex="1" parent="WIyWlLk6GJQsqaUBKTNV-1">
          <mxGeometry x="1172.0000000000002" y="418" width="36.87" height="36.87" as="geometry" />
        </mxCell>
        <mxCell id="MjlApDLCVCDL2BFmYz9w-948" value="" style="ellipse;whiteSpace=wrap;html=1;aspect=fixed;shadow=0;sketch=0;fontSize=19;fontColor=#ffffff;strokeColor=#006EAF;strokeWidth=2;fillColor=#1ba1e2;align=center;rotation=90;" vertex="1" parent="WIyWlLk6GJQsqaUBKTNV-1">
          <mxGeometry x="1172.0000000000002" y="459" width="36.87" height="36.87" as="geometry" />
        </mxCell>
        <mxCell id="MjlApDLCVCDL2BFmYz9w-949" value="&lt;b&gt;&lt;font style=&quot;font-size: 25px&quot;&gt;...&lt;/font&gt;&lt;/b&gt;" style="text;html=1;resizable=0;autosize=1;align=center;verticalAlign=middle;points=[];fillColor=none;strokeColor=none;rounded=0;shadow=0;sketch=0;fontSize=19;fontColor=#000000;rotation=90;" vertex="1" parent="WIyWlLk6GJQsqaUBKTNV-1">
          <mxGeometry x="1173.0000000000002" y="501" width="40" height="30" as="geometry" />
        </mxCell>
        <mxCell id="MjlApDLCVCDL2BFmYz9w-950" value="" style="ellipse;whiteSpace=wrap;html=1;aspect=fixed;shadow=0;sketch=0;fontSize=19;fontColor=#ffffff;strokeColor=#006EAF;strokeWidth=2;fillColor=#1ba1e2;align=center;rotation=90;" vertex="1" parent="WIyWlLk6GJQsqaUBKTNV-1">
          <mxGeometry x="1172.0000000000002" y="528" width="36.87" height="36.87" as="geometry" />
        </mxCell>
        <mxCell id="MjlApDLCVCDL2BFmYz9w-951" value="" style="ellipse;whiteSpace=wrap;html=1;aspect=fixed;shadow=0;sketch=0;fontSize=19;fontColor=#ffffff;strokeColor=#006EAF;strokeWidth=2;fillColor=#1ba1e2;align=center;rotation=90;" vertex="1" parent="WIyWlLk6GJQsqaUBKTNV-1">
          <mxGeometry x="1172.0000000000002" y="573" width="36.87" height="36.87" as="geometry" />
        </mxCell>
        <mxCell id="MjlApDLCVCDL2BFmYz9w-952" value="" style="ellipse;whiteSpace=wrap;html=1;aspect=fixed;shadow=0;sketch=0;fontSize=19;strokeColor=#d6b656;strokeWidth=2;fillColor=#fff2cc;align=center;rotation=90;gradientColor=#ffd966;" vertex="1" parent="WIyWlLk6GJQsqaUBKTNV-1">
          <mxGeometry x="1172.0000000000002" y="613" width="36.87" height="36.87" as="geometry" />
        </mxCell>
        <mxCell id="MjlApDLCVCDL2BFmYz9w-953" style="edgeStyle=orthogonalEdgeStyle;rounded=1;orthogonalLoop=1;jettySize=auto;html=1;fontSize=16;fontColor=#000000;endArrow=classic;endFill=1;strokeColor=#6c8ebf;strokeWidth=7;opacity=80;fillColor=#dae8fc;exitX=1;exitY=0.465;exitDx=0;exitDy=0;exitPerimeter=0;entryX=1;entryY=0.5;entryDx=0;entryDy=0;" edge="1" parent="WIyWlLk6GJQsqaUBKTNV-1" target="MjlApDLCVCDL2BFmYz9w-945">
          <mxGeometry relative="1" as="geometry">
            <mxPoint x="924.1099999999998" y="781.5600000000004" as="sourcePoint" />
            <mxPoint x="1064.1099999999997" y="781.1599999999999" as="targetPoint" />
            <Array as="points">
              <mxPoint x="1190" y="782" />
            </Array>
          </mxGeometry>
        </mxCell>
        <mxCell id="MjlApDLCVCDL2BFmYz9w-954" value="&lt;font color=&quot;#000000&quot; style=&quot;font-size: 35px&quot;&gt;View Fussion&lt;/font&gt;" style="text;html=1;resizable=0;autosize=1;align=center;verticalAlign=middle;points=[];fillColor=none;strokeColor=none;rounded=0;shadow=0;sketch=0;fontSize=22;fontColor=#CC0000;" vertex="1" parent="WIyWlLk6GJQsqaUBKTNV-1">
          <mxGeometry x="1003" y="846.56" width="220" height="40" as="geometry" />
        </mxCell>
        <mxCell id="MjlApDLCVCDL2BFmYz9w-956" value="" style="ellipse;whiteSpace=wrap;html=1;aspect=fixed;shadow=0;sketch=0;fontSize=19;fontColor=#ffffff;strokeColor=#006EAF;strokeWidth=2;fillColor=#1ba1e2;align=center;rotation=90;" vertex="1" parent="WIyWlLk6GJQsqaUBKTNV-1">
          <mxGeometry x="1172.0000000000002" y="373" width="36.87" height="36.87" as="geometry" />
        </mxCell>
        <mxCell id="MjlApDLCVCDL2BFmYz9w-959" value="" style="ellipse;whiteSpace=wrap;html=1;aspect=fixed;shadow=0;sketch=0;fontSize=19;fontColor=#ffffff;strokeColor=#006EAF;strokeWidth=2;fillColor=#1ba1e2;align=center;rotation=90;" vertex="1" parent="WIyWlLk6GJQsqaUBKTNV-1">
          <mxGeometry x="1172.0000000000002" y="373" width="36.87" height="36.87" as="geometry" />
        </mxCell>
        <mxCell id="MjlApDLCVCDL2BFmYz9w-960" value="" style="ellipse;whiteSpace=wrap;html=1;aspect=fixed;shadow=0;sketch=0;fontSize=19;fontColor=#ffffff;strokeColor=#006EAF;strokeWidth=2;fillColor=#1ba1e2;align=center;rotation=90;" vertex="1" parent="WIyWlLk6GJQsqaUBKTNV-1">
          <mxGeometry x="1172.0000000000002" y="373" width="36.87" height="36.87" as="geometry" />
        </mxCell>
        <mxCell id="MjlApDLCVCDL2BFmYz9w-962" value="" style="ellipse;whiteSpace=wrap;html=1;aspect=fixed;shadow=0;sketch=0;fontSize=19;fontColor=#ffffff;strokeColor=#006EAF;strokeWidth=2;fillColor=#1ba1e2;align=center;rotation=90;" vertex="1" parent="WIyWlLk6GJQsqaUBKTNV-1">
          <mxGeometry x="1172.0000000000002" y="573" width="36.87" height="36.87" as="geometry" />
        </mxCell>
        <mxCell id="MjlApDLCVCDL2BFmYz9w-963" value="" style="ellipse;whiteSpace=wrap;html=1;aspect=fixed;shadow=0;sketch=0;fontSize=19;fontColor=#ffffff;strokeColor=#006EAF;strokeWidth=2;fillColor=#1ba1e2;align=center;rotation=90;" vertex="1" parent="WIyWlLk6GJQsqaUBKTNV-1">
          <mxGeometry x="1172.0000000000002" y="373" width="36.87" height="36.87" as="geometry" />
        </mxCell>
        <mxCell id="MjlApDLCVCDL2BFmYz9w-964" value="" style="ellipse;whiteSpace=wrap;html=1;aspect=fixed;shadow=0;sketch=0;fontSize=19;fontColor=#ffffff;strokeColor=#006EAF;strokeWidth=2;fillColor=#1ba1e2;align=center;rotation=90;" vertex="1" parent="WIyWlLk6GJQsqaUBKTNV-1">
          <mxGeometry x="1172.0000000000002" y="418" width="36.87" height="36.87" as="geometry" />
        </mxCell>
        <mxCell id="MjlApDLCVCDL2BFmYz9w-965" value="" style="ellipse;whiteSpace=wrap;html=1;aspect=fixed;shadow=0;sketch=0;fontSize=19;fontColor=#ffffff;strokeColor=#006EAF;strokeWidth=2;fillColor=#1ba1e2;align=center;rotation=90;" vertex="1" parent="WIyWlLk6GJQsqaUBKTNV-1">
          <mxGeometry x="1172.0000000000002" y="459" width="36.87" height="36.87" as="geometry" />
        </mxCell>
        <mxCell id="MjlApDLCVCDL2BFmYz9w-966" value="" style="ellipse;whiteSpace=wrap;html=1;aspect=fixed;shadow=0;sketch=0;fontSize=19;fontColor=#ffffff;strokeColor=#006EAF;strokeWidth=2;fillColor=#1ba1e2;align=center;rotation=90;" vertex="1" parent="WIyWlLk6GJQsqaUBKTNV-1">
          <mxGeometry x="1172.0000000000002" y="459" width="36.87" height="36.87" as="geometry" />
        </mxCell>
        <mxCell id="MjlApDLCVCDL2BFmYz9w-967" value="" style="ellipse;whiteSpace=wrap;html=1;aspect=fixed;shadow=0;sketch=0;fontSize=19;fontColor=#ffffff;strokeColor=#006EAF;strokeWidth=2;fillColor=#1ba1e2;align=center;rotation=90;" vertex="1" parent="WIyWlLk6GJQsqaUBKTNV-1">
          <mxGeometry x="1172.0000000000002" y="373" width="36.87" height="36.87" as="geometry" />
        </mxCell>
        <mxCell id="MjlApDLCVCDL2BFmYz9w-968" value="" style="ellipse;whiteSpace=wrap;html=1;aspect=fixed;shadow=0;sketch=0;fontSize=19;fontColor=#ffffff;strokeColor=#006EAF;strokeWidth=2;fillColor=#1ba1e2;align=center;rotation=90;" vertex="1" parent="WIyWlLk6GJQsqaUBKTNV-1">
          <mxGeometry x="1172.0000000000002" y="418" width="36.87" height="36.87" as="geometry" />
        </mxCell>
        <mxCell id="MjlApDLCVCDL2BFmYz9w-969" value="" style="ellipse;whiteSpace=wrap;html=1;aspect=fixed;shadow=0;sketch=0;fontSize=19;strokeColor=#d6b656;strokeWidth=2;fillColor=#fff2cc;align=center;rotation=90;gradientColor=#ffd966;" vertex="1" parent="WIyWlLk6GJQsqaUBKTNV-1">
          <mxGeometry x="1172.0000000000002" y="459" width="36.87" height="36.87" as="geometry" />
        </mxCell>
        <mxCell id="MjlApDLCVCDL2BFmYz9w-970" value="" style="ellipse;whiteSpace=wrap;html=1;aspect=fixed;shadow=0;sketch=0;fontSize=19;strokeColor=#d6b656;strokeWidth=2;fillColor=#fff2cc;align=center;rotation=90;gradientColor=#ffd966;" vertex="1" parent="WIyWlLk6GJQsqaUBKTNV-1">
          <mxGeometry x="1172.0000000000002" y="373" width="36.87" height="36.87" as="geometry" />
        </mxCell>
        <mxCell id="MjlApDLCVCDL2BFmYz9w-971" value="" style="ellipse;whiteSpace=wrap;html=1;aspect=fixed;shadow=0;sketch=0;fontSize=19;strokeColor=#d6b656;strokeWidth=2;fillColor=#fff2cc;align=center;rotation=90;gradientColor=#ffd966;" vertex="1" parent="WIyWlLk6GJQsqaUBKTNV-1">
          <mxGeometry x="1172.0000000000002" y="418" width="36.87" height="36.87" as="geometry" />
        </mxCell>
        <mxCell id="MjlApDLCVCDL2BFmYz9w-972" value="" style="ellipse;whiteSpace=wrap;html=1;aspect=fixed;shadow=0;sketch=0;fontSize=19;strokeColor=#d6b656;strokeWidth=2;fillColor=#fff2cc;align=center;rotation=90;gradientColor=#ffd966;" vertex="1" parent="WIyWlLk6GJQsqaUBKTNV-1">
          <mxGeometry x="1172.0000000000002" y="528" width="36.87" height="36.87" as="geometry" />
        </mxCell>
        <mxCell id="MjlApDLCVCDL2BFmYz9w-973" value="" style="ellipse;whiteSpace=wrap;html=1;aspect=fixed;shadow=0;sketch=0;fontSize=19;strokeColor=#d6b656;strokeWidth=2;fillColor=#fff2cc;align=center;rotation=90;gradientColor=#ffd966;" vertex="1" parent="WIyWlLk6GJQsqaUBKTNV-1">
          <mxGeometry x="1172.0000000000002" y="573" width="36.87" height="36.87" as="geometry" />
        </mxCell>
        <mxCell id="MjlApDLCVCDL2BFmYz9w-976" style="edgeStyle=orthogonalEdgeStyle;rounded=1;orthogonalLoop=1;jettySize=auto;html=1;fontSize=16;fontColor=#000000;endArrow=classic;endFill=1;strokeColor=#6c8ebf;strokeWidth=7;opacity=80;fillColor=#dae8fc;exitX=1.027;exitY=0.458;exitDx=0;exitDy=0;exitPerimeter=0;" edge="1" parent="WIyWlLk6GJQsqaUBKTNV-1" source="MjlApDLCVCDL2BFmYz9w-974">
          <mxGeometry relative="1" as="geometry">
            <mxPoint x="2256" y="745.5699999999999" as="sourcePoint" />
            <mxPoint x="1770" y="500" as="targetPoint" />
            <Array as="points">
              <mxPoint x="1679" y="840" />
              <mxPoint x="1830" y="840" />
              <mxPoint x="1830" y="500" />
            </Array>
          </mxGeometry>
        </mxCell>
        <mxCell id="MjlApDLCVCDL2BFmYz9w-1053" value="" style="rounded=1;whiteSpace=wrap;html=1;shadow=0;sketch=0;fontSize=19;fontColor=#000000;strokeColor=#000000;strokeWidth=2;fillColor=none;align=center;" vertex="1" parent="WIyWlLk6GJQsqaUBKTNV-1">
          <mxGeometry x="1500" y="563.2900000000002" width="280" height="36.87" as="geometry" />
        </mxCell>
        <mxCell id="MjlApDLCVCDL2BFmYz9w-1054" value="" style="ellipse;whiteSpace=wrap;html=1;aspect=fixed;shadow=0;sketch=0;fontSize=19;fontColor=#ffffff;strokeColor=#2D7600;strokeWidth=2;fillColor=#60a917;align=center;" vertex="1" parent="WIyWlLk6GJQsqaUBKTNV-1">
          <mxGeometry x="1500" y="563.2900000000002" width="36.87" height="36.87" as="geometry" />
        </mxCell>
        <mxCell id="MjlApDLCVCDL2BFmYz9w-1055" value="" style="ellipse;whiteSpace=wrap;html=1;aspect=fixed;shadow=0;sketch=0;fontSize=19;fontColor=#ffffff;strokeColor=#2D7600;strokeWidth=2;fillColor=#60a917;align=center;" vertex="1" parent="WIyWlLk6GJQsqaUBKTNV-1">
          <mxGeometry x="1545" y="563.2900000000002" width="36.87" height="36.87" as="geometry" />
        </mxCell>
        <mxCell id="MjlApDLCVCDL2BFmYz9w-1056" value="" style="ellipse;whiteSpace=wrap;html=1;aspect=fixed;shadow=0;sketch=0;fontSize=19;fontColor=#ffffff;strokeColor=#2D7600;strokeWidth=2;fillColor=#60a917;align=center;" vertex="1" parent="WIyWlLk6GJQsqaUBKTNV-1">
          <mxGeometry x="1586.26" y="563.2900000000002" width="36.87" height="36.87" as="geometry" />
        </mxCell>
        <mxCell id="MjlApDLCVCDL2BFmYz9w-1057" value="&lt;b&gt;&lt;font style=&quot;font-size: 25px&quot;&gt;...&lt;/font&gt;&lt;/b&gt;" style="text;html=1;resizable=0;autosize=1;align=center;verticalAlign=middle;points=[];fillColor=none;strokeColor=none;rounded=0;shadow=0;sketch=0;fontSize=19;fontColor=#000000;" vertex="1" parent="WIyWlLk6GJQsqaUBKTNV-1">
          <mxGeometry x="1623.13" y="563.2900000000002" width="40" height="30" as="geometry" />
        </mxCell>
        <mxCell id="MjlApDLCVCDL2BFmYz9w-1058" value="" style="ellipse;whiteSpace=wrap;html=1;aspect=fixed;shadow=0;sketch=0;fontSize=19;fontColor=#ffffff;strokeColor=#2D7600;strokeWidth=2;fillColor=#60a917;align=center;" vertex="1" parent="WIyWlLk6GJQsqaUBKTNV-1">
          <mxGeometry x="1655" y="563.2900000000002" width="36.87" height="36.87" as="geometry" />
        </mxCell>
        <mxCell id="MjlApDLCVCDL2BFmYz9w-1059" value="" style="ellipse;whiteSpace=wrap;html=1;aspect=fixed;shadow=0;sketch=0;fontSize=19;fontColor=#ffffff;strokeColor=#2D7600;strokeWidth=2;fillColor=#60a917;align=center;" vertex="1" parent="WIyWlLk6GJQsqaUBKTNV-1">
          <mxGeometry x="1700" y="563.2900000000002" width="36.87" height="36.87" as="geometry" />
        </mxCell>
        <mxCell id="MjlApDLCVCDL2BFmYz9w-1060" value="" style="ellipse;whiteSpace=wrap;html=1;aspect=fixed;shadow=0;sketch=0;fontSize=19;fontColor=#ffffff;strokeColor=#2D7600;strokeWidth=2;fillColor=#60a917;align=center;" vertex="1" parent="WIyWlLk6GJQsqaUBKTNV-1">
          <mxGeometry x="1740" y="563.2900000000002" width="36.87" height="36.87" as="geometry" />
        </mxCell>
        <mxCell id="MjlApDLCVCDL2BFmYz9w-1063" value="" style="rounded=1;whiteSpace=wrap;html=1;shadow=0;sketch=0;fontSize=19;fontColor=#000000;strokeColor=#000000;strokeWidth=2;fillColor=none;align=center;" vertex="1" parent="WIyWlLk6GJQsqaUBKTNV-1">
          <mxGeometry x="1503.13" y="403.1300000000002" width="280" height="36.87" as="geometry" />
        </mxCell>
        <mxCell id="MjlApDLCVCDL2BFmYz9w-1064" value="" style="ellipse;whiteSpace=wrap;html=1;aspect=fixed;shadow=0;sketch=0;fontSize=19;fontColor=#ffffff;strokeColor=#A50040;strokeWidth=2;fillColor=#d80073;align=center;rounded=1;" vertex="1" parent="WIyWlLk6GJQsqaUBKTNV-1">
          <mxGeometry x="1503.13" y="403.1300000000002" width="36.87" height="36.87" as="geometry" />
        </mxCell>
        <mxCell id="MjlApDLCVCDL2BFmYz9w-1065" value="" style="ellipse;whiteSpace=wrap;html=1;aspect=fixed;shadow=0;sketch=0;fontSize=19;fontColor=#ffffff;strokeColor=#A50040;strokeWidth=2;fillColor=#d80073;align=center;rounded=1;" vertex="1" parent="WIyWlLk6GJQsqaUBKTNV-1">
          <mxGeometry x="1548.13" y="403.1300000000002" width="36.87" height="36.87" as="geometry" />
        </mxCell>
        <mxCell id="MjlApDLCVCDL2BFmYz9w-1066" value="" style="ellipse;whiteSpace=wrap;html=1;aspect=fixed;shadow=0;sketch=0;fontSize=19;fontColor=#ffffff;strokeColor=#A50040;strokeWidth=2;fillColor=#d80073;align=center;rounded=1;" vertex="1" parent="WIyWlLk6GJQsqaUBKTNV-1">
          <mxGeometry x="1589.39" y="403.1300000000002" width="36.87" height="36.87" as="geometry" />
        </mxCell>
        <mxCell id="MjlApDLCVCDL2BFmYz9w-1067" value="&lt;b&gt;&lt;font style=&quot;font-size: 25px&quot;&gt;...&lt;/font&gt;&lt;/b&gt;" style="text;html=1;resizable=0;autosize=1;align=center;verticalAlign=middle;points=[];fillColor=none;strokeColor=none;rounded=0;shadow=0;sketch=0;fontSize=19;fontColor=#000000;" vertex="1" parent="WIyWlLk6GJQsqaUBKTNV-1">
          <mxGeometry x="1626.2600000000002" y="403.1300000000002" width="40" height="30" as="geometry" />
        </mxCell>
        <mxCell id="MjlApDLCVCDL2BFmYz9w-1068" value="" style="ellipse;whiteSpace=wrap;html=1;aspect=fixed;shadow=0;sketch=0;fontSize=19;fontColor=#ffffff;strokeColor=#A50040;strokeWidth=2;fillColor=#d80073;align=center;rounded=1;" vertex="1" parent="WIyWlLk6GJQsqaUBKTNV-1">
          <mxGeometry x="1658.13" y="403.1300000000002" width="36.87" height="36.87" as="geometry" />
        </mxCell>
        <mxCell id="MjlApDLCVCDL2BFmYz9w-1069" value="" style="ellipse;whiteSpace=wrap;html=1;aspect=fixed;shadow=0;sketch=0;fontSize=19;fontColor=#ffffff;strokeColor=#A50040;strokeWidth=2;fillColor=#d80073;align=center;rounded=1;" vertex="1" parent="WIyWlLk6GJQsqaUBKTNV-1">
          <mxGeometry x="1703.13" y="403.1300000000002" width="36.87" height="36.87" as="geometry" />
        </mxCell>
        <mxCell id="MjlApDLCVCDL2BFmYz9w-1070" value="" style="ellipse;whiteSpace=wrap;html=1;aspect=fixed;shadow=0;sketch=0;fontSize=19;fontColor=#ffffff;strokeColor=#A50040;strokeWidth=2;fillColor=#d80073;align=center;rounded=1;" vertex="1" parent="WIyWlLk6GJQsqaUBKTNV-1">
          <mxGeometry x="1743.13" y="403.1300000000002" width="36.87" height="36.87" as="geometry" />
        </mxCell>
        <mxCell id="MjlApDLCVCDL2BFmYz9w-1084" value="" style="endArrow=classic;startArrow=classic;html=1;rounded=1;fontSize=26;fontColor=#000000;strokeColor=default;strokeWidth=2;opacity=80;entryX=0.5;entryY=1;entryDx=0;entryDy=0;exitX=0.5;exitY=-0.11;exitDx=0;exitDy=0;exitPerimeter=0;" edge="1" parent="WIyWlLk6GJQsqaUBKTNV-1" source="MjlApDLCVCDL2BFmYz9w-1057" target="MjlApDLCVCDL2BFmYz9w-1063">
          <mxGeometry width="50" height="50" relative="1" as="geometry">
            <mxPoint x="1630" y="530" as="sourcePoint" />
            <mxPoint x="1680" y="480" as="targetPoint" />
          </mxGeometry>
        </mxCell>
        <mxCell id="MjlApDLCVCDL2BFmYz9w-1085" value="&lt;div&gt;&lt;font face=&quot;helvetica&quot; size=&quot;1&quot;&gt;&lt;i&gt;&lt;b style=&quot;font-size: 35px&quot;&gt;Distinction&amp;nbsp; CL&lt;/b&gt;&lt;/i&gt;&lt;/font&gt;&lt;/div&gt;" style="text;whiteSpace=wrap;html=1;fontSize=15;fontColor=#000000;align=center;" vertex="1" parent="WIyWlLk6GJQsqaUBKTNV-1">
          <mxGeometry x="1503.13" y="487" width="253" height="32" as="geometry" />
        </mxCell>
        <mxCell id="MjlApDLCVCDL2BFmYz9w-1086" value="&lt;span style=&quot;color: rgb(0 , 0 , 0)&quot;&gt;&lt;font style=&quot;font-size: 35px&quot;&gt;Target Behavior Item&lt;/font&gt;&lt;/span&gt;" style="text;html=1;resizable=0;autosize=1;align=center;verticalAlign=middle;points=[];fillColor=none;strokeColor=none;rounded=0;shadow=0;sketch=0;fontSize=22;fontColor=#CC0000;" vertex="1" parent="WIyWlLk6GJQsqaUBKTNV-1">
          <mxGeometry x="1463.13" y="335" width="340" height="40" as="geometry" />
        </mxCell>
        <mxCell id="MjlApDLCVCDL2BFmYz9w-1088" value="&lt;span class=&quot;fontstyle0&quot;&gt;&lt;font color=&quot;#000000&quot; style=&quot;font-size: 35px&quot;&gt;Auxiliary behavior Item&lt;/font&gt;&lt;/span&gt; " style="text;html=1;resizable=0;autosize=1;align=center;verticalAlign=middle;points=[];fillColor=none;strokeColor=none;rounded=0;shadow=0;sketch=0;fontSize=22;fontColor=#CC0000;" vertex="1" parent="WIyWlLk6GJQsqaUBKTNV-1">
          <mxGeometry x="1461.26" y="655.0000000000001" width="370" height="40" as="geometry" />
        </mxCell>
        <mxCell id="MjlApDLCVCDL2BFmYz9w-1090" style="edgeStyle=orthogonalEdgeStyle;rounded=1;orthogonalLoop=1;jettySize=auto;html=1;fontSize=16;fontColor=#000000;endArrow=classic;endFill=1;strokeColor=#6c8ebf;strokeWidth=7;opacity=80;fillColor=#dae8fc;exitX=0;exitY=0.75;exitDx=0;exitDy=0;" edge="1" parent="WIyWlLk6GJQsqaUBKTNV-1" source="MjlApDLCVCDL2BFmYz9w-1063">
          <mxGeometry relative="1" as="geometry">
            <mxPoint x="1430" y="428.27000000000055" as="sourcePoint" />
            <mxPoint x="1440" y="462" as="targetPoint" />
            <Array as="points">
              <mxPoint x="1503" y="428" />
              <mxPoint x="1476" y="428" />
              <mxPoint x="1476" y="462" />
            </Array>
          </mxGeometry>
        </mxCell>
        <mxCell id="MjlApDLCVCDL2BFmYz9w-1093" value="&lt;font style=&quot;font-size: 35px&quot;&gt;Scoring&amp;nbsp;&lt;/font&gt;" style="rounded=1;whiteSpace=wrap;html=1;fontSize=16;fontColor=#000000;strokeWidth=2;fillColor=default;align=center;strokeColor=#B3B3B3;opacity=30;shadow=1;" vertex="1" parent="WIyWlLk6GJQsqaUBKTNV-1">
          <mxGeometry x="1310" y="420" width="130" height="75.87" as="geometry" />
        </mxCell>
        <mxCell id="MjlApDLCVCDL2BFmYz9w-1094" style="edgeStyle=orthogonalEdgeStyle;rounded=1;orthogonalLoop=1;jettySize=auto;html=1;fontSize=16;fontColor=#000000;endArrow=classic;endFill=1;strokeColor=#6c8ebf;strokeWidth=7;opacity=80;fillColor=#dae8fc;exitX=0.338;exitY=-0.015;exitDx=0;exitDy=0;exitPerimeter=0;" edge="1" parent="WIyWlLk6GJQsqaUBKTNV-1" source="MjlApDLCVCDL2BFmYz9w-945">
          <mxGeometry relative="1" as="geometry">
            <mxPoint x="1220" y="468.1100000000005" as="sourcePoint" />
            <mxPoint x="1300" y="468" as="targetPoint" />
            <Array as="points">
              <mxPoint x="1266" y="467" />
            </Array>
          </mxGeometry>
        </mxCell>
        <mxCell id="MjlApDLCVCDL2BFmYz9w-1096" value="&lt;font color=&quot;#000000&quot; style=&quot;font-size: 35px&quot;&gt;Sequence Multi-behavior&amp;nbsp;&lt;/font&gt;" style="text;html=1;resizable=0;autosize=1;align=center;verticalAlign=middle;points=[];fillColor=none;strokeColor=none;rounded=0;shadow=0;sketch=0;fontSize=22;fontColor=#CC0000;rotation=0;" vertex="1" parent="WIyWlLk6GJQsqaUBKTNV-1">
          <mxGeometry x="398.87000000000023" y="-34.995000000000005" width="410" height="40" as="geometry" />
        </mxCell>
        <mxCell id="MjlApDLCVCDL2BFmYz9w-1097" style="edgeStyle=orthogonalEdgeStyle;rounded=1;orthogonalLoop=1;jettySize=auto;html=1;fontSize=16;fontColor=#000000;endArrow=classic;endFill=1;strokeColor=#6c8ebf;strokeWidth=7;opacity=80;fillColor=#dae8fc;exitX=1;exitY=0.465;exitDx=0;exitDy=0;exitPerimeter=0;entryX=-0.001;entryY=0.432;entryDx=0;entryDy=0;entryPerimeter=0;" edge="1" parent="WIyWlLk6GJQsqaUBKTNV-1" target="MjlApDLCVCDL2BFmYz9w-875">
          <mxGeometry relative="1" as="geometry">
            <mxPoint x="-130" y="560.4000000000005" as="sourcePoint" />
            <mxPoint x="10" y="560" as="targetPoint" />
            <Array as="points">
              <mxPoint x="-84" y="560" />
            </Array>
          </mxGeometry>
        </mxCell>
        <mxCell id="MjlApDLCVCDL2BFmYz9w-1098" value="&lt;font style=&quot;font-size: 35px&quot;&gt;Sequence view &lt;br&gt;construction&lt;/font&gt;" style="text;html=1;align=center;verticalAlign=middle;resizable=0;points=[];autosize=1;strokeColor=none;fillColor=none;fontSize=16;fontColor=#000000;" vertex="1" parent="WIyWlLk6GJQsqaUBKTNV-1">
          <mxGeometry x="-208" y="182.0000000000001" width="250" height="60" as="geometry" />
        </mxCell>
        <mxCell id="MjlApDLCVCDL2BFmYz9w-1104" style="edgeStyle=orthogonalEdgeStyle;rounded=1;orthogonalLoop=1;jettySize=auto;html=1;fontSize=19;fontColor=#000000;endArrow=classic;endFill=1;strokeColor=default;strokeWidth=2;opacity=80;entryX=1;entryY=0.5;entryDx=0;entryDy=0;" edge="1" parent="WIyWlLk6GJQsqaUBKTNV-1" target="MjlApDLCVCDL2BFmYz9w-809">
          <mxGeometry relative="1" as="geometry">
            <mxPoint x="700" y="640.57" as="sourcePoint" />
            <mxPoint x="700" y="570.57" as="targetPoint" />
          </mxGeometry>
        </mxCell>
      </root>
    </mxGraphModel>
  </diagram>
</mxfile>
